<svg width="48" height="43" viewBox="0 0 48 43" fill="none" xmlns="http://www.w3.org/2000/svg">
<path d="M0.285156 27.7C0.285156 18.52 1.70182 11.72 4.53516 7.3C7.48182 2.88 12.0152 0.613332 18.1352 0.5V8.32C15.1885 8.54667 13.0352 9.90667 11.6752 12.4C10.4285 14.78 9.80516 18.8033 9.80516 24.47H18.4752V42.66H0.285156V27.7ZM29.5252 27.7C29.5252 18.52 30.9418 11.72 33.7752 7.3C36.7218 2.88 41.2552 0.613332 47.3752 0.5V8.32C44.3152 8.54667 42.1052 9.90667 40.7452 12.4C39.4985 14.78 38.8752 18.8033 38.8752 24.47H47.7152V42.66H29.5252V27.7Z" fill="#00AEF0"/>
</svg>
