<svg width="24" height="24" viewBox="0 0 24 24" fill="none" xmlns="http://www.w3.org/2000/svg">
<g clip-path="url(#clip0_273_153)">
<path d="M6.26087 23.7553H0V7.58154H6.26087V23.7553ZM1.04341 22.7119H5.21746V8.62496H1.04341V22.7119Z" fill="#F1F3F5"/>
<path d="M23.9998 23.7553H17.739V14.8858C17.739 14.0214 17.0381 13.3206 16.1737 13.3206C15.3092 13.3206 14.6085 14.0214 14.6085 14.8858V23.7553H8.34766V7.58154H14.6085V8.63146C15.5535 7.9482 16.6902 7.58078 17.8563 7.58154C21.241 7.58154 23.9998 10.3272 23.9998 13.7054V23.7553ZM18.7824 22.7119H22.9562V13.7054C22.9492 10.8948 20.6669 8.62133 17.8563 8.62496C16.5715 8.62496 15.365 9.16625 14.465 10.1445L13.5649 11.1293V8.62496H9.39107V22.7119H13.5649V14.8858C13.5649 13.445 14.7329 12.2772 16.1737 12.2772C17.6144 12.2772 18.7824 13.445 18.7824 14.8858V22.7119Z" fill="#F1F3F5"/>
<path d="M3.13043 6.53797C1.40147 6.53797 0 5.1365 0 3.40753C0 1.67876 1.40147 0.2771 3.13043 0.2771C4.8594 0.2771 6.26087 1.67876 6.26087 3.40753C6.25724 5.13497 4.85787 6.53453 3.13043 6.53797ZM3.13043 1.32071C1.97792 1.32071 1.04341 2.25502 1.04341 3.40753C1.04341 4.56024 1.97792 5.49455 3.13043 5.49455C4.28295 5.49455 5.21746 4.56024 5.21746 3.40753C5.21746 2.25502 4.28295 1.32071 3.13043 1.32071Z" fill="#F1F3F5"/>
</g>
<defs>
<clipPath id="clip0_273_153">
<rect width="24" height="24" fill="white"/>
</clipPath>
</defs>
</svg>
