<svg width="403" height="264" viewBox="0 0 403 264" fill="none" xmlns="http://www.w3.org/2000/svg">
<path opacity="0.1" d="M84.5812 35.65C92.4412 35.65 98.6512 38.29 103.211 43.57C107.771 48.79 110.051 57.1 110.051 68.5C110.051 79.9 107.771 88.21 103.211 93.43C98.6512 98.65 92.4412 101.26 84.5812 101.26C76.7212 101.26 70.5112 98.65 65.9512 93.43C61.3912 88.21 59.1112 79.9 59.1112 68.5C59.1112 57.1 61.3912 48.79 65.9512 43.57C70.5112 38.29 76.7212 35.65 84.5812 35.65ZM84.5812 91.45C88.2412 91.45 91.1812 89.86 93.4012 86.68C95.6212 83.5 96.7312 77.44 96.7312 68.5C96.7312 59.56 95.6212 53.5 93.4012 50.32C91.1812 47.08 88.2412 45.46 84.5812 45.46C80.9212 45.46 77.9812 47.08 75.7612 50.32C73.5412 53.5 72.4312 59.56 72.4312 68.5C72.4312 77.44 73.5412 83.5 75.7612 86.68C77.9812 89.86 80.9212 91.45 84.5812 91.45ZM140.743 100H128.053V55.45H115.363V46.81H117.253C120.973 46.81 123.883 45.88 125.983 44.02C128.143 42.1 129.493 39.76 130.033 37H140.743V100Z" fill="#0C0D0E"/>
<path d="M208.57 64H133.172C131.131 64.0197 129.181 64.8491 127.751 66.3059C126.321 67.7626 125.529 69.7276 125.547 71.7686V226.982C125.53 229.023 126.323 230.987 127.753 232.443C129.182 233.9 131.131 234.73 133.172 234.751H208.57C210.612 234.731 212.563 233.902 213.994 232.445C215.425 230.989 216.22 229.024 216.204 226.982V71.7686C216.222 69.7262 215.427 67.7606 213.995 66.3038C212.564 64.8471 210.612 64.0184 208.57 64ZM211.435 222.183C211.435 226.271 208.376 229.573 204.606 229.573H137.15C133.371 229.573 130.312 226.271 130.312 222.183V77.6523C130.312 69.3316 133.371 68.9238 137.15 68.9238H150.663C151.444 68.9238 152.086 69.819 152.086 70.9132V71.4105C152.086 74.0017 153.508 74.0117 155.249 74.0117H186.498C188.253 74.0117 189.661 74.0117 189.661 71.4105V70.9132C189.661 69.8091 190.292 68.9238 191.088 68.9238H204.606C208.376 68.9238 211.435 70.0329 211.435 77.6523V222.183Z" fill="#263238"/>
<path d="M175.133 70.7653H166.613C166.544 70.766 166.475 70.7528 166.411 70.7265C166.346 70.7003 166.288 70.6615 166.239 70.6124C166.19 70.5633 166.151 70.5049 166.125 70.4407C166.098 70.3764 166.085 70.3075 166.086 70.2381C166.086 70.0983 166.142 69.9642 166.24 69.8654C166.339 69.7665 166.473 69.7109 166.613 69.7109H175.133C175.273 69.7109 175.407 69.7665 175.506 69.8654C175.604 69.9642 175.66 70.0983 175.66 70.2381C175.661 70.3075 175.647 70.3764 175.621 70.4407C175.595 70.5049 175.556 70.5633 175.507 70.6124C175.458 70.6615 175.4 70.7003 175.335 70.7265C175.271 70.7528 175.202 70.766 175.133 70.7653Z" fill="white"/>
<path d="M211.435 77.6504V222.181C211.435 226.269 208.377 229.571 204.607 229.571H137.151C133.371 229.571 130.312 226.269 130.312 222.181V77.6504C130.312 69.3297 133.371 68.9219 137.151 68.9219H150.664C151.445 68.9219 152.087 69.8171 152.087 70.9113V71.4086C152.087 73.9998 153.509 74.0098 155.25 74.0098H186.498C188.254 74.0098 189.661 74.0098 189.661 71.4086V70.9113C189.661 69.8072 190.293 68.9219 191.089 68.9219H204.607C208.377 68.9219 211.435 70.031 211.435 77.6504Z" fill="white"/>
<path d="M148.334 72.1728L148.204 72.3021L148.13 72.3767C147.793 72.0509 147.34 71.872 146.871 71.8794C146.639 71.8746 146.408 71.9162 146.192 72.0016C145.976 72.087 145.779 72.2145 145.613 72.3767L145.538 72.3071L145.414 72.1778L145.578 72.0286C145.695 71.933 145.824 71.8528 145.961 71.7898C146.118 71.71 146.286 71.6515 146.458 71.6158C146.543 71.6158 146.628 71.6158 146.712 71.5859H146.936H147.105C147.265 71.607 147.421 71.6453 147.573 71.7003C147.681 71.7403 147.785 71.7885 147.886 71.8446C147.989 71.9085 148.089 71.9782 148.184 72.0534L148.324 72.1778L148.334 72.1728Z" fill="#A6A6A6"/>
<path d="M146.014 72.7918L145.805 72.5829C146.034 72.3485 146.335 72.1964 146.66 72.1502C146.889 72.1146 147.123 72.1339 147.342 72.2065C147.562 72.2792 147.761 72.4031 147.923 72.568L147.715 72.7719C147.604 72.6608 147.473 72.5726 147.328 72.5124C147.183 72.4522 147.028 72.4213 146.872 72.4213C146.715 72.4213 146.56 72.4522 146.415 72.5124C146.27 72.5726 146.139 72.6608 146.028 72.7719L146.014 72.7918Z" fill="#A6A6A6"/>
<path d="M147.5 72.9924L147.296 73.1963C147.239 73.1394 147.172 73.0944 147.097 73.0636C147.023 73.0328 146.944 73.017 146.863 73.017C146.783 73.017 146.703 73.0328 146.629 73.0636C146.555 73.0944 146.487 73.1394 146.43 73.1963L146.227 72.9924C146.31 72.9082 146.409 72.8413 146.518 72.7957C146.628 72.7501 146.745 72.7266 146.863 72.7266C146.982 72.7266 147.099 72.7501 147.208 72.7957C147.317 72.8413 147.417 72.9082 147.5 72.9924Z" fill="#A6A6A6"/>
<path d="M147.055 73.3836C147.048 73.4278 147.025 73.4681 146.991 73.4971C146.957 73.5261 146.914 73.542 146.869 73.542C146.824 73.542 146.78 73.5261 146.746 73.4971C146.712 73.4681 146.689 73.4278 146.682 73.3836C146.678 73.3566 146.679 73.3289 146.687 73.3025C146.694 73.2761 146.707 73.2516 146.725 73.2307C146.742 73.2098 146.764 73.193 146.789 73.1815C146.814 73.17 146.841 73.1641 146.869 73.1641C146.896 73.1641 146.923 73.17 146.948 73.1815C146.973 73.193 146.995 73.2098 147.013 73.2307C147.03 73.2516 147.043 73.2761 147.051 73.3025C147.058 73.3289 147.06 73.3566 147.055 73.3836Z" fill="#A6A6A6"/>
<path d="M136.139 73.0977C136.435 73.0977 136.676 72.8572 136.676 72.5606C136.676 72.2639 136.435 72.0234 136.139 72.0234C135.842 72.0234 135.602 72.2639 135.602 72.5606C135.602 72.8572 135.842 73.0977 136.139 73.0977Z" fill="#A6A6A6"/>
<path d="M137.297 72.5606C137.297 72.4543 137.328 72.3505 137.387 72.2622C137.446 72.1738 137.53 72.105 137.628 72.0643C137.727 72.0237 137.835 72.013 137.939 72.0338C138.043 72.0545 138.139 72.1056 138.214 72.1808C138.289 72.2559 138.34 72.3516 138.361 72.4558C138.382 72.56 138.371 72.668 138.33 72.7661C138.29 72.8643 138.221 72.9482 138.132 73.0072C138.044 73.0662 137.94 73.0977 137.834 73.0977C137.692 73.0977 137.555 73.0411 137.454 72.9404C137.353 72.8397 137.297 72.703 137.297 72.5606Z" fill="#A6A6A6"/>
<path d="M139.522 73.0977C139.818 73.0977 140.059 72.8572 140.059 72.5606C140.059 72.2639 139.818 72.0234 139.522 72.0234C139.225 72.0234 138.984 72.2639 138.984 72.5606C138.984 72.8572 139.225 73.0977 139.522 73.0977Z" fill="#A6A6A6"/>
<path d="M140.68 72.5606C140.68 72.4543 140.711 72.3505 140.77 72.2622C140.829 72.1738 140.913 72.105 141.011 72.0643C141.109 72.0237 141.217 72.013 141.322 72.0338C141.426 72.0545 141.522 72.1056 141.597 72.1808C141.672 72.2559 141.723 72.3516 141.744 72.4558C141.764 72.56 141.754 72.668 141.713 72.7661C141.672 72.8643 141.604 72.9482 141.515 73.0072C141.427 73.0662 141.323 73.0977 141.217 73.0977C141.074 73.0977 140.938 73.0411 140.837 72.9404C140.736 72.8397 140.68 72.703 140.68 72.5606Z" fill="#A6A6A6"/>
<path d="M142.375 72.5606C142.375 72.49 142.389 72.4202 142.416 72.355C142.443 72.2899 142.482 72.2306 142.532 72.1808C142.582 72.1309 142.641 72.0913 142.707 72.0643C142.772 72.0373 142.842 72.0234 142.912 72.0234C142.983 72.0234 143.053 72.0373 143.118 72.0643C143.183 72.0913 143.242 72.1309 143.292 72.1808C143.342 72.2306 143.381 72.2899 143.408 72.355C143.435 72.4202 143.449 72.49 143.449 72.5606C143.449 72.6311 143.435 72.701 143.408 72.7661C143.381 72.8313 143.342 72.8905 143.292 72.9404C143.242 72.9903 143.183 73.0298 143.118 73.0568C143.053 73.0838 142.983 73.0977 142.912 73.0977C142.842 73.0977 142.772 73.0838 142.707 73.0568C142.641 73.0298 142.582 72.9903 142.532 72.9404C142.482 72.8905 142.443 72.8313 142.416 72.7661C142.389 72.701 142.375 72.6311 142.375 72.5606Z" fill="#A6A6A6"/>
<path d="M205.239 71.8203H201.086V73.6257H205.239V71.8203Z" fill="#A6A6A6"/>
<path d="M205.362 73.7494H200.961V71.6953H205.362V73.7494ZM201.21 73.5007H205.114V71.944H201.215L201.21 73.5007Z" fill="white"/>
<path d="M204.156 72.0547H201.336V73.3926H204.156V72.0547Z" fill="#A6A6A6"/>
<path d="M205.739 72.1797H205.352V73.2639H205.739V72.1797Z" fill="#A6A6A6"/>
<path d="M187.849 225.104H153.904C153.711 225.12 153.531 225.207 153.4 225.35C153.268 225.492 153.195 225.679 153.195 225.872C153.195 226.066 153.268 226.253 153.4 226.395C153.531 226.538 153.711 226.625 153.904 226.641H187.849C187.955 226.649 188.061 226.636 188.162 226.601C188.263 226.566 188.355 226.511 188.433 226.439C188.511 226.367 188.574 226.279 188.617 226.182C188.659 226.084 188.681 225.979 188.681 225.872C188.681 225.766 188.659 225.661 188.617 225.563C188.574 225.466 188.511 225.378 188.433 225.306C188.355 225.234 188.263 225.179 188.162 225.144C188.061 225.109 187.955 225.096 187.849 225.104Z" fill="#A6A6A6"/>
<path d="M176.268 145.696C179.245 142.718 179.245 137.891 176.268 134.913C173.29 131.936 168.463 131.936 165.485 134.913C162.507 137.891 162.507 142.718 165.485 145.696C168.463 148.673 173.29 148.673 176.268 145.696Z" fill="#455A64"/>
<path d="M168.757 136.5C168.613 136.501 168.472 136.545 168.353 136.626C168.233 136.707 168.14 136.821 168.085 136.955C168.031 137.088 168.017 137.235 168.046 137.377C168.075 137.518 168.145 137.648 168.247 137.75C168.35 137.852 168.48 137.921 168.622 137.949C168.763 137.976 168.91 137.962 169.043 137.906C169.177 137.851 169.29 137.757 169.371 137.637C169.451 137.517 169.493 137.376 169.493 137.231C169.493 137.135 169.474 137.039 169.437 136.95C169.4 136.861 169.346 136.78 169.278 136.712C169.209 136.644 169.128 136.591 169.039 136.554C168.949 136.518 168.854 136.499 168.757 136.5Z" fill="white"/>
<path d="M170.88 136.5C170.735 136.5 170.594 136.543 170.473 136.623C170.353 136.704 170.259 136.818 170.204 136.951C170.149 137.085 170.134 137.232 170.162 137.374C170.191 137.516 170.26 137.646 170.363 137.748C170.465 137.85 170.595 137.92 170.737 137.948C170.879 137.976 171.026 137.962 171.159 137.907C171.293 137.851 171.407 137.758 171.487 137.637C171.568 137.517 171.611 137.376 171.611 137.231C171.611 137.037 171.534 136.851 171.397 136.714C171.259 136.577 171.073 136.5 170.88 136.5Z" fill="white"/>
<path d="M172.986 137.962C173.13 137.961 173.271 137.917 173.391 137.837C173.51 137.756 173.603 137.641 173.658 137.507C173.713 137.374 173.726 137.227 173.698 137.085C173.669 136.944 173.599 136.814 173.496 136.712C173.394 136.611 173.264 136.541 173.122 136.514C172.98 136.486 172.833 136.501 172.7 136.556C172.567 136.612 172.453 136.705 172.373 136.825C172.293 136.946 172.25 137.087 172.25 137.231C172.25 137.328 172.269 137.423 172.306 137.512C172.343 137.601 172.397 137.682 172.466 137.75C172.534 137.818 172.615 137.872 172.705 137.908C172.794 137.944 172.89 137.963 172.986 137.962Z" fill="white"/>
<path d="M168.76 138.547C168.614 138.547 168.472 138.59 168.351 138.671C168.23 138.752 168.135 138.867 168.079 139.001C168.024 139.136 168.009 139.284 168.038 139.427C168.066 139.569 168.136 139.701 168.239 139.803C168.342 139.906 168.473 139.977 168.616 140.005C168.759 140.033 168.907 140.019 169.041 139.963C169.176 139.907 169.291 139.813 169.372 139.692C169.452 139.571 169.496 139.429 169.496 139.283C169.496 139.186 169.478 139.09 169.441 139.001C169.404 138.911 169.35 138.829 169.281 138.761C169.213 138.693 169.132 138.638 169.042 138.602C168.952 138.565 168.856 138.546 168.76 138.547Z" fill="white"/>
<path d="M170.874 138.547C170.728 138.546 170.585 138.588 170.464 138.669C170.342 138.749 170.247 138.863 170.19 138.998C170.134 139.132 170.119 139.28 170.146 139.424C170.174 139.567 170.244 139.698 170.347 139.802C170.449 139.905 170.581 139.976 170.723 140.005C170.866 140.033 171.015 140.019 171.149 139.963C171.284 139.908 171.399 139.814 171.481 139.692C171.562 139.571 171.605 139.429 171.605 139.283C171.605 139.089 171.528 138.902 171.391 138.764C171.254 138.626 171.068 138.548 170.874 138.547Z" fill="white"/>
<path d="M172.991 138.547C172.845 138.546 172.702 138.588 172.581 138.669C172.459 138.749 172.364 138.863 172.307 138.998C172.251 139.132 172.236 139.28 172.264 139.424C172.291 139.567 172.361 139.698 172.464 139.802C172.567 139.905 172.698 139.976 172.841 140.005C172.984 140.033 173.132 140.019 173.267 139.963C173.401 139.908 173.517 139.814 173.598 139.692C173.679 139.571 173.722 139.429 173.722 139.283C173.722 139.089 173.645 138.902 173.508 138.764C173.371 138.626 173.185 138.548 172.991 138.547Z" fill="white"/>
<path d="M168.76 140.602C168.614 140.602 168.472 140.645 168.351 140.726C168.23 140.807 168.135 140.921 168.079 141.056C168.024 141.19 168.009 141.338 168.038 141.481C168.066 141.624 168.136 141.755 168.239 141.858C168.342 141.961 168.473 142.031 168.616 142.06C168.759 142.088 168.907 142.073 169.041 142.018C169.176 141.962 169.291 141.868 169.372 141.747C169.452 141.626 169.496 141.483 169.496 141.338C169.496 141.241 169.478 141.145 169.441 141.055C169.404 140.966 169.35 140.884 169.281 140.816C169.213 140.747 169.132 140.693 169.042 140.656C168.952 140.62 168.856 140.601 168.76 140.602Z" fill="white"/>
<path d="M170.874 140.602C170.728 140.601 170.585 140.643 170.464 140.723C170.342 140.803 170.247 140.918 170.19 141.053C170.134 141.187 170.119 141.335 170.146 141.478C170.174 141.621 170.244 141.753 170.347 141.856C170.449 141.96 170.581 142.03 170.723 142.059C170.866 142.088 171.015 142.074 171.149 142.018C171.284 141.963 171.399 141.868 171.481 141.747C171.562 141.626 171.605 141.483 171.605 141.338C171.605 141.143 171.528 140.957 171.391 140.819C171.254 140.681 171.068 140.603 170.874 140.602Z" fill="white"/>
<path d="M172.991 140.602C172.845 140.601 172.702 140.643 172.581 140.723C172.459 140.803 172.364 140.918 172.307 141.053C172.251 141.187 172.236 141.335 172.264 141.478C172.291 141.621 172.361 141.753 172.464 141.856C172.567 141.96 172.698 142.03 172.841 142.059C172.984 142.088 173.132 142.074 173.267 142.018C173.401 141.963 173.517 141.868 173.598 141.747C173.679 141.626 173.722 141.483 173.722 141.338C173.722 141.143 173.645 140.957 173.508 140.819C173.371 140.681 173.185 140.603 172.991 140.602Z" fill="white"/>
<path d="M170.874 142.656C170.728 142.655 170.585 142.698 170.463 142.778C170.341 142.859 170.246 142.974 170.19 143.108C170.133 143.243 170.118 143.391 170.147 143.535C170.175 143.678 170.245 143.81 170.348 143.913C170.452 144.016 170.583 144.086 170.727 144.115C170.87 144.143 171.018 144.128 171.153 144.071C171.288 144.015 171.402 143.92 171.483 143.798C171.563 143.676 171.606 143.533 171.605 143.387C171.605 143.193 171.528 143.008 171.391 142.87C171.254 142.733 171.068 142.656 170.874 142.656Z" fill="white"/>
<path d="M192.453 170.132C196.663 170.132 200.077 166.718 200.077 162.507C200.077 158.296 196.663 154.883 192.453 154.883C188.242 154.883 184.828 158.296 184.828 162.507C184.828 166.718 188.242 170.132 192.453 170.132Z" fill="#455A64"/>
<path d="M194.093 160.324C194.093 160.647 193.997 160.964 193.817 161.233C193.637 161.502 193.382 161.712 193.083 161.836C192.784 161.959 192.455 161.992 192.137 161.929C191.82 161.866 191.528 161.71 191.3 161.481C191.071 161.252 190.915 160.96 190.852 160.643C190.789 160.326 190.821 159.997 190.945 159.698C191.069 159.399 191.278 159.143 191.548 158.963C191.817 158.783 192.133 158.688 192.457 158.688C192.891 158.688 193.307 158.86 193.614 159.167C193.92 159.474 194.093 159.89 194.093 160.324Z" fill="white"/>
<path d="M195.285 164.846V165.522C194.804 165.818 194.281 166.038 193.733 166.173C193.039 166.343 192.319 166.373 191.614 166.261C190.908 166.149 190.232 165.898 189.625 165.522V164.846C189.625 164.095 189.923 163.375 190.454 162.844C190.985 162.314 191.704 162.016 192.455 162.016C193.205 162.016 193.925 162.314 194.456 162.844C194.987 163.375 195.285 164.095 195.285 164.846Z" fill="white"/>
<path d="M154.682 145.704C157.659 142.726 157.659 137.899 154.682 134.921C151.704 131.944 146.877 131.944 143.899 134.921C140.922 137.899 140.922 142.726 143.899 145.704C146.877 148.681 151.704 148.681 154.682 145.704Z" fill="#455A64"/>
<path d="M149.299 144.573C149.253 144.573 149.209 144.554 149.176 144.522C149.143 144.489 149.125 144.445 149.125 144.399V142.369C149.125 142.323 149.143 142.279 149.176 142.246C149.209 142.214 149.253 142.195 149.299 142.195C149.345 142.195 149.39 142.214 149.422 142.246C149.455 142.279 149.473 142.323 149.473 142.369V144.399C149.473 144.445 149.455 144.489 149.422 144.522C149.39 144.554 149.345 144.573 149.299 144.573Z" fill="white"/>
<path d="M150.405 144.575H148.182C148.136 144.575 148.091 144.556 148.059 144.524C148.026 144.491 148.008 144.447 148.008 144.401C148.008 144.354 148.026 144.31 148.059 144.278C148.091 144.245 148.136 144.227 148.182 144.227H150.405C150.451 144.227 150.495 144.245 150.528 144.278C150.561 144.31 150.579 144.354 150.579 144.401C150.579 144.447 150.561 144.491 150.528 144.524C150.495 144.556 150.451 144.575 150.405 144.575Z" fill="white"/>
<path d="M150.722 137.478V140.428C150.733 140.622 150.705 140.818 150.638 141.001C150.571 141.185 150.468 141.352 150.334 141.494C150.2 141.637 150.039 141.75 149.859 141.827C149.68 141.904 149.487 141.944 149.292 141.944C149.097 141.944 148.903 141.904 148.724 141.827C148.545 141.75 148.383 141.637 148.25 141.494C148.116 141.352 148.012 141.185 147.945 141.001C147.879 140.818 147.85 140.622 147.862 140.428V137.478C147.853 137.1 147.994 136.733 148.255 136.459C148.516 136.185 148.876 136.025 149.254 136.016C149.633 136.007 150 136.148 150.274 136.41C150.548 136.671 150.707 137.03 150.717 137.409C150.721 137.432 150.723 137.455 150.722 137.478Z" fill="white"/>
<path d="M149.287 142.536C149.015 142.537 148.745 142.484 148.493 142.38C148.241 142.276 148.012 142.123 147.819 141.93C147.627 141.738 147.474 141.509 147.37 141.257C147.266 141.005 147.213 140.735 147.213 140.462V139.219C147.209 139.194 147.21 139.168 147.217 139.144C147.224 139.12 147.236 139.097 147.252 139.077C147.268 139.058 147.289 139.043 147.312 139.032C147.335 139.021 147.36 139.016 147.385 139.016C147.41 139.016 147.435 139.021 147.458 139.032C147.481 139.043 147.502 139.058 147.518 139.077C147.534 139.097 147.546 139.12 147.553 139.144C147.56 139.168 147.561 139.194 147.557 139.219V140.462C147.558 140.696 147.606 140.927 147.698 141.141C147.791 141.356 147.926 141.549 148.095 141.71C148.264 141.872 148.463 141.997 148.682 142.079C148.901 142.161 149.134 142.198 149.367 142.188C149.818 142.157 150.239 141.954 150.546 141.623C150.853 141.291 151.022 140.855 151.018 140.403V139.219C151.018 139.173 151.037 139.129 151.069 139.096C151.102 139.063 151.146 139.045 151.192 139.045C151.238 139.045 151.283 139.063 151.315 139.096C151.348 139.129 151.366 139.173 151.366 139.219V140.403C151.375 140.947 151.172 141.473 150.801 141.87C150.431 142.268 149.92 142.507 149.377 142.536H149.287Z" fill="white"/>
<path d="M170.874 170.132C175.085 170.132 178.499 166.718 178.499 162.507C178.499 158.296 175.085 154.883 170.874 154.883C166.664 154.883 163.25 158.296 163.25 162.507C163.25 166.718 166.664 170.132 170.874 170.132Z" fill="#455A64"/>
<path d="M175.314 161.538V163.478C175.31 163.558 175.289 163.635 175.252 163.706C175.215 163.776 175.162 163.837 175.099 163.885C175.035 163.932 174.961 163.965 174.883 163.981C174.805 163.997 174.725 163.995 174.648 163.975L173.782 163.757L173.359 163.657V161.344L174.513 161.051L174.667 161.011C174.746 160.995 174.827 160.996 174.904 161.015C174.982 161.034 175.054 161.07 175.116 161.121C175.178 161.171 175.228 161.235 175.262 161.307C175.297 161.38 175.314 161.459 175.314 161.538Z" fill="white"/>
<path d="M171.918 160.125H168.566C168.025 160.125 167.586 160.564 167.586 161.105V163.905C167.586 164.446 168.025 164.885 168.566 164.885H171.918C172.459 164.885 172.898 164.446 172.898 163.905V161.105C172.898 160.564 172.459 160.125 171.918 160.125Z" fill="white"/>
<path d="M149.288 170.132C153.499 170.132 156.913 166.718 156.913 162.507C156.913 158.296 153.499 154.883 149.288 154.883C145.078 154.883 141.664 158.296 141.664 162.507C141.664 166.718 145.078 170.132 149.288 170.132Z" fill="#455A64"/>
<path d="M152.197 162.045H149.75V159.603C149.75 159.48 149.701 159.363 149.614 159.276C149.528 159.189 149.41 159.141 149.287 159.141C149.165 159.141 149.047 159.189 148.96 159.276C148.874 159.363 148.825 159.48 148.825 159.603V162.045H146.383C146.318 162.038 146.252 162.045 146.19 162.066C146.127 162.086 146.07 162.119 146.022 162.163C145.973 162.207 145.934 162.26 145.908 162.32C145.881 162.38 145.867 162.445 145.867 162.51C145.867 162.576 145.881 162.64 145.908 162.7C145.934 162.76 145.973 162.814 146.022 162.857C146.07 162.901 146.127 162.934 146.19 162.955C146.252 162.975 146.318 162.982 146.383 162.975H148.825V165.417C148.825 165.54 148.874 165.658 148.96 165.744C149.047 165.831 149.165 165.88 149.287 165.88C149.41 165.88 149.528 165.831 149.614 165.744C149.701 165.658 149.75 165.54 149.75 165.417V162.975H152.197C152.312 162.963 152.418 162.909 152.496 162.823C152.573 162.737 152.616 162.626 152.616 162.51C152.616 162.395 152.573 162.283 152.496 162.197C152.418 162.111 152.312 162.057 152.197 162.045Z" fill="white"/>
<path d="M197.846 145.704C200.823 142.726 200.823 137.899 197.846 134.921C194.868 131.944 190.041 131.944 187.063 134.921C184.086 137.899 184.086 142.726 187.063 145.704C190.041 148.681 194.868 148.681 197.846 145.704Z" fill="#455A64"/>
<path d="M196.237 139.98C196.237 139.806 196.197 139.627 196.168 139.453C196.098 139.085 195.977 138.729 195.809 138.394C195.675 138.109 195.508 137.84 195.312 137.593L195.009 137.25L194.74 137.519L194.586 137.663C194.933 138.008 195.208 138.418 195.396 138.87C195.584 139.322 195.681 139.807 195.681 140.296C195.681 140.786 195.584 141.27 195.396 141.722C195.208 142.174 194.933 142.585 194.586 142.93L194.74 143.084L195.014 143.357C195.103 143.263 195.193 143.168 195.277 143.069C195.442 142.874 195.588 142.664 195.715 142.442C195.836 142.232 195.939 142.013 196.023 141.786C196.139 141.473 196.216 141.147 196.252 140.816C196.252 140.697 196.252 140.572 196.282 140.453C196.237 140.433 196.237 140.04 196.237 139.98Z" fill="white"/>
<path d="M194.988 139.849C194.895 139.183 194.586 138.566 194.107 138.094L193.68 138.526C193.912 138.758 194.096 139.033 194.222 139.336C194.347 139.639 194.411 139.964 194.411 140.292C194.413 140.62 194.35 140.946 194.224 141.249C194.099 141.552 193.914 141.827 193.68 142.058L194.112 142.49C194.455 142.15 194.713 141.733 194.865 141.274C195.017 140.815 195.059 140.327 194.988 139.849Z" fill="white"/>
<path d="M193.256 138.953L192.828 139.381C192.949 139.499 193.044 139.64 193.109 139.795C193.174 139.951 193.207 140.118 193.206 140.286C193.207 140.454 193.174 140.621 193.11 140.776C193.046 140.931 192.952 141.072 192.833 141.191L193.261 141.619C193.437 141.445 193.577 141.237 193.673 141.008C193.768 140.779 193.817 140.533 193.817 140.285C193.816 140.037 193.766 139.791 193.67 139.563C193.574 139.334 193.433 139.127 193.256 138.953Z" fill="white"/>
<path d="M189.943 139.062H188.68V141.509H189.943V139.062Z" fill="white"/>
<path d="M189.945 139.066L192.273 138.086V142.492L189.945 141.513V139.066Z" fill="white"/>
<path d="M170.872 208.283C175.841 208.283 179.869 204.255 179.869 199.286C179.869 194.317 175.841 190.289 170.872 190.289C165.903 190.289 161.875 194.317 161.875 199.286C161.875 204.255 165.903 208.283 170.872 208.283Z" fill="#00AEF0"/>
<path d="M175.984 199.344C175.945 199.2 175.899 199.059 175.845 198.921C175.773 198.784 175.692 198.653 175.601 198.528L175.273 198.2C175.134 198.1 175.004 197.996 174.86 197.906C174.323 197.562 173.723 197.329 173.094 197.22C171.627 196.927 170.116 196.927 168.648 197.22C168.013 197.331 167.406 197.566 166.863 197.911C166.723 198.006 166.594 198.105 166.465 198.2L166.122 198.538L165.967 198.772C165.849 198.947 165.782 199.152 165.773 199.364H168.668C168.689 199.365 168.709 199.359 168.726 199.347C168.743 199.336 168.756 199.319 168.763 199.299C168.843 199.146 168.962 199.016 169.107 198.923C169.253 198.829 169.42 198.776 169.593 198.767C170.438 198.712 171.285 198.712 172.13 198.767C172.303 198.771 172.472 198.822 172.618 198.915C172.764 199.008 172.883 199.139 172.96 199.294C172.97 199.316 172.986 199.334 173.007 199.346C173.027 199.359 173.051 199.365 173.075 199.364H175.885L175.984 199.344Z" fill="white"/>
<path d="M165.768 199.966V201.025C165.762 201.074 165.767 201.123 165.782 201.17C165.798 201.216 165.824 201.258 165.859 201.293C165.894 201.328 165.936 201.354 165.982 201.37C166.029 201.385 166.078 201.39 166.127 201.383H168.275C168.325 201.39 168.375 201.385 168.423 201.369C168.47 201.353 168.513 201.326 168.549 201.29C168.584 201.254 168.61 201.211 168.626 201.163C168.641 201.116 168.646 201.065 168.638 201.015V200.175C168.638 200.1 168.638 200.026 168.638 199.961L165.768 199.966Z" fill="white"/>
<path d="M175.958 199.93H173.118C173.118 200.288 173.118 200.646 173.118 201.009C173.114 201.055 173.121 201.102 173.137 201.145C173.153 201.189 173.179 201.228 173.212 201.261C173.246 201.293 173.286 201.318 173.33 201.333C173.374 201.347 173.42 201.352 173.466 201.347H175.635C175.682 201.353 175.73 201.347 175.775 201.332C175.82 201.316 175.861 201.291 175.895 201.258C175.929 201.224 175.955 201.184 175.971 201.139C175.987 201.094 175.993 201.046 175.988 200.999C175.988 200.661 175.988 200.328 175.988 200.004L175.958 199.93Z" fill="white"/>
<path d="M160.781 119.225C160.792 118.668 161.02 118.138 161.417 117.749C161.814 117.359 162.349 117.141 162.905 117.141C163.39 117.138 163.863 117.297 164.248 117.593C164.318 117.647 164.363 117.727 164.374 117.815C164.386 117.902 164.362 117.991 164.307 118.061C164.253 118.131 164.174 118.176 164.086 118.187C163.998 118.199 163.91 118.175 163.84 118.12C163.576 117.907 163.244 117.794 162.905 117.802C162.517 117.801 162.145 117.951 161.865 118.22C161.732 118.351 161.626 118.508 161.553 118.681C161.481 118.854 161.443 119.04 161.443 119.227C161.443 119.415 161.481 119.6 161.553 119.773C161.626 119.946 161.732 120.103 161.865 120.234C162.147 120.5 162.518 120.649 162.905 120.652C163.244 120.659 163.575 120.546 163.84 120.334C163.911 120.285 163.998 120.265 164.084 120.277C164.169 120.289 164.247 120.332 164.302 120.398C164.354 120.468 164.378 120.554 164.367 120.64C164.357 120.727 164.314 120.805 164.248 120.861C163.863 121.157 163.39 121.316 162.905 121.313C162.347 121.315 161.812 121.096 161.414 120.705C161.016 120.314 160.789 119.782 160.781 119.225Z" fill="#263238"/>
<path d="M166.008 120.994C166.008 121.036 166 121.078 165.984 121.117C165.967 121.156 165.944 121.191 165.913 121.221C165.883 121.251 165.848 121.274 165.809 121.29C165.769 121.305 165.727 121.313 165.685 121.312C165.615 121.311 165.547 121.287 165.492 121.244C165.436 121.201 165.396 121.141 165.377 121.074C165.374 121.047 165.374 121.021 165.377 120.994V117.572C165.387 117.494 165.425 117.422 165.484 117.37C165.543 117.318 165.619 117.289 165.698 117.289C165.776 117.289 165.853 117.318 165.912 117.37C165.971 117.422 166.009 117.494 166.018 117.572V118.567C166.208 118.46 166.422 118.401 166.64 118.398C166.976 118.399 167.297 118.533 167.534 118.771C167.77 119.009 167.903 119.331 167.903 119.666V120.979C167.894 121.057 167.856 121.129 167.797 121.181C167.737 121.234 167.661 121.262 167.583 121.262C167.504 121.262 167.428 121.234 167.369 121.181C167.31 121.129 167.272 121.057 167.262 120.979V119.666C167.262 119.501 167.196 119.343 167.08 119.227C166.963 119.11 166.805 119.044 166.64 119.044C166.475 119.044 166.317 119.11 166.2 119.227C166.084 119.343 166.018 119.501 166.018 119.666L166.008 120.994Z" fill="#263238"/>
<path d="M171.601 119.894V121.028C171.601 121.109 171.569 121.186 171.513 121.244C171.456 121.302 171.379 121.335 171.298 121.336C171.227 121.335 171.158 121.31 171.102 121.265C171.047 121.22 171.009 121.157 170.994 121.088C170.77 121.248 170.5 121.335 170.224 121.336C170.038 121.338 169.853 121.301 169.682 121.228C169.511 121.156 169.357 121.048 169.229 120.913C168.974 120.635 168.833 120.271 168.836 119.894C168.836 119.524 168.976 119.169 169.229 118.899C169.446 118.656 169.747 118.502 170.071 118.468C170.396 118.434 170.721 118.522 170.985 118.715C170.998 118.644 171.036 118.581 171.091 118.534C171.146 118.488 171.216 118.462 171.288 118.461C171.328 118.462 171.368 118.471 171.406 118.487C171.443 118.503 171.476 118.526 171.505 118.555C171.533 118.584 171.555 118.619 171.57 118.656C171.585 118.694 171.592 118.734 171.591 118.775L171.601 119.894ZM170.99 119.894C170.994 119.673 170.912 119.459 170.761 119.297C170.694 119.221 170.611 119.16 170.518 119.119C170.426 119.077 170.325 119.057 170.224 119.058C170.122 119.056 170.021 119.076 169.928 119.117C169.835 119.159 169.753 119.22 169.686 119.297C169.537 119.459 169.457 119.673 169.463 119.894C169.461 120.114 169.54 120.326 169.686 120.491C169.756 120.563 169.839 120.62 169.932 120.659C170.024 120.697 170.123 120.716 170.224 120.714C170.324 120.715 170.423 120.696 170.515 120.657C170.607 120.619 170.691 120.562 170.761 120.491C170.908 120.327 170.99 120.114 170.99 119.894Z" fill="#263238"/>
<path d="M174.528 118.715C174.528 118.797 174.495 118.876 174.437 118.933C174.38 118.991 174.301 119.024 174.219 119.024C174.094 119.02 173.972 119.059 173.871 119.133C173.762 119.205 173.671 119.3 173.603 119.412C173.498 119.564 173.419 119.732 173.369 119.909V121.008C173.368 121.049 173.359 121.09 173.343 121.128C173.327 121.165 173.303 121.2 173.274 121.228C173.244 121.257 173.209 121.279 173.171 121.295C173.133 121.31 173.092 121.317 173.051 121.316C172.969 121.316 172.89 121.284 172.833 121.226C172.775 121.168 172.742 121.09 172.742 121.008V118.725C172.742 118.685 172.75 118.645 172.766 118.608C172.781 118.571 172.804 118.537 172.833 118.509C172.862 118.481 172.896 118.459 172.933 118.444C172.97 118.429 173.01 118.421 173.051 118.422C173.133 118.421 173.212 118.452 173.272 118.508C173.331 118.565 173.366 118.643 173.369 118.725V118.765C173.405 118.723 173.445 118.685 173.488 118.651C173.703 118.501 173.958 118.422 174.219 118.422C174.299 118.421 174.376 118.451 174.434 118.505C174.491 118.56 174.525 118.636 174.528 118.715Z" fill="#263238"/>
<path d="M175.646 117.25C175.731 117.25 175.813 117.283 175.873 117.343C175.934 117.402 175.968 117.483 175.97 117.568V120.99C175.96 121.068 175.922 121.14 175.863 121.192C175.804 121.245 175.728 121.273 175.649 121.273C175.57 121.273 175.494 121.245 175.435 121.192C175.376 121.14 175.338 121.068 175.328 120.99V117.568C175.328 117.527 175.336 117.485 175.352 117.446C175.368 117.408 175.392 117.373 175.421 117.343C175.451 117.314 175.486 117.29 175.525 117.274C175.563 117.258 175.605 117.25 175.646 117.25Z" fill="#263238"/>
<path d="M177.338 117.688C177.338 117.771 177.305 117.851 177.246 117.911C177.188 117.971 177.108 118.005 177.024 118.006C176.941 118.005 176.861 117.971 176.802 117.911C176.744 117.851 176.711 117.771 176.711 117.688V117.563C176.711 117.522 176.719 117.481 176.735 117.443C176.751 117.405 176.774 117.371 176.803 117.342C176.832 117.313 176.866 117.29 176.904 117.274C176.942 117.258 176.983 117.25 177.024 117.25C177.065 117.25 177.106 117.258 177.144 117.274C177.182 117.29 177.217 117.313 177.246 117.342C177.275 117.371 177.298 117.405 177.314 117.443C177.33 117.481 177.338 117.522 177.338 117.563V117.688ZM177.338 118.732V120.995C177.338 121.078 177.305 121.158 177.246 121.217C177.187 121.275 177.107 121.308 177.024 121.308C176.941 121.308 176.861 121.275 176.803 121.217C176.744 121.158 176.711 121.078 176.711 120.995V118.732C176.711 118.691 176.719 118.65 176.735 118.612C176.751 118.574 176.774 118.54 176.803 118.511C176.832 118.481 176.866 118.458 176.904 118.443C176.942 118.427 176.983 118.419 177.024 118.419C177.065 118.419 177.106 118.427 177.144 118.443C177.182 118.458 177.217 118.481 177.246 118.511C177.275 118.54 177.298 118.574 177.314 118.612C177.33 118.65 177.338 118.691 177.338 118.732Z" fill="#263238"/>
<path d="M178.149 119.854C178.146 119.475 178.293 119.111 178.557 118.84C178.822 118.569 179.183 118.413 179.561 118.406C179.924 118.402 180.273 118.541 180.535 118.792C180.796 119.043 180.948 119.387 180.959 119.749V119.779C180.961 119.797 180.961 119.816 180.959 119.834C180.947 119.903 180.908 119.965 180.852 120.008C180.796 120.05 180.726 120.07 180.655 120.063H178.83C178.859 120.207 178.928 120.339 179.029 120.445C179.177 120.595 179.372 120.688 179.581 120.709C179.794 120.727 180.006 120.677 180.188 120.565C180.247 120.511 180.324 120.482 180.404 120.482C180.484 120.482 180.561 120.511 180.621 120.565C180.646 120.589 180.666 120.619 180.68 120.651C180.693 120.684 180.7 120.719 180.7 120.754C180.7 120.789 180.693 120.824 180.68 120.856C180.666 120.889 180.646 120.918 180.621 120.943C180.336 121.199 179.964 121.336 179.581 121.326C179.39 121.325 179.201 121.285 179.025 121.21C178.849 121.135 178.69 121.026 178.557 120.889C178.424 120.752 178.319 120.59 178.249 120.412C178.179 120.235 178.145 120.045 178.149 119.854ZM178.78 119.57H180.422C180.355 119.394 180.237 119.243 180.084 119.134C179.931 119.025 179.749 118.964 179.561 118.958C179.382 118.96 179.208 119.021 179.067 119.132C178.926 119.243 178.825 119.397 178.78 119.57Z" fill="#263238"/>
<path d="M163.633 89.0559C163.639 88.7094 163.782 88.3792 164.029 88.1365C164.276 87.8937 164.609 87.7578 164.956 87.7578C165.256 87.7571 165.548 87.8549 165.786 88.0363C165.827 88.0712 165.854 88.1203 165.86 88.1737C165.867 88.2272 165.853 88.2812 165.821 88.3248C165.788 88.3677 165.739 88.3958 165.685 88.4032C165.631 88.4107 165.576 88.3968 165.533 88.3646C165.369 88.2342 165.165 88.1655 164.956 88.1706C164.714 88.1711 164.481 88.2636 164.304 88.4292C164.221 88.5108 164.154 88.6082 164.109 88.7159C164.063 88.8235 164.04 88.9391 164.04 89.0559C164.04 89.1727 164.063 89.2883 164.109 89.3959C164.154 89.5036 164.221 89.601 164.304 89.6826C164.481 89.8483 164.714 89.9407 164.956 89.9412C165.166 89.9449 165.37 89.8745 165.533 89.7422C165.578 89.7134 165.631 89.7015 165.684 89.7088C165.737 89.7161 165.786 89.7421 165.821 89.782C165.853 89.8257 165.867 89.8796 165.86 89.9331C165.854 89.9866 165.827 90.0356 165.786 90.0705C165.548 90.2519 165.256 90.3498 164.956 90.349C164.61 90.3504 164.277 90.2155 164.029 89.9736C163.782 89.7316 163.639 89.402 163.633 89.0559Z" fill="#C7C7C7"/>
<path d="M168.009 89.4755V90.1817C168.009 90.2319 167.989 90.2799 167.954 90.3154C167.919 90.3508 167.871 90.3707 167.82 90.3707C167.776 90.3705 167.733 90.3551 167.699 90.3271C167.664 90.299 167.64 90.26 167.631 90.2166C167.487 90.3216 167.312 90.3758 167.134 90.3707C167.02 90.3717 166.907 90.3493 166.801 90.3048C166.696 90.2603 166.601 90.1948 166.522 90.1121C166.361 89.9397 166.272 89.7118 166.274 89.4755C166.271 89.359 166.292 89.2432 166.335 89.1348C166.377 89.0263 166.441 88.9275 166.522 88.8439C166.599 88.7573 166.693 88.6881 166.799 88.6409C166.904 88.5938 167.018 88.5697 167.134 88.5703C167.312 88.5696 167.487 88.6253 167.631 88.7295C167.64 88.6855 167.664 88.6459 167.698 88.617C167.732 88.5881 167.776 88.5717 167.82 88.5703C167.871 88.5716 167.919 88.5926 167.954 88.6289C167.99 88.6651 168.009 88.7137 168.009 88.7643V89.4755ZM167.626 89.4755C167.628 89.3383 167.578 89.2054 167.487 89.1025C167.444 89.0569 167.392 89.0206 167.334 88.9958C167.276 88.9709 167.214 88.9581 167.151 88.9581C167.089 88.9581 167.026 88.9709 166.969 88.9958C166.911 89.0206 166.859 89.0569 166.816 89.1025C166.729 89.2076 166.682 89.3394 166.682 89.4755C166.682 89.6116 166.729 89.7435 166.816 89.8485C166.907 89.9324 167.027 89.9789 167.151 89.9789C167.276 89.9789 167.395 89.9324 167.487 89.8485C167.578 89.7456 167.628 89.6128 167.626 89.4755Z" fill="#C7C7C7"/>
<path d="M168.988 87.8516C169.041 87.8528 169.09 87.8742 169.128 87.9112C169.165 87.9483 169.186 87.9981 169.187 88.0505V90.1792C169.187 90.2319 169.166 90.2825 169.129 90.3198C169.092 90.3571 169.041 90.3781 168.988 90.3781C168.935 90.3781 168.885 90.3571 168.848 90.3198C168.81 90.2825 168.789 90.2319 168.789 90.1792V88.0654C168.788 88.0382 168.792 88.0111 168.801 87.9855C168.811 87.9599 168.825 87.9365 168.844 87.9165C168.862 87.8966 168.885 87.8806 168.909 87.8694C168.934 87.8583 168.961 87.8522 168.988 87.8516Z" fill="#C7C7C7"/>
<path d="M169.879 87.8516C169.932 87.8515 169.983 87.8723 170.021 87.9095C170.059 87.9467 170.081 87.9973 170.083 88.0505V90.1792C170.075 90.2272 170.051 90.2709 170.014 90.3024C169.977 90.334 169.93 90.3513 169.881 90.3513C169.833 90.3513 169.786 90.334 169.749 90.3024C169.712 90.2709 169.687 90.2272 169.68 90.1792V88.0654C169.679 88.0382 169.683 88.0111 169.692 87.9855C169.701 87.9599 169.716 87.9365 169.734 87.9165C169.753 87.8966 169.775 87.8806 169.8 87.8694C169.825 87.8583 169.852 87.8522 169.879 87.8516Z" fill="#C7C7C7"/>
<path d="M170.95 88.1181C170.951 88.1444 170.946 88.1706 170.936 88.195C170.927 88.2194 170.912 88.2416 170.893 88.2603C170.875 88.2789 170.853 88.2935 170.828 88.3033C170.804 88.313 170.777 88.3177 170.751 88.317C170.699 88.3157 170.65 88.2942 170.614 88.257C170.577 88.2198 170.557 88.17 170.557 88.1181V88.0584C170.557 88.0065 170.577 87.9566 170.614 87.9194C170.65 87.8823 170.699 87.8607 170.751 87.8594C170.777 87.8588 170.804 87.8634 170.828 87.8732C170.853 87.8829 170.875 87.8976 170.893 87.9162C170.912 87.9348 170.927 87.957 170.936 87.9814C170.946 88.0059 170.951 88.0321 170.95 88.0584V88.1181ZM170.95 88.7696V90.1721C170.943 90.2189 170.919 90.2614 170.883 90.2921C170.847 90.3228 170.801 90.3397 170.754 90.3397C170.706 90.3397 170.661 90.3228 170.625 90.2921C170.589 90.2614 170.565 90.2189 170.557 90.1721V88.7696C170.553 88.7412 170.554 88.7121 170.562 88.6844C170.57 88.6567 170.584 88.631 170.602 88.6091C170.621 88.5872 170.644 88.5697 170.67 88.5576C170.696 88.5455 170.725 88.5393 170.754 88.5393C170.782 88.5393 170.811 88.5455 170.837 88.5576C170.863 88.5697 170.886 88.5872 170.905 88.6091C170.924 88.631 170.937 88.6567 170.945 88.6844C170.953 88.7121 170.955 88.7412 170.95 88.7696Z" fill="#C7C7C7"/>
<path d="M173.067 89.3213V90.1817C173.067 90.2319 173.047 90.2799 173.012 90.3154C172.977 90.3508 172.928 90.3707 172.878 90.3707C172.829 90.3695 172.781 90.3491 172.746 90.314C172.711 90.2788 172.691 90.2315 172.689 90.1817V89.3213C172.689 89.273 172.679 89.2253 172.659 89.1808C172.64 89.1364 172.613 89.0962 172.578 89.0625C172.543 89.0288 172.502 89.0022 172.458 88.9844C172.413 88.9665 172.365 88.9576 172.316 88.9582C172.268 88.9576 172.221 88.9665 172.177 88.9845C172.132 89.0025 172.092 89.0292 172.058 89.0631C172.024 89.0969 171.998 89.1372 171.98 89.1816C171.962 89.2259 171.953 89.2734 171.953 89.3213V90.1817C171.955 90.1932 171.955 90.205 171.953 90.2165C171.943 90.2604 171.918 90.2995 171.883 90.3275C171.848 90.3555 171.804 90.3708 171.759 90.3707C171.709 90.3707 171.661 90.3508 171.626 90.3154C171.59 90.2799 171.57 90.2319 171.57 90.1817V88.7643C171.57 88.7137 171.59 88.6651 171.625 88.6289C171.661 88.5926 171.709 88.5716 171.759 88.5703C171.797 88.5705 171.834 88.5814 171.865 88.6016C171.897 88.6219 171.922 88.6507 171.938 88.6847C172.052 88.6105 172.185 88.5708 172.321 88.5703C172.519 88.5729 172.708 88.653 172.848 88.7934C172.987 88.9339 173.066 89.1234 173.067 89.3213Z" fill="#C7C7C7"/>
<path d="M175.387 89.4856V90.1521C175.386 90.3812 175.294 90.6006 175.132 90.7626C174.97 90.9246 174.751 91.0162 174.522 91.0175C174.39 91.0191 174.26 90.9884 174.144 90.928C174.098 90.9054 174.062 90.8656 174.046 90.8171C174.029 90.7687 174.032 90.7155 174.054 90.6693C174.065 90.6459 174.081 90.6249 174.1 90.6076C174.12 90.5904 174.142 90.5772 174.167 90.5688C174.192 90.5605 174.218 90.5571 174.243 90.559C174.269 90.5609 174.295 90.568 174.318 90.5798C174.381 90.612 174.451 90.629 174.522 90.6296C174.632 90.6267 174.739 90.587 174.825 90.5167C174.91 90.4465 174.97 90.3497 174.994 90.2416C174.855 90.3359 174.69 90.3862 174.522 90.3858C174.406 90.3855 174.292 90.3611 174.187 90.3139C174.081 90.2668 173.987 90.1981 173.91 90.1123C173.747 89.9425 173.656 89.7161 173.656 89.4807C173.657 89.2426 173.748 89.0136 173.91 88.8391C173.988 88.7549 174.083 88.6876 174.188 88.6414C174.293 88.5952 174.407 88.5711 174.522 88.5705C174.7 88.5666 174.874 88.6207 175.019 88.7247C175.027 88.6808 175.051 88.6413 175.085 88.613C175.12 88.5848 175.163 88.5698 175.208 88.5705C175.259 88.5705 175.309 88.591 175.345 88.6273C175.382 88.6637 175.402 88.713 175.402 88.7645V89.4807L175.387 89.4856ZM174.999 89.4856C175.001 89.3507 174.953 89.2197 174.865 89.1176C174.822 89.0693 174.769 89.0306 174.71 89.004C174.65 88.9775 174.586 88.9636 174.522 88.9634C174.458 88.9635 174.396 88.9773 174.338 89.0039C174.281 89.0305 174.229 89.0693 174.188 89.1176C174.095 89.2175 174.044 89.3491 174.044 89.4856C174.042 89.5536 174.053 89.6213 174.078 89.6846C174.103 89.7479 174.14 89.8055 174.188 89.8537C174.23 89.9013 174.281 89.9394 174.339 89.9652C174.396 89.9909 174.459 90.0038 174.522 90.0029C174.586 90.0036 174.65 89.9907 174.709 89.965C174.768 89.9393 174.821 89.9013 174.865 89.8537C174.955 89.751 175.004 89.6176 174.999 89.4807V89.4856Z" fill="#C7C7C7"/>
<path d="M176.373 89.8594C176.445 89.8594 176.513 89.8875 176.565 89.9377C176.616 89.988 176.645 90.0563 176.647 90.1279C176.646 90.1632 176.638 90.198 176.624 90.2304C176.61 90.2627 176.59 90.2919 176.564 90.3164C176.539 90.3409 176.509 90.3601 176.476 90.373C176.443 90.3859 176.408 90.3922 176.373 90.3915C176.303 90.3915 176.236 90.3638 176.187 90.3143C176.137 90.2649 176.109 90.1979 176.109 90.1279C176.109 90.0576 176.137 89.99 176.186 89.9398C176.236 89.8895 176.303 89.8607 176.373 89.8594Z" fill="#C7C7C7"/>
<path d="M177.206 89.8594C177.241 89.8594 177.276 89.8663 177.309 89.8798C177.341 89.8933 177.371 89.9131 177.396 89.938C177.421 89.963 177.441 89.9926 177.454 90.0252C177.468 90.0578 177.475 90.0927 177.475 90.1279C177.475 90.1992 177.446 90.2675 177.396 90.3179C177.346 90.3682 177.277 90.3965 177.206 90.3965C177.135 90.3965 177.067 90.3682 177.016 90.3179C176.966 90.2675 176.938 90.1992 176.938 90.1279C176.938 90.0567 176.966 89.9884 177.016 89.938C177.067 89.8877 177.135 89.8594 177.206 89.8594Z" fill="#C7C7C7"/>
<path d="M178.029 89.8594C178.101 89.8594 178.17 89.8875 178.221 89.9377C178.272 89.988 178.301 90.0563 178.303 90.1279C178.302 90.1632 178.295 90.198 178.28 90.2304C178.266 90.2627 178.246 90.2919 178.221 90.3164C178.195 90.3409 178.165 90.3601 178.132 90.373C178.1 90.3859 178.065 90.3922 178.029 90.3915C177.959 90.3915 177.892 90.3638 177.843 90.3143C177.793 90.2649 177.766 90.1979 177.766 90.1279C177.766 90.0576 177.793 89.99 177.843 89.9398C177.892 89.8895 177.959 89.8607 178.029 89.8594Z" fill="#C7C7C7"/>
<path d="M176.393 112.565C175.457 113.146 174.435 113.575 173.364 113.833C170.796 114.46 168.086 114.096 165.775 112.814C163.464 111.531 161.721 109.425 160.894 106.914C160.067 104.403 160.218 101.673 161.315 99.2684C162.412 96.8636 164.376 94.961 166.814 93.9401C169.252 92.9192 171.986 92.855 174.469 93.7605C176.953 94.6659 179.003 96.4744 180.212 98.825C181.421 101.176 181.699 103.896 180.992 106.442C180.284 108.989 178.641 111.175 176.393 112.565Z" fill="#C7C7C7"/>
<path d="M174.068 102.432C174.068 103.065 173.88 103.683 173.529 104.209C173.177 104.735 172.678 105.145 172.094 105.387C171.509 105.629 170.866 105.692 170.246 105.569C169.626 105.445 169.056 105.141 168.609 104.694C168.161 104.246 167.857 103.677 167.733 103.056C167.61 102.436 167.673 101.793 167.915 101.209C168.157 100.624 168.567 100.125 169.093 99.7733C169.619 99.4219 170.237 99.2344 170.87 99.2344C171.29 99.2337 171.706 99.316 172.094 99.4765C172.483 99.637 172.836 99.8725 173.133 100.17C173.43 100.467 173.665 100.819 173.826 101.208C173.986 101.596 174.068 102.012 174.068 102.432Z" fill="white"/>
<path d="M176.393 111.247V112.565C175.457 113.147 174.435 113.575 173.364 113.833C172.011 114.166 170.605 114.225 169.229 114.007C167.853 113.788 166.535 113.296 165.352 112.56V111.247C165.352 109.783 165.933 108.379 166.969 107.344C168.004 106.308 169.408 105.727 170.872 105.727C172.336 105.727 173.741 106.308 174.776 107.344C175.811 108.379 176.393 109.783 176.393 111.247Z" fill="white"/>
<path d="M263.605 242.087C263.605 242.087 246.471 250.199 223.966 250.199C200.068 250.199 188.48 242.415 188.48 242.415C171.028 228.713 169.228 208.411 181.676 196.102C189.211 188.642 194.722 190.158 203.833 188.975H203.858C207.077 188.633 210.207 187.713 213.099 186.259C222.479 181.311 227.771 169.638 235.664 159.815C236.659 158.582 237.688 157.388 238.752 156.234C245.218 149.301 258.149 149.077 264.918 158.82C282.087 183.554 281.604 220.402 263.605 242.087Z" fill="#00AEF0"/>
<g opacity="0.1">
<path d="M263.605 242.087C263.605 242.087 246.471 250.199 223.966 250.199C200.068 250.199 188.48 242.415 188.48 242.415C171.028 228.713 169.228 208.411 181.676 196.102C189.211 188.642 194.722 190.158 203.833 188.975H203.858C207.077 188.633 210.207 187.713 213.099 186.259C222.479 181.311 227.771 169.638 235.664 159.815C236.659 158.582 237.688 157.388 238.752 156.234C245.218 149.301 258.149 149.077 264.918 158.82C282.087 183.554 281.604 220.402 263.605 242.087Z" fill="black"/>
</g>
<path opacity="0.1" d="M215.633 222.126C238.511 227.756 259.485 214.904 261.365 185.446C262.742 163.876 247.399 153.69 235.642 159.798C227.769 169.63 222.482 181.293 213.097 186.242C210.205 187.696 207.074 188.616 203.856 188.957H203.826L202.856 189.077C192.417 195.612 197.868 217.754 215.633 222.126Z" fill="black"/>
<path d="M194.855 260.944C195.979 260.76 223.348 246.321 224.044 245.113C224.308 244.655 222.438 240.547 220.035 235.663C219.538 234.604 218.976 233.515 218.419 232.411C214.818 225.244 210.825 217.719 210.825 217.719L192.492 227.323L200.589 241.746L202.365 244.914C202.365 244.914 194.362 255.12 193.755 256.527C193.149 257.935 193.755 261.142 194.855 260.944Z" fill="#F7A9A0"/>
<path d="M194.853 260.943C195.977 260.759 223.341 246.326 224.038 245.112C224.276 244.71 222.849 241.467 220.864 237.344C219.755 238.881 203.666 251.538 198.484 252.573C196.36 252.995 199.841 248.176 199.976 247.972C197.564 251.105 194.137 255.616 193.739 256.522C193.122 257.934 193.724 261.142 194.853 260.943Z" fill="#263238"/>
<path d="M199.664 248.367C199.664 248.367 202.086 246.423 206.468 248.437Z" fill="#263238"/>
<path d="M181.739 204.665C183.027 213.06 199.096 241.638 199.096 241.638L218.687 231.014L206.82 210.469C206.82 210.469 232.772 214.826 242.918 211.11C253.745 207.132 252.795 194.345 252.795 194.345L227.077 190.062C226.799 190.781 226.277 191.379 225.602 191.752C224.928 192.124 224.144 192.248 223.387 192.102C213.405 190.853 199.733 190.61 194.451 190.918C187.637 191.341 180.56 196.986 181.739 204.665Z" fill="#37474F"/>
<path d="M201.214 203.226C201.79 203.845 202.325 204.501 202.816 205.19C203.368 205.882 203.925 206.563 204.472 207.254C204.372 207.05 204.278 206.846 204.173 206.647C203.82 205.956 203.537 205.24 203.124 204.583C203.099 204.544 203.164 204.504 203.189 204.544C203.611 205.195 204.099 205.817 204.462 206.503C204.636 206.827 204.8 207.155 204.959 207.498C205.044 207.677 205.128 207.861 205.203 208.05C205.244 208.137 205.279 208.227 205.307 208.319C205.556 208.637 205.805 208.96 206.033 209.283C206.556 210.015 207.028 210.775 207.555 211.502C207.58 211.541 207.521 211.576 207.491 211.541C206.959 210.865 206.357 210.238 205.815 209.552C205.273 208.866 204.735 208.164 204.213 207.453C203.691 206.742 203.218 206.066 202.721 205.374C202.166 204.693 201.654 203.977 201.189 203.231C201.179 203.236 201.214 203.206 201.214 203.226Z" fill="#263238"/>
<path d="M198.09 237.11C198.587 236.756 199.149 236.433 199.686 236.115C200.223 235.797 200.74 235.468 201.273 235.15C202.362 234.498 203.461 233.867 204.56 233.23C206.763 231.957 208.991 230.714 211.21 229.465C212.458 228.769 213.696 228.093 214.965 227.406C214.99 227.406 215.019 227.406 214.994 227.446C212.861 228.769 210.717 230.082 208.554 231.365C206.39 232.648 204.157 233.936 201.924 235.17C201.302 235.513 200.676 235.846 200.049 236.165C199.422 236.483 198.781 236.851 198.124 237.159C198.095 237.174 198.06 237.129 198.09 237.11Z" fill="#263238"/>
<path d="M249.204 195C249.299 198.397 248.097 201.703 245.842 204.246C244.705 205.479 243.34 206.481 241.823 207.195C240.296 207.885 238.67 208.328 237.004 208.508C233.667 208.918 230.302 209.059 226.942 208.931C223.58 208.831 220.218 208.573 216.881 208.16C213.539 207.778 210.225 207.185 206.959 206.384C206.148 206.175 205.337 205.947 204.542 205.683C204.144 205.549 203.751 205.41 203.363 205.26C202.97 205.079 202.56 204.938 202.139 204.838C201.911 204.79 201.676 204.79 201.448 204.838C201.321 204.867 201.203 204.927 201.105 205.014C201.008 205.101 200.934 205.212 200.891 205.335C200.851 205.45 200.833 205.571 200.836 205.693C200.836 205.815 200.858 205.937 200.901 206.051C200.971 206.265 201.06 206.459 201.145 206.653C201.503 207.424 201.896 208.145 202.294 208.916C205.531 214.834 209.018 220.604 212.514 226.363C210.813 223.458 209.129 220.541 207.461 217.61C205.785 214.685 204.114 211.761 202.542 208.782C202.154 208.041 201.762 207.29 201.423 206.529C201.343 206.337 201.273 206.141 201.214 205.942C201.182 205.861 201.163 205.775 201.16 205.688C201.161 205.598 201.176 205.51 201.204 205.424C201.294 205.086 201.702 205.046 202.105 205.121C202.504 205.216 202.893 205.353 203.264 205.529C203.661 205.683 204.059 205.827 204.462 205.962C205.263 206.23 206.079 206.459 206.894 206.678C210.168 207.495 213.49 208.101 216.841 208.493C220.193 208.896 223.565 209.145 226.937 209.234C230.316 209.352 233.698 209.186 237.049 208.737C238.737 208.535 240.384 208.068 241.928 207.354C243.462 206.615 244.838 205.583 245.976 204.315C247.086 203.049 247.932 201.572 248.463 199.974C249.012 198.375 249.263 196.689 249.204 195Z" fill="#263238"/>
<path d="M219.45 263.967C220.514 263.554 244.272 243.735 244.7 242.407C244.864 241.91 242.184 238.274 238.811 233.982C238.085 233.052 237.319 232.102 236.554 231.137C231.55 224.875 226.079 218.375 226.079 218.375L210.164 231.59L221.106 244.023L223.503 246.754C223.503 246.754 217.798 258.412 217.485 259.919C217.172 261.426 218.39 264.385 219.45 263.967Z" fill="#F7A9A0"/>
<path d="M219.456 263.967C220.52 263.554 244.279 243.735 244.706 242.407C244.851 241.964 242.782 239.089 239.982 235.469C239.211 237.205 226.11 252.931 221.256 255.025C219.267 255.88 221.669 250.439 221.754 250.21C220.053 253.771 217.636 258.904 217.437 259.869C217.133 261.381 218.392 264.385 219.456 263.967Z" fill="#263238"/>
<path d="M221.539 250.656C221.539 250.656 223.504 248.249 228.209 249.308Z" fill="#263238"/>
<path d="M193.261 207.15C194.544 215.545 215.801 239.408 218.258 242.148L218.815 242.77L235.7 229.222L235.496 228.973L223.833 214.854C223.833 214.854 242.469 222.15 251.128 210.825C254.575 206.319 252.799 194.343 252.799 194.343L232.139 191.016C232.139 191.016 231.617 194.552 228.722 194.194C218.746 192.945 210.907 191.836 205.625 192.16C198.807 192.557 192.078 199.471 193.261 207.15Z" fill="#37474F"/>
<path d="M228.153 194.098C221.742 193.182 215.306 192.347 208.826 192.053C208.015 192.024 207.2 192.009 206.389 192.019C205.569 192.019 204.751 192.084 203.942 192.213C203.537 192.293 203.139 192.408 202.753 192.556C202.365 192.69 201.987 192.839 201.614 193.008C200.865 193.336 200.142 193.72 199.451 194.157C198.056 195.023 196.812 196.112 195.77 197.38C194.193 199.298 193.231 201.646 193.01 204.119C192.98 204.323 192.975 204.527 192.965 204.731C192.955 204.935 192.965 205.144 192.965 205.353C192.979 205.766 193.021 206.178 193.09 206.586C193.427 208.188 193.967 209.741 194.696 211.206C196.136 214.12 197.809 216.913 199.699 219.557C201.555 222.218 203.524 224.794 205.553 227.321C207.583 229.847 209.696 232.294 211.83 234.741C209.741 232.254 207.682 229.768 205.693 227.211C203.703 224.655 201.749 222.069 199.928 219.398C198.075 216.75 196.425 213.965 194.995 211.067C194.284 209.626 193.759 208.1 193.433 206.526C193.366 206.137 193.326 205.743 193.313 205.348C193.313 204.955 193.338 204.547 193.373 204.154C193.451 203.359 193.604 202.573 193.831 201.807C194.287 200.271 195.043 198.841 196.054 197.599C197.065 196.352 198.277 195.283 199.64 194.436C200.316 194.004 201.024 193.625 201.759 193.302C202.122 193.138 202.495 192.989 202.873 192.854C203.244 192.711 203.627 192.598 204.016 192.516C204.808 192.392 205.608 192.325 206.409 192.317C207.214 192.317 208.02 192.317 208.831 192.317C212.064 192.412 215.296 192.69 218.514 193.003C221.732 193.317 224.94 193.69 228.153 194.098Z" fill="#263238"/>
<path d="M217.522 206.531C218.096 207.151 218.629 207.807 219.119 208.496C219.671 209.182 220.228 209.864 220.775 210.555C220.675 210.351 220.581 210.147 220.476 209.948C220.128 209.257 219.84 208.541 219.432 207.884C219.432 207.844 219.467 207.804 219.492 207.844C219.914 208.496 220.402 209.117 220.77 209.804C220.939 210.132 221.103 210.46 221.267 210.799C221.347 210.983 221.436 211.162 221.511 211.351C221.546 211.435 221.585 211.525 221.615 211.619C221.859 211.937 222.113 212.261 222.336 212.614C222.864 213.34 223.331 214.106 223.858 214.827C223.888 214.867 223.823 214.907 223.794 214.867C223.261 214.19 222.66 213.564 222.118 212.877C221.575 212.191 221.038 211.49 220.516 210.784C219.994 210.077 219.521 209.391 219.024 208.7C218.47 208.019 217.959 207.305 217.492 206.561C217.492 206.557 217.493 206.553 217.494 206.55C217.496 206.546 217.498 206.543 217.501 206.54C217.504 206.537 217.507 206.535 217.511 206.534C217.514 206.532 217.518 206.531 217.522 206.531Z" fill="#263238"/>
<path d="M216.914 238.901C217.361 238.468 217.849 238.061 218.321 237.648L219.724 236.429C220.688 235.604 221.668 234.798 222.643 233.987C224.603 232.361 226.582 230.759 228.566 229.158C229.676 228.258 230.805 227.382 231.919 226.492C231.919 226.492 231.973 226.492 231.953 226.527C230.073 228.185 228.177 229.843 226.264 231.501C224.351 233.158 222.386 234.781 220.37 236.37C219.813 236.807 219.256 237.245 218.694 237.673C218.132 238.1 217.555 238.568 216.958 238.971C216.933 238.966 216.889 238.926 216.914 238.901Z" fill="#263238"/>
<path d="M249.919 195.359C250.211 197.192 250.258 199.055 250.058 200.9C249.884 202.743 249.364 204.536 248.527 206.187C247.672 207.824 246.372 209.186 244.777 210.116C243.157 211.003 241.354 211.503 239.51 211.578C237.665 211.69 235.815 211.62 233.984 211.369C232.144 211.135 230.318 210.803 228.513 210.374C224.907 209.523 221.364 208.423 217.91 207.082L217.78 207.027L217.716 207.142C217.474 207.576 217.317 208.052 217.253 208.544C217.176 209.028 217.176 209.522 217.253 210.006C217.338 210.486 217.486 210.952 217.691 211.394C217.92 211.817 218.177 212.224 218.462 212.612C219.571 214.154 220.774 215.597 221.983 217.089C223.192 218.581 224.42 219.983 225.663 221.406C226.907 222.828 228.15 224.246 229.423 225.653C228.19 224.221 226.971 222.773 225.758 221.326C224.544 219.879 223.341 218.422 222.147 216.954C220.953 215.487 219.775 214.01 218.69 212.478C218.421 212.101 218.178 211.706 217.964 211.294C217.775 210.877 217.638 210.438 217.557 209.986C217.397 209.085 217.541 208.157 217.964 207.346L217.77 207.405C221.233 208.77 224.788 209.889 228.409 210.752C230.214 211.18 232.04 211.512 233.88 211.747C235.733 211.99 237.605 212.052 239.47 211.931C241.355 211.849 243.194 211.32 244.836 210.389C246.458 209.417 247.773 208.007 248.631 206.321C249.464 204.645 249.96 202.822 250.093 200.955C250.285 199.09 250.227 197.208 249.919 195.359Z" fill="#263238"/>
<path d="M241.032 194.686C241.176 195.681 241.38 196.646 241.609 197.616C241.763 198.499 242.089 199.344 242.569 200.102C243.087 200.772 243.753 201.313 244.514 201.684C244.947 201.915 245.394 202.119 245.852 202.296C246.324 202.452 246.785 202.643 247.229 202.868C247.247 202.879 247.261 202.895 247.269 202.914C247.277 202.934 247.279 202.955 247.274 202.976C247.269 202.996 247.258 203.015 247.242 203.028C247.225 203.042 247.205 203.05 247.184 203.052C246.657 203.018 246.136 202.92 245.633 202.758C245.143 202.629 244.664 202.463 244.2 202.261C243.358 201.871 242.629 201.274 242.082 200.525C241.571 199.708 241.25 198.787 241.142 197.829C240.958 196.799 240.878 195.753 240.903 194.706C240.903 194.602 241.002 194.602 241.032 194.686Z" fill="#263238"/>
<path d="M239.509 142.013C239.509 142.013 243.94 140.024 247.516 142.675C251.092 145.326 252.41 151.259 251.366 156.054C250.321 160.848 254.011 164.374 254.141 168.015C254.27 171.656 251.768 173.123 250.818 174.948C249.729 177.037 252.738 185.024 243.328 186.044C231.556 187.317 227.712 179.827 229.378 174.033C230.193 171.193 231.989 169.278 232.153 166.941C232.317 164.603 230.815 162.604 231.919 159.714C233.023 156.825 234.132 157.322 234.988 152.711C235.843 148.101 235.331 142.466 239.509 142.013Z" fill="#263238"/>
<path d="M246.716 142.504C249.041 144.293 250.762 146.75 251.649 149.546C252.098 150.934 252.313 152.386 252.286 153.843C252.246 155.748 251.813 157.499 252.366 159.394C253.251 162.433 255.31 165.074 254.932 168.346C254.753 169.87 254.148 171.313 253.186 172.509C252.062 173.907 250.54 174.961 249.57 176.488C249.531 176.552 249.431 176.488 249.471 176.423C250.287 175.07 251.505 174.086 252.555 172.902C253.81 171.519 254.562 169.752 254.688 167.889C254.857 164.76 252.828 162.179 252.022 159.255C251.718 157.97 251.67 156.638 251.883 155.335C252.078 153.755 252.006 152.152 251.669 150.596C250.908 147.453 249.166 144.634 246.696 142.549C246.696 142.549 246.691 142.484 246.716 142.504Z" fill="#263238"/>
<path d="M229.482 173.203C229.89 171.83 230.726 170.627 231.128 169.264C231.626 167.618 231.332 165.917 231.128 164.251C230.865 161.873 231.099 159.665 232.317 157.541C233.103 156.169 234.028 154.905 234.645 153.443C235.318 151.857 235.757 150.182 235.948 148.47C235.948 148.435 236.007 148.44 236.007 148.47C235.848 150.955 235.115 153.369 233.864 155.522C233.128 156.785 232.237 157.959 231.755 159.352C231.26 160.996 231.13 162.729 231.372 164.43C231.524 165.583 231.572 166.749 231.516 167.911C231.353 169.084 230.981 170.217 230.417 171.258C229.072 174.011 228.828 177.174 229.736 180.101C229.736 180.151 229.661 180.181 229.641 180.126C228.876 177.89 228.82 175.472 229.482 173.203Z" fill="#263238"/>
<path d="M254.475 167.64C254.585 165.064 252.939 163.164 252.038 160.856C251.357 159.106 250.944 157.265 251.372 155.435C251.372 155.405 251.432 155.435 251.427 155.435C251.069 158.106 251.994 160.632 253.292 163C254.157 164.576 254.853 166.078 254.714 167.879C254.575 169.679 253.754 171.062 252.63 172.44C251.83 173.434 251.049 174.329 250.641 175.533C250.299 176.745 250.132 177.999 250.144 179.258C250.144 179.323 250.039 179.313 250.039 179.258C250.039 177.319 250.153 175.454 251.263 173.787C252.645 171.699 254.366 170.236 254.475 167.64Z" fill="#263238"/>
<path d="M229.188 171.339C229.675 170.501 230.238 169.708 230.869 168.972C231.973 167.609 232.232 166.45 232.048 164.709C232.05 164.703 232.055 164.697 232.06 164.693C232.066 164.69 232.073 164.688 232.08 164.688C232.087 164.688 232.094 164.69 232.099 164.693C232.105 164.697 232.11 164.703 232.112 164.709C232.465 166.162 232.48 167.345 231.535 168.574C230.217 170.295 228.939 171.851 228.521 174C227.775 177.81 229.655 181.575 232.998 183.813C233.047 183.842 232.998 183.912 232.948 183.882C231.572 183.105 230.409 182.001 229.561 180.668C228.713 179.335 228.205 177.813 228.084 176.238C227.992 174.534 228.374 172.839 229.188 171.339Z" fill="#263238"/>
<path d="M237.688 167.199C235.589 177.036 232.372 185.327 229.661 187.252C227.473 188.809 209.12 192.415 208.479 192.484C206.897 192.643 203.913 182.259 204.997 180.941C205.246 180.637 222.902 178.986 223.459 178.414C224.016 177.842 229.263 170.835 233.471 165.448C236.405 161.673 238.852 161.743 237.688 167.199Z" fill="#F7A9A0"/>
<path d="M211.633 191.309C210.122 192.046 208.566 192.686 206.973 193.224C205.7 193.592 201.999 194.552 201.467 193.194C201.094 192.264 203.198 191.443 204.67 190.831C205.451 190.508 206.406 189.693 206.162 189.195C205.764 188.32 203.765 189.195 202.447 189.961C199.906 191.453 196.519 194.099 194.962 192.806C194.38 192.309 195.061 191.433 196.056 190.563C194.44 191.558 192.714 192.408 192.037 191.891C191.865 191.758 191.75 191.564 191.715 191.349C191.679 191.134 191.727 190.913 191.848 190.732C191.645 190.827 191.417 190.859 191.195 190.825C190.972 190.79 190.765 190.691 190.6 190.538C190.073 189.986 190.332 189.175 190.908 188.345C190.806 188.337 190.706 188.304 190.62 188.248C190.533 188.193 190.461 188.117 190.411 188.026C189.297 186.33 194.887 181.456 196.802 180.999C200.647 180.179 204.586 179.891 208.51 180.143C210.773 181.924 211.633 191.304 211.633 191.309Z" fill="#F7A9A0"/>
<path d="M203.283 186.047C201.931 186.248 200.641 186.746 199.503 187.504C198.175 188.414 197.126 189.658 195.902 190.682C195.898 190.685 195.893 190.688 195.89 190.692C195.887 190.697 195.884 190.702 195.883 190.707C195.882 190.712 195.883 190.718 195.884 190.723C195.886 190.728 195.888 190.733 195.892 190.737C195.895 190.741 195.9 190.744 195.905 190.746C195.91 190.748 195.915 190.749 195.921 190.748C195.926 190.748 195.931 190.746 195.936 190.743C195.94 190.74 195.944 190.737 195.947 190.732C196.524 190.2 197.156 189.737 197.753 189.24C198.349 188.743 198.906 188.245 199.518 187.748C200.632 186.911 201.921 186.338 203.288 186.072C203.288 186.072 203.298 186.047 203.283 186.047Z" fill="#263238"/>
<path d="M202.213 183.609C200.697 183.967 199.222 184.479 197.811 185.136C196.294 185.907 195.111 187.165 193.947 188.374C193.244 189.107 192.559 189.849 191.893 190.602C191.868 190.632 191.893 190.687 191.937 190.652C193.121 189.404 194.34 188.165 195.598 187.011C196.756 185.911 198.12 185.051 199.612 184.48C200.467 184.156 201.342 183.898 202.218 183.639L202.213 183.609Z" fill="#263238"/>
<path d="M200.636 181.508C199.188 181.806 197.92 182.06 196.657 182.836C195.216 183.792 193.901 184.925 192.743 186.208C192.106 186.884 191.494 187.585 190.893 188.292C190.868 188.322 190.893 188.366 190.942 188.336C192.319 186.783 193.796 185.321 195.364 183.96C196.104 183.298 196.943 182.756 197.851 182.353C198.763 181.995 199.705 181.716 200.666 181.518C200.666 181.518 200.641 181.508 200.636 181.508Z" fill="#263238"/>
<path d="M208.219 179.792L211.7 192.967C211.7 192.967 226.084 190.053 230.062 187.198C234.041 184.343 237 171.755 238.02 166.309C239.04 160.863 235.354 162.554 233.101 165.364C230.848 168.174 223.458 177.798 223.209 178.017C222.96 178.236 208.219 179.792 208.219 179.792Z" fill="#DBDBDB"/>
<path d="M215.033 191.742C214.849 190.748 214.535 189.778 214.252 188.808C213.968 187.838 213.7 186.898 213.416 185.948C212.839 184.028 212.302 182.079 211.601 180.199C211.601 180.19 211.597 180.181 211.591 180.174C211.584 180.168 211.575 180.164 211.566 180.164C211.557 180.164 211.548 180.168 211.541 180.174C211.535 180.181 211.531 180.19 211.531 180.199C211.919 182.188 212.526 184.133 213.083 186.073C213.371 187.047 213.67 188.017 213.978 188.982C214.26 189.923 214.592 190.847 214.973 191.752C214.978 191.817 215.038 191.787 215.033 191.742Z" fill="#263238"/>
<path d="M238.023 166.302C236.978 171.773 233.999 184.346 230.065 187.191C228.076 188.618 223.515 190.06 219.422 191.145L236.267 162.845C237.625 162.378 238.62 163.134 238.023 166.302Z" fill="#C7C7C7"/>
<path d="M254.195 196.853L239.16 194.655L228.278 193.063L225.016 192.566L227.502 183.688L228.527 180.003C228.527 180.003 226.731 176.904 227.602 174.233C228.597 171.209 236.683 162.988 237.31 162.59C239.797 161.004 242.542 160.899 244.905 164.167C246.127 166.035 247.103 168.053 247.809 170.17C248.307 171.468 248.749 172.876 249.187 174.333C252.166 184.32 254.195 196.853 254.195 196.853Z" fill="#DBDBDB"/>
<path d="M239.373 183.062C238.448 182.668 237.502 182.326 236.538 182.037C236.041 181.898 235.569 181.784 235.076 181.684C234.838 181.634 234.604 181.59 234.365 181.55C234.126 181.51 233.838 181.495 233.579 181.445C233.554 181.445 233.539 181.485 233.579 181.49C233.818 181.54 234.077 181.634 234.295 181.704L235.022 181.903C235.519 182.042 235.981 182.181 236.469 182.311C237.439 182.574 238.399 182.843 239.358 183.141C239.403 183.146 239.418 183.062 239.373 183.062Z" fill="#263238"/>
<path d="M228.508 180.019C227.74 178.901 227.288 177.597 227.2 176.244C227.156 175.56 227.23 174.873 227.419 174.215C227.634 173.567 227.923 172.946 228.279 172.365C229.007 171.235 229.825 170.168 230.726 169.172C231.618 168.176 232.568 167.235 233.571 166.352C232.676 167.346 231.79 168.341 230.945 169.336C230.086 170.344 229.302 171.412 228.597 172.534C228.247 173.085 227.96 173.674 227.742 174.289C227.561 174.913 227.474 175.56 227.483 176.209C227.522 177.542 227.873 178.847 228.508 180.019Z" fill="#263238"/>
<path d="M232.817 166.594C232.571 167.14 232.252 167.651 231.867 168.111C231.99 167.838 232.132 167.574 232.29 167.32C232.446 167.064 232.623 166.822 232.817 166.594Z" fill="#263238"/>
<path d="M242.492 163.11C242.313 163.607 239.473 166.661 237.136 166.278C236.375 166.154 236.877 161.966 236.877 161.966L236.843 161.653L236.375 157.206L241.846 154.531L242.632 154.188C242.632 154.188 242.681 155.411 242.726 156.933C242.726 157.007 242.726 157.077 242.726 157.152C242.726 157.226 242.726 157.321 242.726 157.4C242.726 157.629 242.726 157.863 242.751 158.092C242.776 158.32 242.751 158.44 242.751 158.624C242.751 158.808 242.751 158.992 242.751 159.181C242.754 160.495 242.668 161.808 242.492 163.11Z" fill="#F7A9A0"/>
<path d="M242.737 156.931C242.162 158.103 241.338 159.135 240.322 159.954C239.307 160.774 238.125 161.362 236.858 161.676L236.391 157.23L241.861 154.554L242.647 154.211C242.647 154.211 242.692 155.41 242.737 156.931Z" fill="#263238"/>
<path d="M236.894 161.977L237.525 165.652L242.658 162.27L243.553 163.901C243.553 163.901 237.973 169.83 238.023 169.516L237.257 166.299L234.805 167.895L236.033 162.832L236.894 161.977Z" fill="white"/>
<path d="M235.275 165.363C235.509 164.532 235.723 163.691 235.996 162.876C235.996 162.846 236.056 162.841 236.056 162.876C236.056 163.721 235.131 166.889 234.972 167.66C235.071 167.591 237.22 166.278 237.235 166.308C237.439 166.835 238.006 169.182 238.035 169.391C238.916 168.446 242.596 164.781 243.586 163.92C243.616 163.895 243.655 163.92 243.631 163.96C242.82 164.975 238.02 169.834 238.02 169.809C237.694 168.69 237.427 167.554 237.22 166.407C236.403 167.036 235.544 167.608 234.648 168.118C234.808 167.189 235.017 166.269 235.275 165.363Z" fill="#263238"/>
<path d="M232.214 148.247C228.733 155.28 232.572 158.15 234.089 158.896C235.467 159.572 240.241 161.701 244.419 155.066C248.597 148.432 246.409 144.592 243.35 142.876C240.291 141.16 235.681 141.19 232.214 148.247Z" fill="#F7A9A0"/>
<path d="M233.809 147.497C233.983 147.552 234.157 147.577 234.336 147.617C234.518 147.678 234.716 147.678 234.898 147.617C234.953 147.588 234.997 147.543 235.023 147.487C235.049 147.431 235.056 147.368 235.042 147.308C234.997 147.193 234.922 147.092 234.825 147.015C234.728 146.938 234.613 146.888 234.49 146.871C234.249 146.798 233.99 146.819 233.764 146.93C233.705 146.954 233.656 146.996 233.623 147.05C233.589 147.104 233.574 147.167 233.579 147.23C233.584 147.293 233.609 147.353 233.65 147.401C233.692 147.449 233.747 147.483 233.809 147.497Z" fill="#263238"/>
<path d="M238.688 149.735C238.538 149.635 238.393 149.527 238.256 149.411C238.086 149.282 237.942 149.198 237.873 148.994C237.861 148.934 237.868 148.871 237.894 148.816C237.92 148.76 237.963 148.715 238.017 148.685C238.134 148.645 238.259 148.638 238.38 148.663C238.501 148.688 238.612 148.746 238.703 148.83C238.916 148.965 239.068 149.177 239.131 149.421C239.141 149.477 239.136 149.535 239.114 149.588C239.093 149.641 239.057 149.687 239.01 149.72C238.963 149.753 238.908 149.772 238.851 149.774C238.794 149.777 238.738 149.763 238.688 149.735Z" fill="#263238"/>
<path d="M236.748 150.969C236.748 150.969 236.773 151.014 236.748 151.033C236.494 151.501 236.285 152.083 236.643 152.456C236.643 152.456 236.643 152.491 236.643 152.481C236.146 152.147 236.435 151.377 236.748 150.969Z" fill="#263238"/>
<path d="M237.425 150.679C238.225 151.002 237.524 152.579 236.783 152.281C236.042 151.982 236.758 150.411 237.425 150.679Z" fill="#263238"/>
<path d="M237.693 150.907C237.792 151.057 237.857 151.275 238.011 151.365C238.165 151.454 238.414 151.365 238.613 151.266C238.613 151.266 238.638 151.266 238.613 151.295C238.484 151.599 238.23 151.857 237.887 151.758C237.544 151.658 237.484 151.305 237.544 150.972C237.569 150.907 237.653 150.848 237.693 150.907Z" fill="#263238"/>
<path d="M234.082 149.656C234.082 149.656 234.033 149.656 234.028 149.686C233.829 150.183 233.53 150.716 233.003 150.681C233.003 150.681 232.978 150.706 233.003 150.706C233.57 150.875 233.973 150.159 234.082 149.656Z" fill="#263238"/>
<path d="M233.868 148.957C233.107 148.554 232.376 150.106 233.063 150.479C233.749 150.852 234.535 149.295 233.868 148.957Z" fill="#263238"/>
<path d="M233.501 148.904C233.342 148.928 233.148 149.018 233.004 148.958C232.86 148.899 232.785 148.655 232.755 148.461C232.755 148.461 232.755 148.461 232.726 148.461C232.632 148.584 232.586 148.736 232.595 148.89C232.604 149.045 232.668 149.19 232.775 149.301C233.014 149.481 233.327 149.301 233.541 149.058C233.571 148.998 233.546 148.894 233.501 148.904Z" fill="#263238"/>
<path d="M233.796 152.311C233.796 152.311 233.363 152.987 233.204 153.305C233.204 153.335 233.268 153.39 233.378 153.45C233.646 153.639 233.961 153.75 234.288 153.772C234.615 153.794 234.942 153.726 235.233 153.574C235.241 153.57 235.248 153.562 235.252 153.554C235.255 153.545 235.256 153.535 235.253 153.526C235.25 153.517 235.243 153.509 235.235 153.505C235.227 153.5 235.218 153.498 235.208 153.499C234.635 153.598 234.045 153.507 233.527 153.241C233.527 153.136 234.308 152.107 234.258 152.077C233.981 151.977 233.692 151.915 233.398 151.893C234.263 150.456 235.347 149.167 236.188 147.72C236.196 147.71 236.199 147.696 236.197 147.683C236.196 147.67 236.189 147.658 236.178 147.651C236.167 147.643 236.154 147.639 236.141 147.641C236.128 147.643 236.116 147.65 236.108 147.661C234.902 149.006 233.832 150.469 232.915 152.027C232.811 152.221 233.637 152.306 233.796 152.311Z" fill="#263238"/>
<path d="M244.015 154.659C242.573 154.425 243.15 151.143 243.15 151.143C243.15 151.143 237.529 148.407 238.445 143.444C237.123 145.184 235.181 146.349 233.023 146.696C233.023 146.696 234.779 141.479 239.265 141.678C239.265 141.678 245.015 141.31 246.725 146.288C248.436 151.267 244.98 154.813 244.015 154.659Z" fill="#263238"/>
<path d="M238.517 143.086C238.23 143.809 238.101 144.586 238.139 145.364C238.161 146.15 238.348 146.922 238.687 147.632C238.769 147.803 238.862 147.969 238.965 148.129L239.114 148.383C239.169 148.467 239.229 148.542 239.288 148.621C239.413 148.776 239.527 148.935 239.656 149.079C239.786 149.223 239.93 149.358 240.069 149.492C240.208 149.626 240.208 149.631 240.283 149.691L240.512 149.87L240.974 150.223C241.303 150.427 241.641 150.616 241.969 150.795C241.676 150.546 241.362 150.332 241.074 150.084L240.651 149.706L240.442 149.512C240.378 149.447 240.318 149.372 240.258 149.303C240.198 149.233 240.009 149.019 239.88 148.88C239.751 148.741 239.666 148.577 239.557 148.427L239.393 148.204L239.254 147.96C239.158 147.799 239.072 147.633 238.995 147.463C238.675 146.788 238.473 146.062 238.398 145.319C238.36 144.944 238.352 144.566 238.373 144.19C238.391 143.819 238.439 143.449 238.517 143.086Z" fill="#263238"/>
<path d="M242.991 157.278C242.867 157.279 242.743 157.264 242.623 157.233C242.501 157.211 242.384 157.169 242.275 157.109C242.132 157.038 242.006 156.936 241.907 156.81C241.826 156.713 241.761 156.604 241.713 156.487C241.644 156.33 241.603 156.161 241.594 155.99L242.758 154.194C242.758 154.194 245.244 152.538 246.055 153.508C246.866 154.478 244.374 157.303 242.991 157.278Z" fill="#F7A9A0"/>
<path d="M245.315 154.287V154.322C244.32 154.322 243.574 154.953 242.937 155.649C243.02 155.583 243.116 155.535 243.219 155.51C243.321 155.484 243.428 155.481 243.533 155.501C243.637 155.521 243.735 155.563 243.821 155.625C243.907 155.686 243.979 155.766 244.031 155.858C244.031 155.858 244.031 155.908 243.992 155.898C243.861 155.791 243.7 155.728 243.532 155.716C243.363 155.705 243.196 155.746 243.052 155.833C242.811 155.983 242.588 156.158 242.385 156.356C242.315 156.415 242.196 156.321 242.261 156.246C242.669 155.132 244.106 153.944 245.315 154.287Z" fill="#263238"/>
<path d="M242.995 156.936C242.943 157.015 242.861 157.07 242.769 157.091C242.676 157.111 242.579 157.095 242.498 157.046C242.437 157.007 242.389 156.952 242.36 156.886C242.33 156.82 242.321 156.747 242.333 156.676C242.346 156.605 242.379 156.539 242.429 156.487C242.479 156.435 242.543 156.399 242.613 156.383C242.684 156.368 242.757 156.374 242.824 156.4C242.891 156.427 242.949 156.472 242.99 156.532C243.031 156.591 243.053 156.661 243.054 156.733C243.055 156.805 243.035 156.876 242.995 156.936Z" fill="white"/>
<path d="M243.896 156.704C243.869 156.746 243.831 156.779 243.785 156.799C243.739 156.819 243.688 156.825 243.639 156.816C243.59 156.807 243.544 156.784 243.508 156.75C243.472 156.715 243.447 156.671 243.436 156.622C243.425 156.573 243.429 156.522 243.446 156.476C243.464 156.429 243.495 156.389 243.536 156.36C243.577 156.331 243.625 156.314 243.675 156.313C243.725 156.311 243.774 156.324 243.817 156.351C243.874 156.387 243.914 156.445 243.929 156.511C243.944 156.577 243.932 156.646 243.896 156.704Z" fill="white"/>
<path d="M233.678 177.243C233.678 177.243 237.931 169.534 240.348 165.58C242.765 161.626 245.073 162.322 245.252 166.947C245.431 171.573 246.794 177.511 242.472 185.091C231.271 204.726 233.678 177.243 233.678 177.243Z" fill="#DBDBDB"/>
<path d="M242.875 151.128L232.047 158.757C231.969 158.785 231.9 158.833 231.848 158.896C231.795 158.96 231.76 159.036 231.748 159.118C231.735 159.199 231.744 159.283 231.775 159.36C231.806 159.436 231.857 159.503 231.923 159.553L235.449 164.263C235.613 164.383 235.807 164.454 236.01 164.468C236.212 164.482 236.414 164.439 236.593 164.342L247.42 156.698C247.497 156.67 247.565 156.622 247.617 156.559C247.669 156.496 247.703 156.42 247.716 156.339C247.728 156.259 247.719 156.176 247.689 156.1C247.659 156.024 247.609 155.958 247.545 155.907L244.019 151.227C243.857 151.104 243.663 151.029 243.461 151.012C243.259 150.994 243.055 151.034 242.875 151.128Z" fill="#A6A6A6"/>
<path d="M243.198 151.517L232.37 159.146C232.294 159.175 232.226 159.224 232.174 159.287C232.122 159.351 232.089 159.427 232.076 159.508C232.063 159.589 232.072 159.671 232.102 159.748C232.132 159.824 232.182 159.891 232.246 159.942L235.777 164.652C235.94 164.772 236.133 164.843 236.335 164.857C236.537 164.871 236.738 164.828 236.916 164.731L247.743 157.102C247.82 157.075 247.889 157.027 247.941 156.964C247.994 156.901 248.028 156.826 248.041 156.745C248.055 156.664 248.046 156.581 248.016 156.505C247.987 156.429 247.937 156.362 247.873 156.311L244.341 151.601C244.178 151.481 243.984 151.409 243.782 151.394C243.579 151.379 243.377 151.421 243.198 151.517Z" fill="#DBDBDB"/>
<path d="M244.189 153.143C244.114 153.225 244.017 153.284 243.909 153.31C243.801 153.337 243.688 153.332 243.583 153.294C243.479 153.257 243.388 153.189 243.322 153.1C243.255 153.011 243.217 152.904 243.212 152.793C243.206 152.682 243.234 152.572 243.29 152.477C243.347 152.382 243.431 152.305 243.532 152.258C243.632 152.21 243.744 152.193 243.854 152.209C243.964 152.225 244.066 152.273 244.149 152.347C244.259 152.448 244.325 152.588 244.332 152.737C244.34 152.886 244.288 153.032 244.189 153.143Z" fill="#263238"/>
<path d="M230.884 188.912C230.918 193.03 236.459 193.617 238.344 191.727C242.76 187.301 246.391 177.985 248.007 172.569C248.53 170.828 236.981 166.73 236.141 168.481C235.121 170.585 230.814 180.845 230.884 188.912Z" fill="#F7A9A0"/>
<path d="M245.334 175.544C247.3 173.846 248.877 171.744 249.959 169.382C251.093 166.776 252.943 160.837 247.97 153.964C246.786 152.333 243.951 150.851 244.911 154.208C245.597 156.595 246.746 157.903 246.9 159.36C246.9 159.36 243.071 157.903 241.489 159.146C240.103 160.237 238.795 161.423 237.575 162.698C237.76 162.973 237.961 163.237 238.177 163.488C237.063 164.928 236.374 166.651 236.188 168.462L245.334 175.544Z" fill="#F7A9A0"/>
<path d="M250.622 166.721C250.17 165.303 249.17 162.309 247.499 160.151C245.639 157.748 241.416 153.625 239.661 155.013C238.368 156.008 239.845 157.748 239.845 157.748C239.845 157.748 237.741 156.411 236.776 157.584C235.896 158.654 237.119 159.917 237.119 159.917C237.119 159.917 235.702 159.325 235.055 160.519C234.274 161.951 237.373 162.956 237.84 165.094C237.945 165.572 250.622 166.721 250.622 166.721Z" fill="#F7A9A0"/>
<path d="M245.285 162.531C244.02 160.423 242.143 158.75 239.903 157.737C239.849 157.712 239.799 157.737 239.849 157.776C241.841 159.142 243.66 160.745 245.265 162.551C245.265 162.551 245.295 162.546 245.285 162.531Z" fill="#263238"/>
<path d="M242.805 164.343C242.139 163.309 239.762 160.832 237.145 159.867C237.091 159.867 237.041 159.867 237.091 159.907C239.151 161.17 241.061 162.661 242.785 164.353C242.785 164.353 242.815 164.358 242.805 164.343Z" fill="#263238"/>
<path d="M230.312 189.603C230.536 193.746 236.281 194.412 238.27 192.537C242.9 188.136 246.631 178.801 248.282 173.369L235.032 169.281C233.973 171.385 229.885 181.74 230.312 189.603Z" fill="#DBDBDB"/>
<path d="M235.678 169.485L235.022 169.296C234.251 171.36 233.559 173.464 232.923 175.573C232.286 177.682 231.704 179.82 231.242 181.974C230.779 184.127 230.357 186.311 230.416 188.494C230.406 189.573 230.679 190.636 231.207 191.577C231.489 192.021 231.87 192.392 232.321 192.662C232.784 192.922 233.289 193.101 233.813 193.189C234.868 193.409 235.964 193.323 236.971 192.94C237.968 192.517 238.862 191.884 239.592 191.085C241.04 189.44 242.247 187.598 243.178 185.614C244.173 183.625 245.008 181.601 245.884 179.571C246.759 177.542 247.62 175.508 248.266 173.394L247.848 173.25L248.271 173.384C247.993 174.459 247.615 175.498 247.237 176.538C246.859 177.577 246.461 178.607 246.053 179.631C245.207 181.675 244.387 183.729 243.432 185.729C242.957 186.733 242.426 187.709 241.84 188.653C241.268 189.608 240.602 190.502 239.851 191.324C239.092 192.167 238.159 192.834 237.116 193.278C236.046 193.69 234.881 193.787 233.758 193.557C233.191 193.463 232.645 193.268 232.147 192.98C231.646 192.681 231.223 192.267 230.914 191.771C230.36 190.774 230.075 189.65 230.088 188.509C230.072 187.393 230.153 186.278 230.332 185.177C230.496 184.077 230.725 182.998 230.968 181.914C231.997 177.605 233.358 173.381 235.037 169.281L235.678 169.485Z" fill="#263238"/>
<path d="M240.21 174.875C239.215 174.591 235.281 173.527 234.276 173.383C234.246 173.383 234.236 173.438 234.276 173.447C235.206 173.865 239.135 175.049 240.12 175.332C242.083 175.932 244.075 176.43 246.088 176.824C246.133 176.824 246.158 176.755 246.118 176.74C244.182 176.016 242.21 175.393 240.21 174.875Z" fill="#263238"/>
</svg>
