<svg width="403" height="264" viewBox="0 0 403 264" fill="none" xmlns="http://www.w3.org/2000/svg">
<path opacity="0.1" d="M75.7921 35.65C83.6521 35.65 89.8621 38.29 94.4221 43.57C98.9821 48.79 101.262 57.1 101.262 68.5C101.262 79.9 98.9821 88.21 94.4221 93.43C89.8621 98.65 83.6521 101.26 75.7921 101.26C67.9321 101.26 61.7221 98.65 57.1621 93.43C52.6021 88.21 50.3221 79.9 50.3221 68.5C50.3221 57.1 52.6021 48.79 57.1621 43.57C61.7221 38.29 67.9321 35.65 75.7921 35.65ZM75.7921 91.45C79.4521 91.45 82.3921 89.86 84.6121 86.68C86.8321 83.5 87.9421 77.44 87.9421 68.5C87.9421 59.56 86.8321 53.5 84.6121 50.32C82.3921 47.08 79.4521 45.46 75.7921 45.46C72.1321 45.46 69.1921 47.08 66.9721 50.32C64.7521 53.5 63.6421 59.56 63.6421 68.5C63.6421 77.44 64.7521 83.5 66.9721 86.68C69.1921 89.86 72.1321 91.45 75.7921 91.45ZM152.114 100H106.394V97.57C106.394 92.83 107.204 88.81 108.824 85.51C110.444 82.15 112.454 79.42 114.854 77.32C117.314 75.22 120.284 73.09 123.764 70.93L130.964 66.34C133.484 64.78 135.494 63.1 136.994 61.3C138.554 59.5 139.334 57.4 139.334 55C139.334 52 138.524 49.72 136.904 48.16C135.344 46.6 133.034 45.82 129.974 45.82C126.854 45.82 124.364 46.87 122.504 48.97C120.644 51.01 119.564 54.01 119.264 57.97L106.574 57.34C106.934 52.72 108.164 48.79 110.264 45.55C112.424 42.31 115.214 39.88 118.634 38.26C122.054 36.58 125.834 35.74 129.974 35.74C136.454 35.74 141.794 37.33 145.994 40.51C150.194 43.69 152.294 48.31 152.294 54.37C152.294 58.33 151.544 61.63 150.044 64.27C148.544 66.85 146.864 68.83 145.004 70.21C143.144 71.59 140.294 73.45 136.454 75.79L130.244 79.75C127.484 81.49 125.324 83.23 123.764 84.97C122.204 86.65 121.364 88.09 121.244 89.29H152.114V100Z" fill="#0C0D0E"/>
<path opacity="0.12" d="M196.307 117.749C194.894 117.362 194.867 115.547 194.867 115.547L196.222 115.817C196.148 116.461 196.176 117.113 196.307 117.749Z" fill="black"/>
<path d="M270.739 68.2659V144.565C270.739 145.697 270.289 146.782 269.489 147.582C268.689 148.382 267.604 148.831 266.473 148.831H151.172C150.045 148.824 148.968 148.371 148.174 147.572C147.381 146.773 146.936 145.692 146.938 144.565V68.2659C146.936 67.1396 147.381 66.0585 148.174 65.2591C148.968 64.4597 150.045 64.007 151.172 64H266.473C267.033 64 267.588 64.1103 268.105 64.3247C268.623 64.5391 269.093 64.8533 269.489 65.2495C269.885 65.6456 270.2 66.1158 270.414 66.6334C270.628 67.151 270.739 67.7057 270.739 68.2659Z" fill="#00AEF0"/>
<path opacity="0.7" d="M270.739 68.2659V144.565C270.739 145.697 270.289 146.782 269.489 147.582C268.689 148.382 267.604 148.831 266.473 148.831H151.172C150.045 148.824 148.968 148.371 148.174 147.572C147.381 146.773 146.936 145.692 146.938 144.565V68.2659C146.936 67.1396 147.381 66.0585 148.174 65.2591C148.968 64.4597 150.045 64.007 151.172 64H266.473C267.033 64 267.588 64.1103 268.105 64.3247C268.623 64.5391 269.093 64.8533 269.489 65.2495C269.885 65.6456 270.2 66.1158 270.414 66.6334C270.628 67.151 270.739 67.7057 270.739 68.2659Z" fill="white" stroke="white" stroke-miterlimit="10"/>
<path d="M263.563 70.4064C264.197 70.4064 264.711 69.8922 264.711 69.2579C264.711 68.6236 264.197 68.1094 263.563 68.1094C262.928 68.1094 262.414 68.6236 262.414 69.2579C262.414 69.8922 262.928 70.4064 263.563 70.4064Z" fill="#00AEF0"/>
<path d="M258.073 69.2579C258.074 69.4863 258.007 69.7099 257.881 69.9003C257.755 70.0908 257.575 70.2395 257.365 70.3276C257.154 70.4158 256.922 70.4394 256.698 70.3955C256.473 70.3515 256.267 70.2421 256.105 70.0809C255.944 69.9198 255.833 69.7142 255.788 69.4902C255.743 69.2663 255.766 69.034 255.853 68.8229C255.94 68.6117 256.088 68.4312 256.278 68.3042C256.468 68.1772 256.691 68.1094 256.919 68.1094C257.224 68.1108 257.516 68.232 257.732 68.447C257.948 68.6619 258.07 68.9532 258.073 69.2579Z" fill="#00AEF0"/>
<path d="M251.433 69.2579C251.434 69.4863 251.367 69.7099 251.241 69.9003C251.115 70.0908 250.935 70.2395 250.724 70.3276C250.513 70.4158 250.281 70.4394 250.057 70.3955C249.833 70.3515 249.627 70.2421 249.465 70.0809C249.303 69.9198 249.193 69.7142 249.148 69.4902C249.103 69.2663 249.125 69.034 249.212 68.8229C249.299 68.6117 249.447 68.4312 249.637 68.3042C249.827 68.1772 250.05 68.1094 250.279 68.1094C250.583 68.1108 250.875 68.232 251.091 68.447C251.307 68.6619 251.43 68.9532 251.433 69.2579Z" fill="#00AEF0"/>
<path d="M261.671 83.7503V160.05C261.664 161.175 261.212 162.252 260.414 163.045C259.616 163.839 258.536 164.284 257.411 164.284H142.104C140.979 164.284 139.899 163.839 139.101 163.045C138.303 162.252 137.851 161.175 137.844 160.05V83.7503C137.844 82.6198 138.292 81.5356 139.091 80.7357C139.89 79.9358 140.974 79.4858 142.104 79.4844H257.411C258.541 79.4858 259.625 79.9358 260.424 80.7357C261.223 81.5356 261.671 82.6198 261.671 83.7503Z" fill="#00AEF0"/>
<path opacity="0.8" d="M261.671 83.7503V160.05C261.664 161.175 261.212 162.252 260.414 163.045C259.616 163.839 258.536 164.284 257.411 164.284H142.104C140.979 164.284 139.899 163.839 139.101 163.045C138.303 162.252 137.851 161.175 137.844 160.05V83.7503C137.844 82.6198 138.292 81.5356 139.091 80.7357C139.89 79.9358 140.974 79.4858 142.104 79.4844H257.411C258.541 79.4858 259.625 79.9358 260.424 80.7357C261.223 81.5356 261.671 82.6198 261.671 83.7503Z" fill="white"/>
<path d="M261.677 88.4453H234.055V158.245H261.677V88.4453Z" fill="#00AEF0"/>
<path opacity="0.2" d="M261.677 88.4453H234.055V158.245H261.677V88.4453Z" fill="black"/>
<path d="M261.677 109.406H234.055V110.295H261.677V109.406Z" fill="#FAFAFA"/>
<path d="M261.677 131.312H234.055V132.202H261.677V131.312Z" fill="#FAFAFA"/>
<path d="M261.677 152.898H234.055V153.788H261.677V152.898Z" fill="#FAFAFA"/>
<path d="M246.102 115.516V125.942L253.977 120.729L246.102 115.516Z" fill="#FAFAFA"/>
<path d="M246.102 137.328V147.76L253.977 142.547L246.102 137.328Z" fill="#FAFAFA"/>
<path d="M246.102 93.3125V103.744L253.977 98.5258L246.102 93.3125Z" fill="#FAFAFA"/>
<path d="M178.34 131.312C178.34 131.312 171.279 141.84 169.078 143.93C169.078 143.93 157.243 144.989 152.374 141.66L151.141 144.682C151.141 144.682 162.382 151.033 169.998 149.482C177.615 147.932 183.23 133.228 183.23 133.228L178.34 131.312Z" fill="#B55B52"/>
<path d="M212.655 125.054C212.655 125.054 219.403 126.901 223.611 127.255C223.611 127.255 226.786 119.883 227.315 113.188L229.708 113.32C229.708 113.32 231.91 126.361 226.135 131.643C222.145 135.3 208.828 128.526 208.828 128.526L212.655 125.054Z" fill="#B55B52"/>
<path d="M193.664 96.2942C193.664 96.2942 184.518 95.4103 183.571 104.731C183.048 110.515 183.983 116.338 186.291 121.667C186.291 121.667 191.822 132.925 198.528 131.358C205.234 129.792 210.918 126.161 209.733 120.085C208.547 114.009 206.34 114.263 206.42 105.795C206.499 97.3262 198.555 92.4093 193.664 96.2942Z" fill="#263238"/>
<path d="M203.647 109.641C202.689 114.314 200.556 116.177 196.238 115.817C196.163 116.462 196.192 117.114 196.322 117.749C196.43 118.511 196.782 119.217 197.327 119.76C197.871 120.303 198.577 120.655 199.339 120.761C203.044 121.401 201.017 126.17 201.017 126.17L197.312 127.991L192.437 125.18L188.733 121.227H190.029C190.029 121.227 192.538 117.432 190.029 111.043C189.481 110.722 189.018 110.273 188.682 109.733C188.345 109.194 188.145 108.581 188.097 107.947C187.992 105.83 190.177 105.703 191.003 106.497C191.003 106.497 194.766 104.856 194.205 98.5156C194.205 98.5156 197.91 101.3 202.674 100.49C202.668 100.527 204.6 104.962 203.647 109.641Z" fill="#B55B52"/>
<path d="M200.242 105.75L200.29 109.021C200.553 109.122 200.834 109.166 201.115 109.15C201.396 109.133 201.671 109.057 201.92 108.926L200.242 105.75Z" fill="#A02724"/>
<path d="M195.228 102.069C195.196 102.076 195.164 102.076 195.133 102.069C195.112 102.056 195.095 102.04 195.081 102.021C195.067 102.001 195.057 101.98 195.052 101.956C195.046 101.933 195.045 101.909 195.049 101.886C195.053 101.863 195.062 101.84 195.074 101.82C195.32 101.444 195.689 101.165 196.117 101.029C196.545 100.893 197.006 100.909 197.424 101.074C197.447 101.081 197.468 101.092 197.486 101.108C197.504 101.123 197.518 101.142 197.529 101.164C197.539 101.185 197.545 101.208 197.546 101.232C197.547 101.255 197.544 101.279 197.535 101.301C197.52 101.346 197.487 101.383 197.444 101.404C197.402 101.424 197.353 101.428 197.308 101.412C196.968 101.273 196.59 101.256 196.238 101.364C195.887 101.472 195.584 101.699 195.381 102.005C195.363 102.027 195.339 102.045 195.312 102.056C195.286 102.067 195.257 102.071 195.228 102.069Z" fill="#263238"/>
<path d="M203.426 103.078C203.379 103.078 203.334 103.061 203.299 103.03C202.77 102.549 201.849 102.903 201.838 102.909C201.793 102.924 201.744 102.922 201.701 102.902C201.657 102.883 201.623 102.847 201.606 102.803C201.597 102.781 201.593 102.757 201.594 102.733C201.595 102.709 201.6 102.686 201.61 102.664C201.62 102.643 201.634 102.623 201.651 102.607C201.669 102.591 201.689 102.578 201.711 102.57C201.754 102.57 202.87 102.131 203.548 102.766C203.582 102.799 203.6 102.845 203.6 102.893C203.6 102.94 203.582 102.986 203.548 103.02C203.516 103.053 203.473 103.074 203.426 103.078Z" fill="#263238"/>
<path d="M198.852 110.581C198.236 110.607 197.624 110.47 197.078 110.183C196.531 109.897 196.07 109.472 195.74 108.951C195.731 108.92 195.733 108.888 195.745 108.858C195.757 108.829 195.779 108.805 195.807 108.79C195.835 108.775 195.868 108.77 195.899 108.776C195.93 108.782 195.958 108.799 195.978 108.824C196.286 109.302 196.714 109.691 197.219 109.952C197.725 110.213 198.29 110.337 198.858 110.311C198.893 110.311 198.926 110.325 198.951 110.35C198.976 110.375 198.99 110.408 198.99 110.443C198.99 110.48 198.975 110.515 198.95 110.541C198.924 110.567 198.889 110.581 198.852 110.581Z" fill="#263238"/>
<path d="M197.904 105.186C197.904 105.577 197.708 105.895 197.443 105.906C197.179 105.916 196.956 105.604 196.946 105.212C196.935 104.821 197.136 104.503 197.401 104.492C197.666 104.482 197.893 104.794 197.904 105.186Z" fill="#263238"/>
<path d="M202.605 105.233C202.605 105.619 202.409 105.942 202.144 105.952C201.88 105.963 201.657 105.651 201.641 105.259C201.626 104.867 201.837 104.55 202.102 104.539C202.367 104.529 202.594 104.841 202.605 105.233Z" fill="#263238"/>
<path d="M197.328 104.508L198.53 104.164C198.53 104.164 198.313 104.81 197.328 104.508Z" fill="#263238"/>
<path d="M202.102 104.533L202.985 104.406C202.949 104.487 202.892 104.558 202.821 104.611C202.75 104.665 202.666 104.7 202.578 104.712C202.49 104.725 202.4 104.715 202.317 104.684C202.234 104.653 202.16 104.601 202.102 104.533Z" fill="#263238"/>
<path d="M214.944 124.84L210.8 133.965L208.598 133.166C208.598 133.166 208.82 149.732 207.01 158.243H185.469L184.23 135.632L183.103 137.993L175.164 133.536C175.164 133.536 177.361 124.539 180.79 122.951C182.426 122.194 185.914 121.612 189.502 121.236C192.771 120.866 196.062 120.71 199.352 120.77C199.352 120.77 199.69 120.77 200.288 120.77C205.425 120.963 210.444 122.357 214.944 124.84Z" fill="#00AEF0"/>
<path d="M227.316 113.186C226.499 112.024 225.956 110.692 225.728 109.29C225.505 107.781 225.645 106.241 226.136 104.797L230.412 104.648L230.942 108.39C231.151 110.127 230.716 111.88 229.719 113.318L227.316 113.186Z" fill="#B55B52"/>
<path d="M152.372 141.659L150.144 137.684L147.434 136.742L145.508 140.341L147.228 142.702C147.228 142.702 149.498 144.628 151.139 144.681L152.372 141.659Z" fill="#B55B52"/>
<path d="M200.255 120.773C200.218 126.479 196.651 132.729 196.651 132.729C193.475 129.665 190.3 123.091 189.469 121.228C192.738 120.858 196.029 120.702 199.318 120.763C199.318 120.763 199.678 120.752 200.255 120.773Z" fill="#B55B52"/>
<path opacity="0.12" d="M183.094 137.991L184.205 131.867L184.226 135.636L183.094 137.991Z" fill="black"/>
<path opacity="0.12" d="M210.807 133.964L207.25 131.312L208.605 133.165L210.807 133.964Z" fill="black"/>
<path d="M187.372 232.492L192.464 238.002L180.65 249.238L176.438 246.243L187.372 232.492Z" fill="#B55B52"/>
<path d="M181.688 248.975C181.973 250.69 182.392 252.601 184.826 255.956C185.355 256.703 183.948 258.1 182.355 256.623C180.761 255.147 178.475 252.828 177.321 251.765C175.442 250.023 174.675 249.446 173.145 248.091C173.122 248.075 173.1 248.055 173.082 248.033C173.009 247.957 172.952 247.868 172.914 247.769C172.875 247.671 172.857 247.567 172.86 247.461C172.862 247.356 172.885 247.252 172.928 247.156C172.971 247.06 173.032 246.973 173.108 246.901L176.458 244.185C176.536 244.125 176.632 244.096 176.73 244.103C176.828 244.109 176.92 244.152 176.988 244.222L181.259 248.171C181.484 248.387 181.634 248.668 181.688 248.975Z" fill="#263238"/>
<path d="M181.044 248.871C181.03 248.85 181.023 248.826 181.023 248.802C181.023 248.778 181.03 248.754 181.044 248.733C181.06 248.722 181.078 248.715 181.097 248.712C181.117 248.709 181.136 248.711 181.155 248.717C181.398 248.797 183.574 249.469 183.801 250.136C183.824 250.197 183.83 250.264 183.82 250.328C183.81 250.393 183.783 250.454 183.743 250.506C183.685 250.591 183.605 250.66 183.512 250.706C183.42 250.751 183.317 250.772 183.214 250.765C182.787 250.677 182.399 250.454 182.108 250.13C181.716 249.743 181.36 249.321 181.044 248.871ZM181.451 249.029C182.176 249.95 182.833 250.501 183.235 250.501C183.303 250.505 183.372 250.492 183.433 250.461C183.495 250.43 183.547 250.384 183.584 250.326C183.597 250.304 183.603 250.28 183.603 250.255C183.603 250.23 183.597 250.205 183.584 250.183C183.551 250.11 183.502 250.045 183.441 249.993C182.833 249.568 182.161 249.243 181.451 249.029Z" fill="#00AEF0"/>
<path d="M181.012 248.829C181.006 248.809 181.006 248.789 181.012 248.769C181.018 248.749 181.029 248.732 181.044 248.718C181.081 248.681 182.039 247.802 182.854 247.871C183.097 247.89 183.323 248.004 183.483 248.189C183.711 248.448 183.674 248.633 183.605 248.718C183.304 249.189 181.721 249.131 181.091 248.903L181.049 248.877C181.034 248.863 181.021 248.847 181.012 248.829ZM182.848 248.109C182.296 248.162 181.776 248.392 181.366 248.765C182.065 248.93 183.219 248.882 183.399 248.601C183.399 248.601 183.457 248.511 183.309 248.342L183.256 248.289C183.144 248.185 183.001 248.122 182.848 248.109Z" fill="#00AEF0"/>
<path d="M185.062 242.554L192.001 242.453L191.038 259.893L186.047 259.718L185.062 242.554Z" fill="#B55B52"/>
<path d="M192.213 258.61C193.626 259.721 194.33 260.891 198.289 261.754C199.173 261.95 199.199 264.019 197.109 264.003C195.018 263.987 192.79 263.802 191.287 263.802C188.825 263.802 187.889 263.913 185.941 263.913C185.826 263.911 185.712 263.886 185.606 263.84C185.5 263.794 185.404 263.728 185.324 263.645C185.244 263.562 185.181 263.464 185.139 263.356C185.097 263.249 185.076 263.134 185.078 263.019L185.417 258.605C185.422 258.51 185.465 258.422 185.535 258.358C185.606 258.295 185.698 258.262 185.793 258.266L191.398 258.303C191.695 258.317 191.98 258.424 192.213 258.61Z" fill="#263238"/>
<path d="M188.967 151.984C188.364 162.808 202.591 195.162 204.178 206.499C199.277 217.884 186.453 232.396 186.453 232.396L192.529 239.023C192.529 239.023 213.806 220.059 214.912 206.843C215.833 195.543 207.841 153.069 207.841 153.069L188.967 151.984Z" fill="#00AEF0"/>
<path d="M188.967 151.984C188.364 162.808 202.591 195.162 204.178 206.499C199.277 217.884 186.453 232.396 186.453 232.396L192.529 239.023C192.529 239.023 213.806 220.059 214.912 206.843C215.833 195.543 207.841 153.069 207.841 153.069L188.967 151.984Z" fill="#263238"/>
<path d="M186.607 230.852L194.556 238.399L192.413 239.743L185.141 233.202L186.607 230.852Z" fill="#00AEF0"/>
<path opacity="0.3" d="M193.539 172.53C196.873 182.829 201.15 194.044 203.151 201.703C203.516 193.372 203.235 178.532 197.408 170.476C194.688 166.681 193.613 168.571 193.539 172.53Z" fill="black"/>
<path d="M185.338 152.109C181.204 163.494 184.422 189.195 184.645 207.614C183.406 221.496 185.063 242.545 185.063 242.545L192.525 242.852C192.525 242.852 194.775 218.009 196.31 202.506C197.612 189.455 202.259 152.755 202.259 152.755L185.338 152.109Z" fill="#00AEF0"/>
<path d="M185.107 151.719C180.973 163.098 184.424 189.202 184.647 207.62C183.408 221.503 185.065 242.552 185.065 242.552L192.527 242.859C192.527 242.859 194.777 218.015 196.312 202.513C197.614 189.461 202.261 152.761 202.261 152.761L185.107 151.719Z" fill="#263238"/>
<path d="M183.977 240.719L193.652 240.989L193.054 243.677L184.501 243.921L183.977 240.719Z" fill="#00AEF0"/>
<path d="M194.081 258.953C193.637 259.381 192.493 259.175 191.816 259.021C191.793 259.014 191.772 259.001 191.755 258.983C191.739 258.966 191.727 258.944 191.721 258.921C191.717 258.899 191.719 258.876 191.727 258.856C191.736 258.835 191.75 258.817 191.768 258.804C191.927 258.693 193.356 257.746 193.975 257.995C194.044 258.024 194.103 258.07 194.148 258.13C194.192 258.189 194.221 258.26 194.229 258.333C194.252 258.424 194.255 258.518 194.237 258.61C194.218 258.702 194.18 258.788 194.124 258.863C194.12 258.896 194.105 258.928 194.081 258.953ZM192.144 258.826C193.023 259.005 193.674 258.979 193.912 258.762C193.962 258.706 193.997 258.638 194.012 258.565C194.026 258.491 194.021 258.415 193.997 258.344C193.997 258.311 193.986 258.278 193.968 258.251C193.949 258.223 193.922 258.202 193.891 258.19C193.578 258.053 192.732 258.471 192.144 258.841V258.826Z" fill="#00AEF0"/>
<path d="M191.902 258.979C191.883 258.987 191.863 258.991 191.843 258.991C191.823 258.991 191.804 258.987 191.785 258.979C191.767 258.968 191.752 258.953 191.74 258.936C191.728 258.919 191.72 258.899 191.716 258.878C191.716 258.815 191.632 257.381 192.134 256.904C192.198 256.841 192.276 256.794 192.362 256.768C192.448 256.741 192.538 256.735 192.627 256.751C192.723 256.754 192.815 256.789 192.891 256.849C192.966 256.909 193.02 256.991 193.045 257.084C193.046 257.334 192.997 257.581 192.902 257.812C192.806 258.043 192.666 258.252 192.489 258.429C192.324 258.642 192.126 258.828 191.902 258.979ZM191.944 258.651C192.399 258.275 192.907 257.471 192.817 257.127C192.807 257.081 192.78 257.041 192.742 257.015C192.704 256.988 192.657 256.977 192.611 256.984C192.555 256.973 192.498 256.977 192.444 256.994C192.391 257.012 192.342 257.043 192.304 257.084L192.256 257.137C192.014 257.603 191.906 258.127 191.944 258.651Z" fill="#00AEF0"/>
<path d="M190.068 119.984H188.242V130.739H190.068V119.984Z" fill="#FAFAFA"/>
<path d="M185.787 119.984H183.961V130.739H185.787V119.984Z" fill="#FAFAFA"/>
<path d="M195.165 127.835C196.276 123.148 193.377 118.448 188.69 117.336C184.004 116.225 179.303 119.124 178.192 123.811C177.081 128.497 179.979 133.198 184.666 134.309C189.353 135.42 194.053 132.522 195.165 127.835Z" stroke="#FAFAFA" stroke-width="0.996895" stroke-miterlimit="10"/>
<path d="M261.669 83.7503V88.4396H137.82V83.7503C137.82 82.6198 138.269 81.5356 139.068 80.7357C139.867 79.9358 140.95 79.4858 142.081 79.4844H257.408C258.539 79.4858 259.623 79.9358 260.422 80.7357C261.22 81.5356 261.669 82.6198 261.669 83.7503Z" fill="#00AEF0"/>
<path d="M261.671 158.242V160.052C261.664 161.178 261.212 162.255 260.414 163.048C259.616 163.841 258.536 164.286 257.411 164.286H142.104C140.979 164.286 139.899 163.841 139.101 163.048C138.303 162.255 137.851 161.178 137.844 160.052V158.242H261.671Z" fill="#00AEF0"/>
<path d="M162.296 86.2891H144.206C143.686 86.2891 143.187 86.0829 142.819 85.7158C142.451 85.3487 142.244 84.8506 142.242 84.3308C142.242 83.81 142.449 83.3106 142.817 82.9423C143.186 82.5741 143.685 82.3672 144.206 82.3672H162.296C162.554 82.3672 162.809 82.418 163.048 82.5167C163.286 82.6153 163.502 82.76 163.685 82.9423C163.867 83.1246 164.012 83.3411 164.11 83.5793C164.209 83.8176 164.26 84.0729 164.26 84.3308C164.258 84.8506 164.051 85.3487 163.683 85.7158C163.315 86.0829 162.816 86.2891 162.296 86.2891Z" stroke="white" stroke-width="0.5" stroke-miterlimit="10"/>
<path d="M172.12 86.2891H169.474C168.955 86.2891 168.456 86.0827 168.089 85.7155C167.722 85.3482 167.516 84.8501 167.516 84.3308C167.516 83.8109 167.722 83.3123 168.089 82.9442C168.456 82.5761 168.954 82.3686 169.474 82.3672H172.12C172.641 82.3672 173.14 82.5741 173.509 82.9423C173.877 83.3106 174.084 83.81 174.084 84.3308C174.082 84.8506 173.875 85.3487 173.507 85.7158C173.139 86.0829 172.64 86.2891 172.12 86.2891Z" stroke="white" stroke-width="0.5" stroke-miterlimit="10"/>
<path d="M223.494 90.8516H148.687C144.29 90.8516 140.727 94.4155 140.727 98.8118V148.267C140.727 152.663 144.29 156.227 148.687 156.227H223.494C227.89 156.227 231.454 152.663 231.454 148.267V98.8118C231.454 94.4155 227.89 90.8516 223.494 90.8516Z" stroke="white" stroke-width="0.5" stroke-miterlimit="10"/>
<path d="M168.597 96.4922H136.624C134.213 96.4922 132.258 98.4471 132.258 100.859V112.248C132.258 114.66 134.213 116.615 136.624 116.615H168.597C171.009 116.615 172.964 114.66 172.964 112.248V100.859C172.964 98.4471 171.009 96.4922 168.597 96.4922Z" fill="#00AEF0"/>
<path d="M174.516 99.9241V113.156C174.52 113.608 174.434 114.056 174.264 114.474C174.094 114.892 173.843 115.273 173.525 115.594C173.207 115.915 172.829 116.171 172.413 116.345C171.996 116.52 171.549 116.611 171.097 116.612H158.834C155.129 117.893 157.447 123.021 157.527 123.207C156.821 122.965 156.161 122.607 155.574 122.148C152.927 120.031 153.298 116.617 153.298 116.617H137.224C136.313 116.617 135.439 116.255 134.795 115.611C134.151 114.967 133.789 114.093 133.789 113.182V99.9506C133.789 99.0396 134.151 98.1659 134.795 97.5217C135.439 96.8775 136.313 96.5156 137.224 96.5156H171.097C172.001 96.5184 172.868 96.8781 173.508 97.5164C174.148 98.1547 174.511 99.02 174.516 99.9241Z" fill="#00AEF0"/>
<path opacity="0.2" d="M172.959 99.9294V113.161C172.962 113.615 172.875 114.065 172.704 114.485C172.532 114.906 172.278 115.288 171.958 115.609C171.637 115.931 171.256 116.185 170.837 116.358C170.417 116.531 169.967 116.619 169.513 116.617H157.276C154.566 117.549 155.075 120.534 155.577 122.148C152.931 120.031 153.302 116.617 153.302 116.617H135.687C135.237 116.617 134.79 116.528 134.374 116.356C133.957 116.183 133.579 115.93 133.26 115.611C132.942 115.292 132.689 114.913 132.517 114.496C132.345 114.08 132.257 113.633 132.258 113.182V99.9506C132.257 99.4998 132.345 99.0532 132.517 98.6365C132.689 98.2198 132.942 97.8411 133.26 97.5221C133.579 97.203 133.957 96.9499 134.374 96.7772C134.79 96.6045 135.237 96.5157 135.687 96.5157H169.513C169.963 96.5136 170.41 96.6002 170.827 96.7706C171.244 96.9411 171.623 97.1919 171.943 97.5089C172.263 97.8259 172.517 98.2029 172.691 98.6182C172.866 99.0335 172.956 99.479 172.959 99.9294Z" fill="white"/>
<path d="M169.791 99.6875H135.219V101.519H169.791V99.6875Z" fill="#00AEF0"/>
<path d="M169.791 103.047H135.219V104.878H169.791V103.047Z" fill="#00AEF0"/>
<path d="M169.791 106.414H135.219V108.245H169.791V106.414Z" fill="#00AEF0"/>
<path opacity="0.1" d="M169.791 99.6875H135.219V101.519H169.791V99.6875Z" fill="black"/>
<path opacity="0.1" d="M169.791 103.047H135.219V104.878H169.791V103.047Z" fill="black"/>
<path opacity="0.1" d="M169.791 106.414H135.219V108.245H169.791V106.414Z" fill="black"/>
</svg>
