<svg width="403" height="264" viewBox="0 0 403 264" fill="none" xmlns="http://www.w3.org/2000/svg">
<path opacity="0.1" d="M74.7374 35.65C82.5974 35.65 88.8074 38.29 93.3674 43.57C97.9274 48.79 100.207 57.1 100.207 68.5C100.207 79.9 97.9274 88.21 93.3674 93.43C88.8074 98.65 82.5974 101.26 74.7374 101.26C66.8774 101.26 60.6674 98.65 56.1074 93.43C51.5474 88.21 49.2674 79.9 49.2674 68.5C49.2674 57.1 51.5474 48.79 56.1074 43.57C60.6674 38.29 66.8774 35.65 74.7374 35.65ZM74.7374 91.45C78.3974 91.45 81.3374 89.86 83.5574 86.68C85.7774 83.5 86.8874 77.44 86.8874 68.5C86.8874 59.56 85.7774 53.5 83.5574 50.32C81.3374 47.08 78.3974 45.46 74.7374 45.46C71.0774 45.46 68.1374 47.08 65.9174 50.32C63.6974 53.5 62.5874 59.56 62.5874 68.5C62.5874 77.44 63.6974 83.5 65.9174 86.68C68.1374 89.86 71.0774 91.45 74.7374 91.45ZM128.83 63.1C131.89 63.1 134.35 62.32 136.21 60.76C138.13 59.2 139.09 57.07 139.09 54.37C139.09 51.67 138.19 49.54 136.39 47.98C134.65 46.42 132.43 45.64 129.73 45.64C126.97 45.64 124.69 46.45 122.89 48.07C121.09 49.69 120.01 52.06 119.65 55.18L107.14 54.28C107.62 48.34 109.87 43.78 113.89 40.6C117.91 37.36 123.19 35.74 129.73 35.74C136.33 35.74 141.64 37.33 145.66 40.51C149.74 43.69 151.78 48.13 151.78 53.83C151.78 56.95 150.91 59.62 149.17 61.84C147.49 64.06 145.21 65.74 142.33 66.88V67.24C145.63 68.2 148.3 69.94 150.34 72.46C152.38 74.92 153.4 78.07 153.4 81.91C153.4 88.39 151.21 93.25 146.83 96.49C142.51 99.67 136.78 101.26 129.64 101.26C122.62 101.26 116.95 99.61 112.63 96.31C108.31 92.95 105.79 87.91 105.07 81.19L117.94 80.29C118.36 84.13 119.59 86.95 121.63 88.75C123.73 90.49 126.4 91.36 129.64 91.36C132.76 91.36 135.31 90.49 137.29 88.75C139.33 87.01 140.35 84.67 140.35 81.73C140.35 78.55 139.33 76.18 137.29 74.62C135.25 73 132.43 72.19 128.83 72.19H123.16V63.1H128.83Z" fill="#0C0D0E"/>
<path d="M157.478 165.546C157.103 165.521 156.751 165.355 156.494 165.08C156.237 164.806 156.094 164.444 156.094 164.068C156.094 163.692 156.237 163.33 156.494 163.055C156.751 162.781 157.103 162.614 157.478 162.59C161.098 162.59 164.149 157.406 164.149 151.267C164.173 150.892 164.34 150.54 164.614 150.283C164.889 150.026 165.251 149.883 165.627 149.883C166.003 149.883 166.365 150.026 166.639 150.283C166.914 150.54 167.08 150.892 167.105 151.267C167.105 159.273 162.889 165.546 157.478 165.546Z" fill="#00AEF0"/>
<path d="M179.814 165.546C179.439 165.521 179.087 165.355 178.83 165.08C178.573 164.806 178.43 164.444 178.43 164.068C178.43 163.692 178.573 163.33 178.83 163.055C179.087 162.781 179.439 162.614 179.814 162.59C183.434 162.59 186.485 157.406 186.485 151.267C186.509 150.892 186.676 150.54 186.95 150.283C187.225 150.026 187.587 149.883 187.963 149.883C188.339 149.883 188.701 150.026 188.975 150.283C189.25 150.54 189.416 150.892 189.441 151.267C189.472 159.273 185.213 165.546 179.814 165.546Z" fill="#00AEF0"/>
<path d="M202.134 165.542C201.759 165.518 201.407 165.351 201.15 165.077C200.893 164.802 200.75 164.44 200.75 164.064C200.75 163.688 200.893 163.326 201.15 163.052C201.407 162.777 201.759 162.611 202.134 162.587C205.748 162.587 208.805 157.403 208.805 151.264C208.805 150.873 208.961 150.498 209.237 150.221C209.514 149.944 209.889 149.789 210.28 149.789C210.671 149.789 211.046 149.944 211.323 150.221C211.599 150.498 211.755 150.873 211.755 151.264C211.774 159.27 207.552 165.542 202.134 165.542Z" fill="#00AEF0"/>
<path d="M224.484 165.542C224.282 165.555 224.079 165.527 223.888 165.459C223.697 165.391 223.523 165.284 223.375 165.145C223.227 165.007 223.109 164.839 223.028 164.653C222.948 164.468 222.906 164.267 222.906 164.064C222.906 163.862 222.948 163.661 223.028 163.475C223.109 163.289 223.227 163.122 223.375 162.983C223.523 162.845 223.697 162.738 223.888 162.67C224.079 162.602 224.282 162.573 224.484 162.587C228.098 162.587 231.155 157.403 231.155 151.264C231.155 150.873 231.31 150.498 231.587 150.221C231.863 149.944 232.238 149.789 232.63 149.789C233.021 149.789 233.396 149.944 233.672 150.221C233.949 150.498 234.104 150.873 234.104 151.264C234.104 159.27 229.876 165.542 224.484 165.542Z" fill="#00AEF0"/>
<path d="M246.814 165.546C246.439 165.521 246.087 165.355 245.83 165.08C245.573 164.806 245.43 164.444 245.43 164.068C245.43 163.692 245.573 163.33 245.83 163.055C246.087 162.781 246.439 162.614 246.814 162.59C250.434 162.59 253.485 157.406 253.485 151.267C253.509 150.892 253.676 150.54 253.95 150.283C254.225 150.026 254.587 149.883 254.963 149.883C255.339 149.883 255.701 150.026 255.975 150.283C256.25 150.54 256.416 150.892 256.441 151.267C256.441 159.273 252.213 165.546 246.814 165.546Z" fill="#00AEF0"/>
<path d="M269.15 165.546C268.775 165.521 268.423 165.355 268.166 165.08C267.909 164.806 267.766 164.444 267.766 164.068C267.766 163.692 267.909 163.33 268.166 163.055C268.423 162.781 268.775 162.614 269.15 162.59C272.764 162.59 275.821 157.406 275.821 151.267C275.845 150.892 276.012 150.54 276.286 150.283C276.561 150.026 276.923 149.883 277.299 149.883C277.675 149.883 278.037 150.026 278.311 150.283C278.586 150.54 278.752 150.892 278.776 151.267C278.776 159.273 274.549 165.546 269.15 165.546Z" fill="#00AEF0"/>
<g opacity="0.3">
<path d="M157.478 165.546C157.103 165.521 156.751 165.355 156.494 165.08C156.237 164.806 156.094 164.444 156.094 164.068C156.094 163.692 156.237 163.33 156.494 163.055C156.751 162.781 157.103 162.614 157.478 162.59C161.098 162.59 164.149 157.406 164.149 151.267C164.173 150.892 164.34 150.54 164.614 150.283C164.889 150.026 165.251 149.883 165.627 149.883C166.003 149.883 166.365 150.026 166.639 150.283C166.914 150.54 167.08 150.892 167.105 151.267C167.105 159.273 162.889 165.546 157.478 165.546Z" fill="black"/>
<path d="M179.814 165.546C179.439 165.521 179.087 165.355 178.83 165.08C178.573 164.806 178.43 164.444 178.43 164.068C178.43 163.692 178.573 163.33 178.83 163.055C179.087 162.781 179.439 162.614 179.814 162.59C183.434 162.59 186.485 157.406 186.485 151.267C186.509 150.892 186.676 150.54 186.95 150.283C187.225 150.026 187.587 149.883 187.963 149.883C188.339 149.883 188.701 150.026 188.975 150.283C189.25 150.54 189.416 150.892 189.441 151.267C189.472 159.273 185.213 165.546 179.814 165.546Z" fill="black"/>
<path d="M202.126 165.542C201.751 165.518 201.399 165.351 201.142 165.077C200.885 164.802 200.742 164.44 200.742 164.064C200.742 163.688 200.885 163.326 201.142 163.052C201.399 162.777 201.751 162.611 202.126 162.587C205.74 162.587 208.797 157.403 208.797 151.264C208.797 150.873 208.953 150.498 209.229 150.221C209.506 149.944 209.881 149.789 210.272 149.789C210.663 149.789 211.038 149.944 211.315 150.221C211.591 150.498 211.747 150.873 211.747 151.264C211.766 159.27 207.544 165.542 202.126 165.542Z" fill="black"/>
<path d="M224.484 165.542C224.282 165.555 224.079 165.527 223.888 165.459C223.697 165.391 223.523 165.284 223.375 165.145C223.227 165.007 223.109 164.839 223.028 164.653C222.948 164.468 222.906 164.267 222.906 164.064C222.906 163.862 222.948 163.661 223.028 163.475C223.109 163.289 223.227 163.122 223.375 162.983C223.523 162.845 223.697 162.738 223.888 162.67C224.079 162.602 224.282 162.573 224.484 162.587C228.098 162.587 231.155 157.403 231.155 151.264C231.155 150.873 231.31 150.498 231.587 150.221C231.863 149.944 232.238 149.789 232.63 149.789C233.021 149.789 233.396 149.944 233.672 150.221C233.949 150.498 234.104 150.873 234.104 151.264C234.104 159.27 229.876 165.542 224.484 165.542Z" fill="black"/>
<path d="M246.814 165.546C246.439 165.521 246.087 165.355 245.83 165.08C245.573 164.806 245.43 164.444 245.43 164.068C245.43 163.692 245.573 163.33 245.83 163.055C246.087 162.781 246.439 162.614 246.814 162.59C250.434 162.59 253.485 157.406 253.485 151.267C253.509 150.892 253.676 150.54 253.95 150.283C254.225 150.026 254.587 149.883 254.963 149.883C255.339 149.883 255.701 150.026 255.975 150.283C256.25 150.54 256.416 150.892 256.441 151.267C256.441 159.273 252.213 165.546 246.814 165.546Z" fill="black"/>
<path d="M269.15 165.546C268.775 165.521 268.423 165.355 268.166 165.08C267.909 164.806 267.766 164.444 267.766 164.068C267.766 163.692 267.909 163.33 268.166 163.055C268.423 162.781 268.775 162.614 269.15 162.59C272.764 162.59 275.821 157.406 275.821 151.267C275.845 150.892 276.012 150.54 276.286 150.283C276.561 150.026 276.923 149.883 277.299 149.883C277.675 149.883 278.037 150.026 278.311 150.283C278.586 150.54 278.752 150.892 278.776 151.267C278.776 159.273 274.549 165.546 269.15 165.546Z" fill="black"/>
</g>
<path d="M143.485 152.774H287.27C289.198 152.813 291.045 153.554 292.466 154.858C293.886 156.162 294.782 157.939 294.985 159.857L302.947 249.622C303.044 250.523 302.949 251.434 302.667 252.295C302.386 253.156 301.925 253.948 301.314 254.617C300.704 255.287 299.958 255.819 299.127 256.179C298.296 256.539 297.397 256.718 296.492 256.705H152.7C150.773 256.663 148.927 255.922 147.508 254.618C146.088 253.315 145.191 251.539 144.985 249.622L137.03 159.857C136.932 158.956 137.026 158.044 137.308 157.183C137.589 156.321 138.05 155.529 138.66 154.86C139.271 154.19 140.017 153.658 140.849 153.298C141.68 152.938 142.579 152.76 143.485 152.774Z" fill="#00AEF0"/>
<path opacity="0.4" d="M143.485 152.774H287.27C289.198 152.813 291.045 153.554 292.466 154.858C293.886 156.162 294.782 157.939 294.985 159.857L302.947 249.622C303.044 250.523 302.949 251.434 302.667 252.295C302.386 253.156 301.925 253.948 301.314 254.617C300.704 255.287 299.958 255.819 299.127 256.179C298.296 256.539 297.397 256.718 296.492 256.705H152.7C150.773 256.663 148.927 255.922 147.508 254.618C146.088 253.315 145.191 251.539 144.985 249.622L137.03 159.857C136.932 158.956 137.026 158.044 137.308 157.183C137.589 156.321 138.05 155.529 138.66 154.86C139.271 154.19 140.017 153.658 140.849 153.298C141.68 152.938 142.579 152.76 143.485 152.774Z" fill="#FAFAFA"/>
<path d="M286.077 152.774H142.285C140.383 152.796 138.561 153.54 137.186 154.855C135.812 156.169 134.988 157.957 134.88 159.856L130.83 249.622C130.781 250.536 130.92 251.451 131.238 252.31C131.556 253.169 132.045 253.954 132.677 254.617C133.309 255.28 134.069 255.807 134.911 256.166C135.754 256.525 136.661 256.708 137.576 256.704H281.38C283.282 256.681 285.105 255.938 286.479 254.623C287.854 253.308 288.678 251.521 288.785 249.622L292.842 159.856C292.89 158.94 292.75 158.024 292.43 157.164C292.111 156.305 291.62 155.519 290.986 154.856C290.353 154.193 289.591 153.666 288.746 153.308C287.902 152.95 286.994 152.768 286.077 152.774Z" fill="#00AEF0"/>
<path opacity="0.2" d="M286.077 152.774H142.285C140.383 152.796 138.561 153.54 137.186 154.855C135.812 156.169 134.988 157.957 134.88 159.856L130.83 249.622C130.781 250.536 130.92 251.451 131.238 252.31C131.556 253.169 132.045 253.954 132.677 254.617C133.309 255.28 134.069 255.807 134.911 256.166C135.754 256.525 136.661 256.708 137.576 256.704H281.38C283.282 256.681 285.105 255.938 286.479 254.623C287.854 253.308 288.678 251.521 288.785 249.622L292.842 159.856C292.89 158.94 292.75 158.024 292.43 157.164C292.111 156.305 291.62 155.519 290.986 154.856C290.353 154.193 289.591 153.666 288.746 153.308C287.902 152.95 286.994 152.768 286.077 152.774Z" fill="#FAFAFA"/>
<path d="M144.925 232.982L148.273 158.85C148.314 158.122 148.629 157.438 149.156 156.935C149.682 156.431 150.381 156.148 151.109 156.141H276.951C277.301 156.138 277.649 156.208 277.972 156.345C278.295 156.482 278.587 156.683 278.829 156.937C279.071 157.191 279.259 157.491 279.382 157.82C279.504 158.149 279.557 158.499 279.539 158.85L276.185 232.982C276.145 233.71 275.829 234.394 275.303 234.897C274.776 235.401 274.078 235.684 273.349 235.691H147.514C147.163 235.693 146.816 235.624 146.493 235.487C146.17 235.35 145.878 235.149 145.635 234.895C145.393 234.641 145.205 234.341 145.083 234.012C144.961 233.683 144.907 233.333 144.925 232.982Z" fill="#00AEF0"/>
<path opacity="0.1" d="M144.925 232.982L148.273 158.85C148.314 158.122 148.629 157.438 149.156 156.935C149.682 156.431 150.381 156.148 151.109 156.141H276.951C277.301 156.138 277.649 156.208 277.972 156.345C278.295 156.482 278.587 156.683 278.829 156.937C279.071 157.191 279.259 157.491 279.382 157.82C279.504 158.149 279.557 158.499 279.539 158.85L276.185 232.982C276.145 233.71 275.829 234.394 275.303 234.897C274.776 235.401 274.078 235.684 273.349 235.691H147.514C147.163 235.693 146.816 235.624 146.493 235.487C146.17 235.35 145.878 235.149 145.635 234.895C145.393 234.641 145.205 234.341 145.083 234.012C144.961 233.683 144.907 233.333 144.925 232.982Z" fill="#FAFAFA"/>
<path opacity="0.1" d="M141.372 239.034L144.885 161.186C144.925 160.422 145.255 159.703 145.808 159.175C146.361 158.646 147.095 158.349 147.859 158.344H280.011C280.379 158.341 280.744 158.413 281.084 158.556C281.423 158.7 281.729 158.911 281.983 159.177C282.238 159.444 282.435 159.759 282.563 160.105C282.691 160.45 282.746 160.818 282.726 161.186L279.207 239.034C279.167 239.797 278.838 240.516 278.287 241.045C277.735 241.574 277.003 241.873 276.239 241.882H144.074C143.706 241.884 143.342 241.811 143.003 241.667C142.665 241.523 142.359 241.31 142.106 241.044C141.853 240.777 141.657 240.46 141.53 240.115C141.404 239.769 141.35 239.401 141.372 239.034Z" fill="black"/>
<path d="M138.106 245.312L141.771 164.109C141.82 163.315 142.166 162.569 142.741 162.019C143.316 161.469 144.076 161.155 144.872 161.141H282.726C283.111 161.138 283.492 161.213 283.846 161.363C284.201 161.513 284.52 161.734 284.786 162.012C285.052 162.29 285.258 162.619 285.391 162.98C285.524 163.341 285.582 163.725 285.562 164.109L281.878 245.312C281.829 246.106 281.483 246.852 280.908 247.402C280.333 247.952 279.572 248.266 278.777 248.28H140.941C140.557 248.284 140.175 248.209 139.82 248.06C139.466 247.91 139.146 247.689 138.88 247.411C138.614 247.133 138.408 246.803 138.275 246.442C138.142 246.081 138.084 245.696 138.106 245.312Z" fill="#FAFAFA"/>
<path d="M269.137 166.013C268.877 166.013 268.621 165.961 268.383 165.858C268.144 165.756 267.93 165.606 267.752 165.417C267.574 165.229 267.437 165.006 267.348 164.762C267.26 164.518 267.222 164.259 267.238 164C267.262 163.493 267.479 163.013 267.845 162.66C268.211 162.307 268.698 162.107 269.206 162.102C269.465 162.101 269.722 162.154 269.96 162.256C270.198 162.359 270.413 162.509 270.591 162.697C270.769 162.886 270.906 163.109 270.994 163.353C271.083 163.596 271.12 163.855 271.105 164.114C271.081 164.622 270.863 165.101 270.498 165.454C270.132 165.807 269.645 166.007 269.137 166.013Z" fill="#00AEF0"/>
<path d="M246.801 166.013C246.541 166.013 246.285 165.961 246.047 165.858C245.809 165.756 245.594 165.606 245.416 165.417C245.238 165.229 245.101 165.006 245.012 164.762C244.924 164.518 244.886 164.259 244.902 164C244.926 163.493 245.143 163.013 245.509 162.66C245.875 162.307 246.362 162.107 246.87 162.102C247.129 162.101 247.386 162.154 247.624 162.256C247.862 162.359 248.077 162.509 248.255 162.697C248.433 162.886 248.57 163.109 248.658 163.353C248.747 163.596 248.784 163.855 248.769 164.114C248.746 164.623 248.53 165.103 248.163 165.456C247.797 165.809 247.309 166.009 246.801 166.013Z" fill="#00AEF0"/>
<path d="M224.465 166.013C224.205 166.013 223.949 165.961 223.711 165.858C223.473 165.756 223.258 165.606 223.08 165.417C222.902 165.229 222.765 165.006 222.676 164.762C222.588 164.518 222.55 164.259 222.566 164C222.592 163.493 222.809 163.015 223.175 162.662C223.54 162.309 224.026 162.109 224.534 162.102C224.794 162.101 225.05 162.154 225.288 162.256C225.526 162.359 225.741 162.509 225.919 162.697C226.097 162.886 226.234 163.109 226.323 163.353C226.411 163.596 226.449 163.855 226.433 164.114C226.41 164.623 226.194 165.103 225.827 165.456C225.461 165.809 224.973 166.009 224.465 166.013Z" fill="#00AEF0"/>
<path d="M202.137 166.013C201.877 166.013 201.621 165.961 201.383 165.858C201.144 165.756 200.93 165.606 200.752 165.417C200.574 165.229 200.437 165.006 200.348 164.762C200.26 164.518 200.222 164.259 200.238 164C200.265 163.492 200.484 163.014 200.851 162.661C201.217 162.309 201.704 162.109 202.212 162.102C202.472 162.101 202.728 162.154 202.966 162.256C203.205 162.359 203.419 162.509 203.597 162.697C203.775 162.886 203.912 163.109 204.001 163.353C204.089 163.596 204.127 163.855 204.111 164.114C204.088 164.624 203.871 165.105 203.503 165.458C203.136 165.812 202.646 166.01 202.137 166.013Z" fill="#00AEF0"/>
<path d="M179.801 166.013C179.541 166.013 179.285 165.961 179.047 165.858C178.809 165.756 178.594 165.606 178.416 165.417C178.238 165.229 178.101 165.006 178.012 164.762C177.924 164.518 177.886 164.259 177.902 164C177.926 163.493 178.143 163.013 178.509 162.66C178.875 162.307 179.362 162.107 179.87 162.102C180.129 162.101 180.386 162.154 180.624 162.256C180.862 162.359 181.077 162.509 181.255 162.697C181.433 162.886 181.57 163.109 181.658 163.353C181.747 163.596 181.785 163.855 181.769 164.114C181.745 164.622 181.528 165.101 181.162 165.454C180.796 165.807 180.309 166.007 179.801 166.013Z" fill="#00AEF0"/>
<path d="M157.465 166.013C157.205 166.013 156.949 165.961 156.711 165.858C156.473 165.756 156.258 165.606 156.08 165.417C155.902 165.229 155.765 165.006 155.676 164.762C155.588 164.518 155.55 164.259 155.566 164C155.59 163.493 155.807 163.013 156.173 162.66C156.539 162.307 157.026 162.107 157.534 162.102C157.794 162.101 158.05 162.154 158.288 162.256C158.526 162.359 158.741 162.509 158.919 162.697C159.097 162.886 159.234 163.109 159.323 163.353C159.411 163.596 159.449 163.855 159.433 164.114C159.41 164.623 159.194 165.103 158.827 165.456C158.461 165.809 157.973 166.009 157.465 166.013Z" fill="#00AEF0"/>
<g opacity="0.1">
<path d="M269.137 166.013C268.877 166.013 268.621 165.961 268.383 165.858C268.144 165.756 267.93 165.606 267.752 165.417C267.574 165.229 267.437 165.006 267.348 164.762C267.26 164.518 267.222 164.259 267.238 164C267.262 163.493 267.479 163.013 267.845 162.66C268.211 162.307 268.698 162.107 269.206 162.102C269.465 162.101 269.722 162.154 269.96 162.256C270.198 162.359 270.413 162.509 270.591 162.697C270.769 162.886 270.906 163.109 270.994 163.353C271.083 163.596 271.12 163.855 271.105 164.114C271.081 164.622 270.863 165.101 270.498 165.454C270.132 165.807 269.645 166.007 269.137 166.013Z" fill="#FAFAFA"/>
<path d="M246.801 166.013C246.541 166.013 246.285 165.961 246.047 165.858C245.809 165.756 245.594 165.606 245.416 165.417C245.238 165.229 245.101 165.006 245.012 164.762C244.924 164.518 244.886 164.259 244.902 164C244.926 163.493 245.143 163.013 245.509 162.66C245.875 162.307 246.362 162.107 246.87 162.102C247.129 162.101 247.386 162.154 247.624 162.256C247.862 162.359 248.077 162.509 248.255 162.697C248.433 162.886 248.57 163.109 248.658 163.353C248.747 163.596 248.784 163.855 248.769 164.114C248.746 164.623 248.53 165.103 248.163 165.456C247.797 165.809 247.309 166.009 246.801 166.013Z" fill="#FAFAFA"/>
<path d="M224.465 166.013C224.205 166.013 223.949 165.961 223.711 165.858C223.473 165.756 223.258 165.606 223.08 165.417C222.902 165.229 222.765 165.006 222.676 164.762C222.588 164.518 222.55 164.259 222.566 164C222.592 163.493 222.809 163.015 223.175 162.662C223.54 162.309 224.026 162.109 224.534 162.102C224.794 162.101 225.05 162.154 225.288 162.256C225.526 162.359 225.741 162.509 225.919 162.697C226.097 162.886 226.234 163.109 226.323 163.353C226.411 163.596 226.449 163.855 226.433 164.114C226.41 164.623 226.194 165.103 225.827 165.456C225.461 165.809 224.973 166.009 224.465 166.013Z" fill="#FAFAFA"/>
<path d="M202.137 166.013C201.877 166.013 201.621 165.961 201.383 165.858C201.144 165.756 200.93 165.606 200.752 165.417C200.574 165.229 200.437 165.006 200.348 164.762C200.26 164.518 200.222 164.259 200.238 164C200.265 163.492 200.484 163.014 200.851 162.661C201.217 162.309 201.704 162.109 202.212 162.102C202.472 162.101 202.728 162.154 202.966 162.256C203.205 162.359 203.419 162.509 203.597 162.697C203.775 162.886 203.912 163.109 204.001 163.353C204.089 163.596 204.127 163.855 204.111 164.114C204.088 164.624 203.871 165.105 203.503 165.458C203.136 165.812 202.646 166.01 202.137 166.013Z" fill="#FAFAFA"/>
<path d="M179.801 166.013C179.541 166.013 179.285 165.961 179.047 165.858C178.809 165.756 178.594 165.606 178.416 165.417C178.238 165.229 178.101 165.006 178.012 164.762C177.924 164.518 177.886 164.259 177.902 164C177.926 163.493 178.143 163.013 178.509 162.66C178.875 162.307 179.362 162.107 179.87 162.102C180.129 162.101 180.386 162.154 180.624 162.256C180.862 162.359 181.077 162.509 181.255 162.697C181.433 162.886 181.57 163.109 181.658 163.353C181.747 163.596 181.785 163.855 181.769 164.114C181.745 164.622 181.528 165.101 181.162 165.454C180.796 165.807 180.309 166.007 179.801 166.013Z" fill="#FAFAFA"/>
<path d="M157.465 166.013C157.205 166.013 156.949 165.961 156.711 165.858C156.473 165.756 156.258 165.606 156.08 165.417C155.902 165.229 155.765 165.006 155.676 164.762C155.588 164.518 155.55 164.259 155.566 164C155.59 163.493 155.807 163.013 156.173 162.66C156.539 162.307 157.026 162.107 157.534 162.102C157.794 162.101 158.05 162.154 158.288 162.256C158.526 162.359 158.741 162.509 158.919 162.697C159.097 162.886 159.234 163.109 159.323 163.353C159.411 163.596 159.449 163.855 159.433 164.114C159.41 164.623 159.194 165.103 158.827 165.456C158.461 165.809 157.973 166.009 157.465 166.013Z" fill="#FAFAFA"/>
</g>
<path d="M163.046 173.086H151.812C151.649 173.088 151.488 173.055 151.338 172.991C151.188 172.927 151.054 172.832 150.942 172.713C150.831 172.594 150.746 172.453 150.692 172.3C150.638 172.146 150.616 171.983 150.628 171.821C150.641 171.489 150.778 171.174 151.013 170.939C151.248 170.705 151.562 170.567 151.894 170.555H163.128C163.291 170.553 163.453 170.586 163.602 170.65C163.752 170.714 163.887 170.809 163.998 170.928C164.109 171.047 164.194 171.188 164.249 171.341C164.303 171.495 164.324 171.658 164.312 171.821C164.299 172.152 164.162 172.467 163.927 172.702C163.693 172.936 163.378 173.074 163.046 173.086Z" fill="#00AEF0"/>
<path d="M185.382 173.086H174.148C173.985 173.088 173.824 173.055 173.674 172.991C173.524 172.927 173.389 172.832 173.278 172.713C173.167 172.594 173.082 172.453 173.028 172.3C172.974 172.146 172.952 171.983 172.964 171.821C172.977 171.484 173.119 171.164 173.36 170.929C173.602 170.693 173.924 170.559 174.262 170.555H185.49C185.653 170.553 185.814 170.586 185.964 170.65C186.114 170.714 186.249 170.809 186.361 170.928C186.473 171.046 186.559 171.187 186.614 171.341C186.668 171.494 186.691 171.658 186.679 171.821C186.667 172.158 186.525 172.477 186.283 172.712C186.042 172.948 185.719 173.082 185.382 173.086Z" fill="#00AEF0"/>
<path d="M207.716 173.086H196.482C196.319 173.088 196.157 173.055 196.007 172.991C195.857 172.927 195.722 172.832 195.61 172.713C195.499 172.595 195.413 172.454 195.358 172.3C195.303 172.147 195.281 171.983 195.292 171.821C195.305 171.484 195.447 171.164 195.688 170.929C195.93 170.693 196.252 170.559 196.589 170.555H207.83C207.993 170.553 208.154 170.586 208.304 170.65C208.454 170.714 208.588 170.809 208.699 170.928C208.811 171.047 208.896 171.188 208.95 171.341C209.004 171.495 209.026 171.658 209.013 171.821C209.002 172.158 208.861 172.478 208.619 172.714C208.377 172.95 208.054 173.083 207.716 173.086Z" fill="#00AEF0"/>
<path d="M230.046 173.086H218.812C218.649 173.088 218.488 173.055 218.338 172.991C218.188 172.927 218.054 172.832 217.942 172.713C217.831 172.594 217.746 172.453 217.692 172.3C217.638 172.146 217.616 171.983 217.628 171.821C217.641 171.489 217.778 171.174 218.013 170.939C218.248 170.705 218.562 170.567 218.894 170.555H230.128C230.291 170.553 230.453 170.586 230.602 170.65C230.752 170.714 230.887 170.809 230.998 170.928C231.109 171.047 231.194 171.188 231.249 171.341C231.303 171.495 231.324 171.658 231.312 171.821C231.299 172.152 231.162 172.467 230.927 172.702C230.693 172.936 230.378 173.074 230.046 173.086Z" fill="#00AEF0"/>
<path d="M252.382 173.086H241.148C240.985 173.088 240.824 173.055 240.674 172.991C240.524 172.927 240.39 172.832 240.278 172.713C240.167 172.594 240.082 172.453 240.028 172.3C239.974 172.146 239.952 171.983 239.964 171.821C239.977 171.484 240.119 171.164 240.36 170.929C240.602 170.693 240.925 170.559 241.262 170.555H252.496C252.659 170.553 252.82 170.586 252.97 170.65C253.12 170.714 253.254 170.809 253.365 170.928C253.477 171.047 253.562 171.188 253.616 171.341C253.67 171.495 253.692 171.658 253.679 171.821C253.667 172.158 253.525 172.477 253.283 172.712C253.042 172.948 252.719 173.082 252.382 173.086Z" fill="#00AEF0"/>
<path d="M274.718 173.086H263.484C263.321 173.088 263.16 173.055 263.01 172.991C262.86 172.927 262.725 172.832 262.614 172.713C262.503 172.594 262.418 172.453 262.364 172.3C262.31 172.146 262.288 171.983 262.3 171.821C262.313 171.484 262.455 171.164 262.696 170.929C262.938 170.693 263.26 170.559 263.598 170.555H274.826C274.989 170.553 275.15 170.586 275.3 170.65C275.45 170.714 275.585 170.809 275.697 170.928C275.809 171.046 275.895 171.187 275.95 171.341C276.004 171.494 276.027 171.658 276.015 171.821C276.002 172.158 275.861 172.477 275.619 172.712C275.378 172.948 275.055 173.082 274.718 173.086Z" fill="#00AEF0"/>
<g opacity="0.3">
<path d="M163.046 173.086H151.812C151.649 173.088 151.488 173.055 151.338 172.991C151.188 172.927 151.054 172.832 150.942 172.713C150.831 172.594 150.746 172.453 150.692 172.3C150.638 172.146 150.616 171.983 150.628 171.821C150.641 171.489 150.778 171.174 151.013 170.939C151.248 170.705 151.562 170.567 151.894 170.555H163.128C163.291 170.553 163.453 170.586 163.602 170.65C163.752 170.714 163.887 170.809 163.998 170.928C164.109 171.047 164.194 171.188 164.249 171.341C164.303 171.495 164.324 171.658 164.312 171.821C164.299 172.152 164.162 172.467 163.927 172.702C163.693 172.936 163.378 173.074 163.046 173.086Z" fill="black"/>
<path d="M185.382 173.086H174.148C173.985 173.088 173.824 173.055 173.674 172.991C173.524 172.927 173.389 172.832 173.278 172.713C173.167 172.594 173.082 172.453 173.028 172.3C172.974 172.146 172.952 171.983 172.964 171.821C172.977 171.484 173.119 171.164 173.36 170.929C173.602 170.693 173.924 170.559 174.262 170.555H185.49C185.653 170.553 185.814 170.586 185.964 170.65C186.114 170.714 186.249 170.809 186.361 170.928C186.473 171.046 186.559 171.187 186.614 171.341C186.668 171.494 186.691 171.658 186.679 171.821C186.667 172.158 186.525 172.477 186.283 172.712C186.042 172.948 185.719 173.082 185.382 173.086Z" fill="black"/>
<path d="M207.716 173.086H196.482C196.319 173.088 196.157 173.055 196.007 172.991C195.857 172.927 195.722 172.832 195.61 172.713C195.499 172.595 195.413 172.454 195.358 172.3C195.303 172.147 195.281 171.983 195.292 171.821C195.305 171.484 195.447 171.164 195.688 170.929C195.93 170.693 196.252 170.559 196.589 170.555H207.83C207.993 170.553 208.154 170.586 208.304 170.65C208.454 170.714 208.588 170.809 208.699 170.928C208.811 171.047 208.896 171.188 208.95 171.341C209.004 171.495 209.026 171.658 209.013 171.821C209.002 172.158 208.861 172.478 208.619 172.714C208.377 172.95 208.054 173.083 207.716 173.086Z" fill="black"/>
<path d="M230.046 173.086H218.812C218.649 173.088 218.488 173.055 218.338 172.991C218.188 172.927 218.054 172.832 217.942 172.713C217.831 172.594 217.746 172.453 217.692 172.3C217.638 172.146 217.616 171.983 217.628 171.821C217.641 171.489 217.778 171.174 218.013 170.939C218.248 170.705 218.562 170.567 218.894 170.555H230.128C230.291 170.553 230.453 170.586 230.602 170.65C230.752 170.714 230.887 170.809 230.998 170.928C231.109 171.047 231.194 171.188 231.249 171.341C231.303 171.495 231.324 171.658 231.312 171.821C231.299 172.152 231.162 172.467 230.927 172.702C230.693 172.936 230.378 173.074 230.046 173.086Z" fill="black"/>
<path d="M252.382 173.086H241.148C240.985 173.088 240.824 173.055 240.674 172.991C240.524 172.927 240.39 172.832 240.278 172.713C240.167 172.594 240.082 172.453 240.028 172.3C239.974 172.146 239.952 171.983 239.964 171.821C239.977 171.484 240.119 171.164 240.36 170.929C240.602 170.693 240.925 170.559 241.262 170.555H252.496C252.659 170.553 252.82 170.586 252.97 170.65C253.12 170.714 253.254 170.809 253.365 170.928C253.477 171.047 253.562 171.188 253.616 171.341C253.67 171.495 253.692 171.658 253.679 171.821C253.667 172.158 253.525 172.477 253.283 172.712C253.042 172.948 252.719 173.082 252.382 173.086Z" fill="black"/>
<path d="M274.718 173.086H263.484C263.321 173.088 263.16 173.055 263.01 172.991C262.86 172.927 262.725 172.832 262.614 172.713C262.503 172.594 262.418 172.453 262.364 172.3C262.31 172.146 262.288 171.983 262.3 171.821C262.313 171.484 262.455 171.164 262.696 170.929C262.938 170.693 263.26 170.559 263.598 170.555H274.826C274.989 170.553 275.15 170.586 275.3 170.65C275.45 170.714 275.585 170.809 275.697 170.928C275.809 171.046 275.895 171.187 275.95 171.341C276.004 171.494 276.027 171.658 276.015 171.821C276.002 172.158 275.861 172.477 275.619 172.712C275.378 172.948 275.055 173.082 274.718 173.086Z" fill="black"/>
</g>
<path d="M163.667 196.993H149.034C148.713 196.995 148.395 196.93 148.1 196.805C147.805 196.679 147.538 196.494 147.317 196.262C147.095 196.03 146.923 195.755 146.812 195.454C146.7 195.153 146.651 194.833 146.667 194.512L147.3 179.879C147.338 179.214 147.628 178.589 148.109 178.128C148.591 177.668 149.229 177.407 149.895 177.398H164.528C164.849 177.397 165.167 177.461 165.462 177.587C165.757 177.713 166.024 177.897 166.245 178.13C166.467 178.362 166.639 178.637 166.75 178.938C166.862 179.238 166.911 179.559 166.895 179.879L166.262 194.512C166.222 195.177 165.933 195.802 165.451 196.262C164.97 196.722 164.333 196.983 163.667 196.993Z" fill="#00AEF0"/>
<path d="M186.003 196.993H171.371C171.049 196.996 170.731 196.932 170.435 196.807C170.14 196.681 169.873 196.497 169.651 196.264C169.429 196.032 169.257 195.757 169.146 195.455C169.035 195.154 168.986 194.833 169.003 194.512L169.636 179.879C169.675 179.214 169.964 178.589 170.445 178.128C170.927 177.668 171.565 177.407 172.231 177.398H186.883C187.204 177.397 187.522 177.461 187.818 177.587C188.114 177.713 188.381 177.897 188.603 178.129C188.825 178.361 188.997 178.636 189.11 178.937C189.222 179.238 189.272 179.559 189.257 179.879L188.592 194.512C188.555 195.177 188.267 195.803 187.787 196.263C187.306 196.724 186.669 196.985 186.003 196.993Z" fill="#00AEF0"/>
<path d="M208.331 196.993H193.704C193.383 196.995 193.065 196.93 192.769 196.805C192.474 196.679 192.207 196.495 191.985 196.263C191.763 196.031 191.59 195.756 191.478 195.455C191.365 195.154 191.315 194.833 191.331 194.512L191.964 179.879C192.002 179.214 192.291 178.589 192.773 178.128C193.254 177.668 193.893 177.407 194.559 177.398H209.185C209.507 177.396 209.825 177.46 210.12 177.585C210.416 177.711 210.683 177.895 210.905 178.128C211.127 178.36 211.298 178.635 211.41 178.937C211.521 179.238 211.57 179.559 211.552 179.879L210.919 194.512C210.881 195.176 210.593 195.801 210.113 196.262C209.633 196.722 208.996 196.983 208.331 196.993Z" fill="#00AEF0"/>
<path d="M230.664 196.993H216.056C215.735 196.996 215.416 196.932 215.12 196.807C214.824 196.681 214.557 196.497 214.335 196.265C214.112 196.032 213.94 195.757 213.828 195.456C213.716 195.154 213.666 194.833 213.683 194.512L214.316 179.879C214.352 179.215 214.64 178.589 215.121 178.129C215.601 177.668 216.239 177.407 216.904 177.398H231.537C231.858 177.397 232.176 177.461 232.471 177.587C232.767 177.713 233.033 177.897 233.255 178.13C233.476 178.362 233.648 178.637 233.76 178.938C233.871 179.238 233.921 179.559 233.904 179.879L233.271 194.512C233.233 195.18 232.942 195.807 232.458 196.268C231.973 196.729 231.332 196.988 230.664 196.993Z" fill="#00AEF0"/>
<path d="M253.003 196.993H238.37C238.049 196.995 237.731 196.931 237.436 196.805C237.141 196.679 236.874 196.495 236.653 196.262C236.431 196.03 236.259 195.755 236.148 195.454C236.036 195.153 235.987 194.833 236.003 194.512L236.636 179.879C236.674 179.214 236.963 178.589 237.445 178.128C237.927 177.668 238.565 177.407 239.231 177.398H253.857C254.179 177.396 254.497 177.46 254.794 177.585C255.09 177.711 255.357 177.895 255.579 178.127C255.801 178.36 255.974 178.635 256.086 178.936C256.198 179.237 256.247 179.558 256.231 179.879L255.598 194.512C255.558 195.177 255.269 195.802 254.787 196.262C254.306 196.722 253.669 196.983 253.003 196.993Z" fill="#00AEF0"/>
<path d="M275.333 196.993H260.706C260.385 196.996 260.067 196.932 259.771 196.807C259.476 196.681 259.209 196.497 258.987 196.264C258.765 196.032 258.593 195.757 258.482 195.455C258.371 195.154 258.322 194.833 258.339 194.512L258.972 179.879C259.011 179.214 259.3 178.589 259.781 178.128C260.263 177.668 260.901 177.407 261.567 177.398H276.194C276.515 177.397 276.833 177.461 277.129 177.587C277.424 177.713 277.691 177.897 277.913 178.129C278.135 178.361 278.308 178.636 278.42 178.937C278.533 179.238 278.583 179.559 278.567 179.879L277.903 194.512C277.866 195.174 277.581 195.797 277.104 196.257C276.628 196.717 275.995 196.98 275.333 196.993Z" fill="#00AEF0"/>
<g opacity="0.8">
<path d="M163.667 196.993H149.034C148.713 196.995 148.395 196.93 148.1 196.805C147.805 196.679 147.538 196.494 147.317 196.262C147.095 196.03 146.923 195.755 146.812 195.454C146.7 195.153 146.651 194.833 146.667 194.512L147.3 179.879C147.338 179.214 147.628 178.589 148.109 178.128C148.591 177.668 149.229 177.407 149.895 177.398H164.528C164.849 177.397 165.167 177.461 165.462 177.587C165.757 177.713 166.024 177.897 166.245 178.13C166.467 178.362 166.639 178.637 166.75 178.938C166.862 179.238 166.911 179.559 166.895 179.879L166.262 194.512C166.222 195.177 165.933 195.802 165.451 196.262C164.97 196.722 164.333 196.983 163.667 196.993Z" fill="#FAFAFA"/>
<path d="M186.003 196.993H171.371C171.049 196.996 170.731 196.932 170.435 196.807C170.14 196.681 169.873 196.497 169.651 196.264C169.429 196.032 169.257 195.757 169.146 195.455C169.035 195.154 168.986 194.833 169.003 194.512L169.636 179.879C169.675 179.214 169.964 178.589 170.445 178.128C170.927 177.668 171.565 177.407 172.231 177.398H186.883C187.204 177.397 187.522 177.461 187.818 177.587C188.114 177.713 188.381 177.897 188.603 178.129C188.825 178.361 188.997 178.636 189.11 178.937C189.222 179.238 189.272 179.559 189.257 179.879L188.592 194.512C188.555 195.177 188.267 195.803 187.787 196.263C187.306 196.724 186.669 196.985 186.003 196.993Z" fill="#FAFAFA"/>
<path d="M208.331 196.993H193.704C193.383 196.995 193.065 196.93 192.769 196.805C192.474 196.679 192.207 196.495 191.985 196.263C191.763 196.031 191.59 195.756 191.478 195.455C191.365 195.154 191.315 194.833 191.331 194.512L191.964 179.879C192.002 179.214 192.291 178.589 192.773 178.128C193.254 177.668 193.893 177.407 194.559 177.398H209.185C209.507 177.396 209.825 177.46 210.12 177.585C210.416 177.711 210.683 177.895 210.905 178.128C211.127 178.36 211.298 178.635 211.41 178.937C211.521 179.238 211.57 179.559 211.552 179.879L210.919 194.512C210.881 195.176 210.593 195.801 210.113 196.262C209.633 196.722 208.996 196.983 208.331 196.993Z" fill="#FAFAFA"/>
<path d="M230.664 196.993H216.056C215.735 196.996 215.416 196.932 215.12 196.807C214.824 196.681 214.557 196.497 214.335 196.265C214.112 196.032 213.94 195.757 213.828 195.456C213.716 195.154 213.666 194.833 213.683 194.512L214.316 179.879C214.352 179.215 214.64 178.589 215.121 178.129C215.601 177.668 216.239 177.407 216.904 177.398H231.537C231.858 177.397 232.176 177.461 232.471 177.587C232.767 177.713 233.033 177.897 233.255 178.13C233.476 178.362 233.648 178.637 233.76 178.938C233.871 179.238 233.921 179.559 233.904 179.879L233.271 194.512C233.233 195.18 232.942 195.807 232.458 196.268C231.973 196.729 231.332 196.988 230.664 196.993Z" fill="#FAFAFA"/>
<path d="M253.003 196.993H238.37C238.049 196.995 237.731 196.931 237.436 196.805C237.141 196.679 236.874 196.495 236.653 196.262C236.431 196.03 236.259 195.755 236.148 195.454C236.036 195.153 235.987 194.833 236.003 194.512L236.636 179.879C236.674 179.214 236.963 178.589 237.445 178.128C237.927 177.668 238.565 177.407 239.231 177.398H253.857C254.179 177.396 254.497 177.46 254.794 177.585C255.09 177.711 255.357 177.895 255.579 178.127C255.801 178.36 255.974 178.635 256.086 178.936C256.198 179.237 256.247 179.558 256.231 179.879L255.598 194.512C255.558 195.177 255.269 195.802 254.787 196.262C254.306 196.722 253.669 196.983 253.003 196.993Z" fill="#FAFAFA"/>
<path d="M275.333 196.993H260.706C260.385 196.996 260.067 196.932 259.771 196.807C259.476 196.681 259.209 196.497 258.987 196.264C258.765 196.032 258.593 195.757 258.482 195.455C258.371 195.154 258.322 194.833 258.339 194.512L258.972 179.879C259.011 179.214 259.3 178.589 259.781 178.128C260.263 177.668 260.901 177.407 261.567 177.398H276.194C276.515 177.397 276.833 177.461 277.129 177.587C277.424 177.713 277.691 177.897 277.913 178.129C278.135 178.361 278.308 178.636 278.42 178.937C278.533 179.238 278.583 179.559 278.567 179.879L277.903 194.512C277.866 195.174 277.581 195.797 277.104 196.257C276.628 196.717 275.995 196.98 275.333 196.993Z" fill="#FAFAFA"/>
</g>
<path d="M162.644 219.697H148.011C147.69 219.698 147.372 219.634 147.077 219.508C146.781 219.382 146.515 219.198 146.293 218.965C146.072 218.733 145.9 218.458 145.788 218.157C145.677 217.857 145.627 217.536 145.644 217.215L146.277 202.583C146.316 201.918 146.606 201.293 147.087 200.833C147.568 200.373 148.206 200.112 148.872 200.102H163.53C163.851 200.1 164.169 200.164 164.464 200.29C164.759 200.416 165.026 200.6 165.247 200.833C165.469 201.065 165.641 201.34 165.752 201.641C165.864 201.942 165.913 202.262 165.897 202.583L165.264 217.215C165.224 217.884 164.931 218.513 164.444 218.974C163.957 219.435 163.314 219.693 162.644 219.697Z" fill="#00AEF0"/>
<path d="M184.972 219.697H170.339C170.018 219.698 169.7 219.634 169.405 219.508C169.11 219.382 168.843 219.198 168.621 218.965C168.4 218.733 168.228 218.458 168.116 218.157C168.005 217.857 167.955 217.536 167.972 217.216L168.605 202.583C168.643 201.918 168.932 201.292 169.414 200.831C169.895 200.371 170.533 200.11 171.2 200.102H185.826C186.15 200.099 186.471 200.164 186.769 200.29C187.068 200.417 187.336 200.604 187.56 200.839C187.783 201.074 187.955 201.352 188.066 201.656C188.178 201.961 188.225 202.285 188.206 202.608L187.573 217.216C187.536 217.882 187.247 218.51 186.763 218.971C186.28 219.432 185.64 219.691 184.972 219.697Z" fill="#00AEF0"/>
<path d="M207.302 219.697H192.675C192.354 219.699 192.036 219.635 191.74 219.51C191.444 219.384 191.177 219.2 190.956 218.967C190.734 218.735 190.562 218.46 190.451 218.158C190.339 217.857 190.291 217.536 190.308 217.216L190.941 202.583C190.979 201.917 191.268 201.292 191.75 200.831C192.232 200.371 192.87 200.11 193.536 200.102H208.163C208.484 200.099 208.802 200.163 209.098 200.288C209.393 200.414 209.66 200.598 209.882 200.831C210.104 201.063 210.276 201.338 210.387 201.64C210.498 201.941 210.547 202.262 210.53 202.583L209.897 217.216C209.858 217.881 209.569 218.507 209.088 218.967C208.606 219.427 207.968 219.688 207.302 219.697Z" fill="#00AEF0"/>
<path d="M229.643 219.697H215.017C214.696 219.698 214.377 219.634 214.082 219.508C213.786 219.383 213.519 219.198 213.297 218.966C213.075 218.734 212.903 218.459 212.79 218.158C212.678 217.857 212.628 217.537 212.643 217.216L213.276 202.583C213.313 201.918 213.601 201.293 214.081 200.832C214.562 200.371 215.199 200.111 215.865 200.102H230.498C230.824 200.096 231.147 200.158 231.448 200.283C231.749 200.408 232.02 200.595 232.246 200.83C232.471 201.065 232.645 201.345 232.757 201.651C232.869 201.957 232.917 202.283 232.897 202.608L232.264 217.241C232.219 217.906 231.923 218.529 231.437 218.985C230.951 219.441 230.31 219.695 229.643 219.697Z" fill="#00AEF0"/>
<path d="M251.972 219.698H237.339C237.018 219.7 236.7 219.635 236.405 219.51C236.11 219.384 235.843 219.199 235.621 218.967C235.4 218.735 235.228 218.46 235.116 218.159C235.005 217.858 234.955 217.538 234.972 217.217L235.605 202.584C235.638 201.914 235.926 201.282 236.409 200.817C236.893 200.351 237.535 200.087 238.206 200.078H252.839C253.16 200.077 253.478 200.141 253.773 200.267C254.068 200.392 254.335 200.577 254.556 200.809C254.778 201.041 254.95 201.316 255.061 201.617C255.173 201.918 255.222 202.239 255.206 202.559L254.573 217.192C254.539 217.862 254.252 218.494 253.768 218.96C253.285 219.426 252.643 219.69 251.972 219.698Z" fill="#00AEF0"/>
<path d="M274.283 219.697H259.675C259.354 219.699 259.036 219.635 258.74 219.51C258.444 219.384 258.177 219.2 257.956 218.967C257.734 218.735 257.562 218.46 257.451 218.158C257.339 217.857 257.291 217.536 257.308 217.215L257.941 202.583C257.979 201.917 258.269 201.292 258.75 200.831C259.232 200.371 259.87 200.11 260.536 200.102H275.163C275.484 200.1 275.802 200.164 276.097 200.29C276.393 200.416 276.66 200.6 276.882 200.832C277.104 201.064 277.277 201.339 277.389 201.64C277.501 201.941 277.551 202.262 277.536 202.583L276.871 217.215C276.835 217.88 276.547 218.506 276.066 218.966C275.586 219.427 274.948 219.688 274.283 219.697Z" fill="#00AEF0"/>
<g opacity="0.8">
<path d="M162.644 219.697H148.011C147.69 219.698 147.372 219.634 147.077 219.508C146.781 219.382 146.515 219.198 146.293 218.965C146.072 218.733 145.9 218.458 145.788 218.157C145.677 217.857 145.627 217.536 145.644 217.215L146.277 202.583C146.316 201.918 146.606 201.293 147.087 200.833C147.568 200.373 148.206 200.112 148.872 200.102H163.53C163.851 200.1 164.169 200.164 164.464 200.29C164.759 200.416 165.026 200.6 165.247 200.833C165.469 201.065 165.641 201.34 165.752 201.641C165.864 201.942 165.913 202.262 165.897 202.583L165.264 217.215C165.224 217.884 164.931 218.513 164.444 218.974C163.957 219.435 163.314 219.693 162.644 219.697Z" fill="#FAFAFA"/>
<path d="M184.98 219.697H170.347C170.026 219.698 169.708 219.634 169.413 219.508C169.117 219.382 168.851 219.198 168.629 218.965C168.408 218.733 168.236 218.458 168.124 218.157C168.012 217.857 167.963 217.536 167.98 217.216L168.613 202.583C168.651 201.918 168.94 201.292 169.422 200.831C169.903 200.371 170.541 200.11 171.207 200.102H185.834C186.158 200.099 186.479 200.164 186.777 200.29C187.075 200.417 187.344 200.604 187.567 200.839C187.79 201.074 187.963 201.352 188.074 201.656C188.185 201.961 188.233 202.285 188.214 202.608L187.581 217.216C187.544 217.882 187.254 218.51 186.771 218.971C186.288 219.432 185.647 219.691 184.98 219.697Z" fill="#FAFAFA"/>
<path d="M207.31 219.697H192.683C192.362 219.699 192.044 219.635 191.748 219.51C191.452 219.384 191.185 219.2 190.963 218.967C190.742 218.735 190.57 218.46 190.459 218.158C190.347 217.857 190.299 217.536 190.316 217.216L190.949 202.583C190.987 201.917 191.276 201.292 191.758 200.831C192.239 200.371 192.878 200.11 193.544 200.102H208.17C208.492 200.099 208.81 200.163 209.106 200.288C209.401 200.414 209.668 200.598 209.89 200.831C210.112 201.063 210.283 201.338 210.395 201.64C210.506 201.941 210.555 202.262 210.537 202.583L209.905 217.216C209.866 217.881 209.577 218.507 209.095 218.967C208.614 219.427 207.976 219.688 207.31 219.697Z" fill="#FAFAFA"/>
<path d="M229.643 219.697H215.017C214.696 219.698 214.377 219.634 214.082 219.508C213.786 219.383 213.519 219.198 213.297 218.966C213.075 218.734 212.903 218.459 212.79 218.158C212.678 217.857 212.628 217.537 212.643 217.216L213.276 202.583C213.313 201.918 213.601 201.293 214.081 200.832C214.562 200.371 215.199 200.111 215.865 200.102H230.498C230.824 200.096 231.147 200.158 231.448 200.283C231.749 200.408 232.02 200.595 232.246 200.83C232.471 201.065 232.645 201.345 232.757 201.651C232.869 201.957 232.917 202.283 232.897 202.608L232.264 217.241C232.219 217.906 231.923 218.529 231.437 218.985C230.951 219.441 230.31 219.695 229.643 219.697Z" fill="#FAFAFA"/>
<path d="M251.98 219.698H237.347C237.026 219.7 236.708 219.635 236.413 219.51C236.117 219.384 235.851 219.199 235.629 218.967C235.408 218.735 235.236 218.46 235.124 218.159C235.012 217.858 234.963 217.538 234.98 217.217L235.613 202.584C235.646 201.914 235.934 201.282 236.417 200.817C236.9 200.351 237.543 200.087 238.214 200.078H252.847C253.168 200.077 253.485 200.141 253.781 200.267C254.076 200.392 254.343 200.577 254.564 200.809C254.786 201.041 254.958 201.316 255.069 201.617C255.181 201.918 255.23 202.239 255.214 202.559L254.581 217.192C254.547 217.862 254.259 218.494 253.776 218.96C253.293 219.426 252.651 219.69 251.98 219.698Z" fill="#FAFAFA"/>
<path d="M274.291 219.697H259.683C259.362 219.699 259.044 219.635 258.748 219.51C258.452 219.384 258.185 219.2 257.963 218.967C257.742 218.735 257.57 218.46 257.459 218.158C257.347 217.857 257.299 217.536 257.316 217.215L257.949 202.583C257.987 201.917 258.276 201.292 258.758 200.831C259.239 200.371 259.878 200.11 260.544 200.102H275.17C275.492 200.1 275.81 200.164 276.105 200.29C276.401 200.416 276.668 200.6 276.89 200.832C277.112 201.064 277.284 201.339 277.397 201.64C277.509 201.941 277.559 202.262 277.544 202.583L276.879 217.215C276.842 217.88 276.555 218.506 276.074 218.966C275.594 219.427 274.956 219.688 274.291 219.697Z" fill="#FAFAFA"/>
</g>
<path d="M161.625 242.393H146.98C146.659 242.396 146.34 242.332 146.045 242.207C145.749 242.081 145.482 241.897 145.26 241.664C145.039 241.432 144.867 241.157 144.755 240.855C144.644 240.554 144.596 240.233 144.613 239.912L145.246 225.286C145.284 224.621 145.573 223.995 146.055 223.534C146.536 223.074 147.174 222.813 147.841 222.805H162.474C162.795 222.803 163.113 222.866 163.409 222.991C163.704 223.117 163.971 223.301 164.193 223.534C164.415 223.766 164.587 224.042 164.698 224.343C164.809 224.644 164.858 224.965 164.841 225.286L164.208 239.912C164.171 240.576 163.884 241.201 163.405 241.661C162.926 242.121 162.29 242.383 161.625 242.393Z" fill="#00AEF0"/>
<path d="M183.949 242.393H169.316C168.995 242.396 168.676 242.332 168.381 242.207C168.085 242.081 167.818 241.897 167.596 241.664C167.375 241.432 167.203 241.157 167.091 240.855C166.98 240.554 166.931 240.233 166.949 239.912L167.582 225.286C167.619 224.62 167.907 223.993 168.389 223.533C168.871 223.072 169.51 222.812 170.177 222.805H184.803C185.125 222.802 185.444 222.865 185.74 222.99C186.037 223.115 186.304 223.299 186.527 223.532C186.749 223.764 186.922 224.04 187.033 224.341C187.145 224.643 187.194 224.965 187.177 225.286L186.544 239.912C186.508 240.579 186.22 241.206 185.738 241.667C185.256 242.128 184.616 242.388 183.949 242.393Z" fill="#00AEF0"/>
<path d="M206.278 242.393H191.652C191.331 242.396 191.012 242.332 190.717 242.207C190.421 242.081 190.154 241.897 189.932 241.664C189.71 241.432 189.539 241.157 189.427 240.855C189.316 240.554 189.267 240.233 189.285 239.912L189.918 225.286C189.954 224.62 190.243 223.993 190.725 223.533C191.207 223.072 191.846 222.812 192.513 222.805H207.196C207.518 222.803 207.836 222.866 208.132 222.991C208.428 223.117 208.695 223.301 208.918 223.534C209.14 223.766 209.312 224.041 209.424 224.342C209.536 224.644 209.586 224.965 209.569 225.286L208.905 239.912C208.868 240.583 208.575 241.215 208.086 241.676C207.597 242.138 206.95 242.394 206.278 242.393Z" fill="#00AEF0"/>
<path d="M228.612 242.393H213.986C213.664 242.395 213.346 242.332 213.05 242.207C212.754 242.081 212.486 241.897 212.264 241.665C212.042 241.432 211.87 241.157 211.757 240.856C211.645 240.554 211.596 240.233 211.612 239.912L212.245 225.286C212.281 224.621 212.568 223.994 213.049 223.533C213.53 223.072 214.168 222.812 214.834 222.805H229.467C229.788 222.803 230.106 222.866 230.402 222.991C230.698 223.117 230.965 223.301 231.186 223.534C231.408 223.766 231.58 224.042 231.691 224.343C231.803 224.644 231.851 224.965 231.834 225.286L231.201 239.912C231.164 240.577 230.876 241.203 230.396 241.663C229.915 242.124 229.278 242.385 228.612 242.393Z" fill="#00AEF0"/>
<path d="M250.947 242.393H236.308C235.987 242.396 235.669 242.332 235.373 242.207C235.077 242.081 234.81 241.897 234.588 241.664C234.367 241.432 234.195 241.157 234.084 240.855C233.972 240.554 233.924 240.233 233.941 239.912L234.574 225.286C234.612 224.621 234.901 223.995 235.383 223.534C235.864 223.074 236.503 222.813 237.169 222.805H251.802C252.123 222.803 252.441 222.866 252.737 222.991C253.033 223.117 253.299 223.301 253.521 223.534C253.743 223.766 253.915 224.042 254.026 224.343C254.137 224.644 254.186 224.965 254.169 225.286L253.536 239.912C253.498 240.576 253.209 241.201 252.729 241.662C252.249 242.122 251.612 242.383 250.947 242.393Z" fill="#00AEF0"/>
<path d="M273.285 242.393H258.652C258.331 242.396 258.012 242.332 257.717 242.207C257.421 242.081 257.154 241.897 256.932 241.664C256.71 241.432 256.539 241.157 256.427 240.855C256.316 240.554 256.267 240.233 256.285 239.912L256.918 225.286C256.954 224.62 257.243 223.993 257.725 223.533C258.207 223.072 258.846 222.812 259.513 222.805H274.139C274.461 222.803 274.779 222.866 275.075 222.991C275.371 223.117 275.638 223.301 275.861 223.534C276.083 223.766 276.255 224.041 276.367 224.342C276.48 224.644 276.529 224.965 276.513 225.286L275.848 239.912C275.813 240.573 275.529 241.196 275.054 241.656C274.578 242.117 273.946 242.38 273.285 242.393Z" fill="#00AEF0"/>
<g opacity="0.8">
<path d="M161.625 242.393H146.98C146.659 242.396 146.34 242.332 146.045 242.207C145.749 242.081 145.482 241.897 145.26 241.664C145.039 241.432 144.867 241.157 144.755 240.855C144.644 240.554 144.596 240.233 144.613 239.912L145.246 225.286C145.284 224.621 145.573 223.995 146.055 223.534C146.536 223.074 147.174 222.813 147.841 222.805H162.474C162.795 222.803 163.113 222.866 163.409 222.991C163.704 223.117 163.971 223.301 164.193 223.534C164.415 223.766 164.587 224.042 164.698 224.343C164.809 224.644 164.858 224.965 164.841 225.286L164.208 239.912C164.171 240.576 163.884 241.201 163.405 241.661C162.926 242.121 162.29 242.383 161.625 242.393Z" fill="#FAFAFA"/>
<path d="M183.949 242.393H169.316C168.995 242.396 168.676 242.332 168.381 242.207C168.085 242.081 167.818 241.897 167.596 241.664C167.375 241.432 167.203 241.157 167.091 240.855C166.98 240.554 166.931 240.233 166.949 239.912L167.582 225.286C167.619 224.62 167.907 223.993 168.389 223.533C168.871 223.072 169.51 222.812 170.177 222.805H184.803C185.125 222.802 185.444 222.865 185.74 222.99C186.037 223.115 186.304 223.299 186.527 223.532C186.749 223.764 186.922 224.04 187.033 224.341C187.145 224.643 187.194 224.965 187.177 225.286L186.544 239.912C186.508 240.579 186.22 241.206 185.738 241.667C185.256 242.128 184.616 242.388 183.949 242.393Z" fill="#FAFAFA"/>
<path d="M206.278 242.393H191.652C191.331 242.396 191.012 242.332 190.717 242.207C190.421 242.081 190.154 241.897 189.932 241.664C189.71 241.432 189.539 241.157 189.427 240.855C189.316 240.554 189.267 240.233 189.285 239.912L189.918 225.286C189.954 224.62 190.243 223.993 190.725 223.533C191.207 223.072 191.846 222.812 192.513 222.805H207.196C207.518 222.803 207.836 222.866 208.132 222.991C208.428 223.117 208.695 223.301 208.918 223.534C209.14 223.766 209.312 224.041 209.424 224.342C209.536 224.644 209.586 224.965 209.569 225.286L208.905 239.912C208.868 240.583 208.575 241.215 208.086 241.676C207.597 242.138 206.95 242.394 206.278 242.393Z" fill="#FAFAFA"/>
<path d="M228.612 242.393H213.986C213.664 242.395 213.346 242.332 213.05 242.207C212.754 242.081 212.486 241.897 212.264 241.665C212.042 241.432 211.87 241.157 211.757 240.856C211.645 240.554 211.596 240.233 211.612 239.912L212.245 225.286C212.281 224.621 212.568 223.994 213.049 223.533C213.53 223.072 214.168 222.812 214.834 222.805H229.467C229.788 222.803 230.106 222.866 230.402 222.991C230.698 223.117 230.965 223.301 231.186 223.534C231.408 223.766 231.58 224.042 231.691 224.343C231.803 224.644 231.851 224.965 231.834 225.286L231.201 239.912C231.164 240.577 230.876 241.203 230.396 241.663C229.915 242.124 229.278 242.385 228.612 242.393Z" fill="#FAFAFA"/>
<path d="M250.947 242.393H236.308C235.987 242.396 235.669 242.332 235.373 242.207C235.077 242.081 234.81 241.897 234.588 241.664C234.367 241.432 234.195 241.157 234.084 240.855C233.972 240.554 233.924 240.233 233.941 239.912L234.574 225.286C234.612 224.621 234.901 223.995 235.383 223.534C235.864 223.074 236.503 222.813 237.169 222.805H251.802C252.123 222.803 252.441 222.866 252.737 222.991C253.033 223.117 253.299 223.301 253.521 223.534C253.743 223.766 253.915 224.042 254.026 224.343C254.137 224.644 254.186 224.965 254.169 225.286L253.536 239.912C253.498 240.576 253.209 241.201 252.729 241.662C252.249 242.122 251.612 242.383 250.947 242.393Z" fill="#FAFAFA"/>
<path d="M273.285 242.393H258.652C258.331 242.396 258.012 242.332 257.717 242.207C257.421 242.081 257.154 241.897 256.932 241.664C256.71 241.432 256.539 241.157 256.427 240.855C256.316 240.554 256.267 240.233 256.285 239.912L256.918 225.286C256.954 224.62 257.243 223.993 257.725 223.533C258.207 223.072 258.846 222.812 259.513 222.805H274.139C274.461 222.803 274.779 222.866 275.075 222.991C275.371 223.117 275.638 223.301 275.861 223.534C276.083 223.766 276.255 224.041 276.367 224.342C276.48 224.644 276.529 224.965 276.513 225.286L275.848 239.912C275.813 240.573 275.529 241.196 275.054 241.656C274.578 242.117 273.946 242.38 273.285 242.393Z" fill="#FAFAFA"/>
</g>
<path d="M157.48 165.543C152.087 165.543 147.859 159.271 147.859 151.264C147.859 143.258 152.087 136.992 157.48 136.992C162.872 136.992 167.106 143.264 167.106 151.264C167.082 151.64 166.915 151.991 166.641 152.248C166.366 152.506 166.004 152.649 165.628 152.649C165.252 152.649 164.89 152.506 164.616 152.248C164.341 151.991 164.175 151.64 164.151 151.264C164.151 145.131 161.1 139.942 157.48 139.942C153.859 139.942 150.809 145.131 150.809 151.264C150.809 157.397 153.866 162.587 157.48 162.587C157.682 162.574 157.885 162.602 158.075 162.671C158.266 162.739 158.441 162.846 158.589 162.984C158.737 163.123 158.855 163.29 158.935 163.476C159.016 163.662 159.057 163.862 159.057 164.065C159.057 164.268 159.016 164.468 158.935 164.654C158.855 164.84 158.737 165.007 158.589 165.146C158.441 165.284 158.266 165.391 158.075 165.459C157.885 165.528 157.682 165.556 157.48 165.543Z" fill="#00AEF0"/>
<path d="M179.816 165.543C174.423 165.543 170.195 159.271 170.195 151.264C170.195 143.258 174.423 136.992 179.816 136.992C185.208 136.992 189.474 143.264 189.474 151.264C189.449 151.64 189.283 151.991 189.008 152.248C188.734 152.506 188.372 152.649 187.996 152.649C187.62 152.649 187.258 152.506 186.984 152.248C186.709 151.991 186.543 151.64 186.518 151.264C186.518 145.131 183.467 139.942 179.847 139.942C176.227 139.942 173.176 145.131 173.176 151.264C173.176 157.397 176.233 162.587 179.847 162.587C180.222 162.612 180.574 162.778 180.831 163.053C181.088 163.327 181.231 163.689 181.231 164.065C181.231 164.441 181.088 164.803 180.831 165.077C180.574 165.352 180.222 165.518 179.847 165.543H179.816Z" fill="#00AEF0"/>
<path d="M202.134 165.543C196.736 165.543 192.508 159.271 192.508 151.264C192.508 143.258 196.736 136.992 202.134 136.992C207.533 136.992 211.755 143.264 211.755 151.264C211.755 151.655 211.599 152.031 211.323 152.307C211.046 152.584 210.671 152.739 210.28 152.739C209.889 152.739 209.514 152.584 209.237 152.307C208.961 152.031 208.805 151.655 208.805 151.264C208.805 145.131 205.748 139.942 202.134 139.942C198.52 139.942 195.464 145.131 195.464 151.264C195.464 157.397 198.52 162.587 202.134 162.587C202.51 162.612 202.861 162.778 203.119 163.053C203.376 163.327 203.519 163.689 203.519 164.065C203.519 164.441 203.376 164.803 203.119 165.077C202.861 165.352 202.51 165.518 202.134 165.543Z" fill="#00AEF0"/>
<path d="M224.486 165.543C219.087 165.543 214.859 159.271 214.859 151.264C214.859 143.258 219.087 136.992 224.486 136.992C229.885 136.992 234.106 143.264 234.106 151.264C234.106 151.655 233.951 152.031 233.674 152.307C233.398 152.584 233.023 152.739 232.632 152.739C232.24 152.739 231.865 152.584 231.589 152.307C231.312 152.031 231.157 151.655 231.157 151.264C231.157 145.131 228.1 139.942 224.486 139.942C220.872 139.942 217.815 145.131 217.815 151.264C217.815 157.397 220.866 162.587 224.486 162.587C224.861 162.612 225.213 162.778 225.47 163.053C225.727 163.327 225.87 163.689 225.87 164.065C225.87 164.441 225.727 164.803 225.47 165.077C225.213 165.352 224.861 165.518 224.486 165.543Z" fill="#00AEF0"/>
<path d="M246.816 165.543C241.423 165.543 237.195 159.271 237.195 151.264C237.195 143.258 241.423 136.992 246.816 136.992C252.208 136.992 256.442 143.264 256.442 151.264C256.418 151.64 256.251 151.991 255.977 152.248C255.702 152.506 255.34 152.649 254.964 152.649C254.588 152.649 254.226 152.506 253.952 152.248C253.677 151.991 253.511 151.64 253.486 151.264C253.486 145.131 250.436 139.942 246.816 139.942C243.195 139.942 240.145 145.131 240.145 151.264C240.145 157.397 243.202 162.587 246.816 162.587C247.018 162.574 247.221 162.602 247.411 162.671C247.602 162.739 247.777 162.846 247.925 162.984C248.073 163.123 248.191 163.29 248.271 163.476C248.352 163.662 248.393 163.862 248.393 164.065C248.393 164.268 248.352 164.468 248.271 164.654C248.191 164.84 248.073 165.007 247.925 165.146C247.777 165.284 247.602 165.391 247.411 165.459C247.221 165.528 247.018 165.556 246.816 165.543Z" fill="#00AEF0"/>
<path d="M269.152 165.543C263.759 165.543 259.531 159.271 259.531 151.264C259.531 143.258 263.759 136.992 269.152 136.992C274.544 136.992 278.778 143.264 278.778 151.264C278.754 151.64 278.587 151.991 278.313 152.248C278.038 152.506 277.676 152.649 277.3 152.649C276.924 152.649 276.562 152.506 276.288 152.248C276.013 151.991 275.847 151.64 275.822 151.264C275.822 145.131 272.765 139.942 269.152 139.942C265.538 139.942 262.481 145.131 262.481 151.264C262.481 157.397 265.538 162.587 269.152 162.587C269.527 162.612 269.879 162.778 270.136 163.053C270.393 163.327 270.536 163.689 270.536 164.065C270.536 164.441 270.393 164.803 270.136 165.077C269.879 165.352 269.527 165.518 269.152 165.543Z" fill="#00AEF0"/>
<g opacity="0.3">
<path d="M157.48 165.543C152.087 165.543 147.859 159.271 147.859 151.264C147.859 143.258 152.087 136.992 157.48 136.992C162.872 136.992 167.106 143.264 167.106 151.264C167.082 151.64 166.915 151.991 166.641 152.248C166.366 152.506 166.004 152.649 165.628 152.649C165.252 152.649 164.89 152.506 164.616 152.248C164.341 151.991 164.175 151.64 164.151 151.264C164.151 145.131 161.1 139.942 157.48 139.942C153.859 139.942 150.809 145.131 150.809 151.264C150.809 157.397 153.866 162.587 157.48 162.587C157.682 162.574 157.885 162.602 158.075 162.671C158.266 162.739 158.441 162.846 158.589 162.984C158.737 163.123 158.855 163.29 158.935 163.476C159.016 163.662 159.057 163.862 159.057 164.065C159.057 164.268 159.016 164.468 158.935 164.654C158.855 164.84 158.737 165.007 158.589 165.146C158.441 165.284 158.266 165.391 158.075 165.459C157.885 165.528 157.682 165.556 157.48 165.543Z" fill="black"/>
<path d="M179.816 165.543C174.423 165.543 170.195 159.271 170.195 151.264C170.195 143.258 174.423 136.992 179.816 136.992C185.208 136.992 189.474 143.264 189.474 151.264C189.449 151.64 189.283 151.991 189.008 152.248C188.734 152.506 188.372 152.649 187.996 152.649C187.62 152.649 187.258 152.506 186.984 152.248C186.709 151.991 186.543 151.64 186.518 151.264C186.518 145.131 183.467 139.942 179.847 139.942C176.227 139.942 173.176 145.131 173.176 151.264C173.176 157.397 176.233 162.587 179.847 162.587C180.222 162.612 180.574 162.778 180.831 163.053C181.088 163.327 181.231 163.689 181.231 164.065C181.231 164.441 181.088 164.803 180.831 165.077C180.574 165.352 180.222 165.518 179.847 165.543H179.816Z" fill="black"/>
<path d="M202.134 165.543C196.736 165.543 192.508 159.271 192.508 151.264C192.508 143.258 196.736 136.992 202.134 136.992C207.533 136.992 211.755 143.264 211.755 151.264C211.755 151.655 211.599 152.031 211.323 152.307C211.046 152.584 210.671 152.739 210.28 152.739C209.889 152.739 209.514 152.584 209.237 152.307C208.961 152.031 208.805 151.655 208.805 151.264C208.805 145.131 205.748 139.942 202.134 139.942C198.52 139.942 195.464 145.131 195.464 151.264C195.464 157.397 198.52 162.587 202.134 162.587C202.51 162.612 202.861 162.778 203.119 163.053C203.376 163.327 203.519 163.689 203.519 164.065C203.519 164.441 203.376 164.803 203.119 165.077C202.861 165.352 202.51 165.518 202.134 165.543Z" fill="black"/>
<path d="M224.486 165.543C219.087 165.543 214.859 159.271 214.859 151.264C214.859 143.258 219.087 136.992 224.486 136.992C229.885 136.992 234.106 143.264 234.106 151.264C234.106 151.655 233.951 152.031 233.674 152.307C233.398 152.584 233.023 152.739 232.632 152.739C232.24 152.739 231.865 152.584 231.589 152.307C231.312 152.031 231.157 151.655 231.157 151.264C231.157 145.131 228.1 139.942 224.486 139.942C220.872 139.942 217.815 145.131 217.815 151.264C217.815 157.397 220.866 162.587 224.486 162.587C224.861 162.612 225.213 162.778 225.47 163.053C225.727 163.327 225.87 163.689 225.87 164.065C225.87 164.441 225.727 164.803 225.47 165.077C225.213 165.352 224.861 165.518 224.486 165.543Z" fill="black"/>
<path d="M246.816 165.543C241.423 165.543 237.195 159.271 237.195 151.264C237.195 143.258 241.423 136.992 246.816 136.992C252.208 136.992 256.442 143.264 256.442 151.264C256.418 151.64 256.251 151.991 255.977 152.248C255.702 152.506 255.34 152.649 254.964 152.649C254.588 152.649 254.226 152.506 253.952 152.248C253.677 151.991 253.511 151.64 253.486 151.264C253.486 145.131 250.436 139.942 246.816 139.942C243.195 139.942 240.145 145.131 240.145 151.264C240.145 157.397 243.202 162.587 246.816 162.587C247.018 162.574 247.221 162.602 247.411 162.671C247.602 162.739 247.777 162.846 247.925 162.984C248.073 163.123 248.191 163.29 248.271 163.476C248.352 163.662 248.393 163.862 248.393 164.065C248.393 164.268 248.352 164.468 248.271 164.654C248.191 164.84 248.073 165.007 247.925 165.146C247.777 165.284 247.602 165.391 247.411 165.459C247.221 165.528 247.018 165.556 246.816 165.543Z" fill="black"/>
<path d="M269.152 165.543C263.759 165.543 259.531 159.271 259.531 151.264C259.531 143.258 263.759 136.992 269.152 136.992C274.544 136.992 278.778 143.264 278.778 151.264C278.754 151.64 278.587 151.991 278.313 152.248C278.038 152.506 277.676 152.649 277.3 152.649C276.924 152.649 276.562 152.506 276.288 152.248C276.013 151.991 275.847 151.64 275.822 151.264C275.822 145.131 272.765 139.942 269.152 139.942C265.538 139.942 262.481 145.131 262.481 151.264C262.481 157.397 265.538 162.587 269.152 162.587C269.527 162.612 269.879 162.778 270.136 163.053C270.393 163.327 270.536 163.689 270.536 164.065C270.536 164.441 270.393 164.803 270.136 165.077C269.879 165.352 269.527 165.518 269.152 165.543Z" fill="black"/>
</g>
<path d="M225.984 197.81C220.82 196.785 215.022 197.981 212.953 203.424C211.288 207.804 213.421 212.55 218.016 213.709C222.067 214.728 229.054 213.481 230.497 208.81C232.149 203.468 225.434 201.734 221.668 201.417C220.535 201.322 220.541 203.095 221.668 203.19C223.383 203.335 225.345 203.43 226.864 204.373C230.029 206.354 228.725 209.531 226.029 211.05C223.333 212.569 219.2 212.949 216.535 211.266C213.624 209.411 213.529 205.335 215.269 202.677C217.554 199.164 221.725 198.772 225.484 199.512C226.598 199.734 227.073 198.025 225.953 197.804L225.984 197.81Z" fill="#00AEF0"/>
<path opacity="0.1" d="M225.984 197.81C220.82 196.785 215.022 197.981 212.953 203.424C211.288 207.804 213.421 212.55 218.016 213.709C222.067 214.728 229.054 213.481 230.497 208.81C232.149 203.468 225.434 201.734 221.668 201.417C220.535 201.322 220.541 203.095 221.668 203.19C223.383 203.335 225.345 203.43 226.864 204.373C230.029 206.354 228.725 209.531 226.029 211.05C223.333 212.569 219.2 212.949 216.535 211.266C213.624 209.411 213.529 205.335 215.269 202.677C217.554 199.164 221.725 198.772 225.484 199.512C226.598 199.734 227.073 198.025 225.953 197.804L225.984 197.81Z" fill="#FAFAFA"/>
<path d="M168.997 177.426C173.936 183.974 179.443 190.073 185.453 195.654C186.288 196.432 187.548 195.179 186.719 194.388C180.812 188.917 175.396 182.939 170.535 176.521C169.858 175.622 168.32 176.521 169.01 177.413L168.997 177.426Z" fill="#00AEF0"/>
<path d="M170.832 194.908C174.566 188.269 181.104 182.604 187.288 178.269C188.212 177.636 187.332 176.079 186.395 176.737C179.965 181.256 173.205 187.092 169.307 194.009C169.2 194.211 169.174 194.446 169.236 194.666C169.298 194.885 169.443 195.072 169.639 195.188C169.836 195.304 170.07 195.34 170.292 195.287C170.514 195.235 170.707 195.099 170.832 194.908Z" fill="#00AEF0"/>
<g opacity="0.2">
<path d="M168.997 177.426C173.936 183.974 179.443 190.073 185.453 195.654C186.288 196.432 187.548 195.179 186.719 194.388C180.812 188.917 175.396 182.939 170.535 176.521C169.858 175.622 168.32 176.521 169.01 177.413L168.997 177.426Z" fill="black"/>
<path d="M170.824 194.916C174.558 188.277 181.096 182.612 187.28 178.277C188.204 177.644 187.324 176.087 186.387 176.745C179.957 181.264 173.197 187.099 169.299 194.017C169.192 194.219 169.167 194.454 169.229 194.673C169.291 194.893 169.435 195.08 169.632 195.196C169.828 195.312 170.062 195.347 170.284 195.295C170.506 195.243 170.7 195.107 170.824 194.916Z" fill="black"/>
</g>
<path d="M239.389 183.086H250.94C251.161 183.067 251.367 182.966 251.518 182.803C251.668 182.639 251.751 182.425 251.751 182.203C251.751 181.981 251.668 181.767 251.518 181.604C251.367 181.44 251.161 181.339 250.94 181.32H239.389C239.168 181.339 238.962 181.44 238.812 181.604C238.661 181.767 238.578 181.981 238.578 182.203C238.578 182.425 238.661 182.639 238.812 182.803C238.962 182.966 239.168 183.067 239.389 183.086Z" fill="#00AEF0"/>
<path d="M239.261 186.374H245.957C246.192 186.374 246.418 186.28 246.584 186.114C246.75 185.948 246.843 185.723 246.843 185.488C246.843 185.253 246.75 185.027 246.584 184.861C246.418 184.695 246.192 184.602 245.957 184.602H239.261C239.026 184.602 238.801 184.695 238.635 184.861C238.468 185.027 238.375 185.253 238.375 185.488C238.375 185.723 238.468 185.948 238.635 186.114C238.801 186.28 239.026 186.374 239.261 186.374Z" fill="#00AEF0"/>
<g opacity="0.1">
<path d="M239.397 183.086H250.948C251.169 183.067 251.375 182.966 251.525 182.803C251.676 182.639 251.759 182.425 251.759 182.203C251.759 181.981 251.676 181.767 251.525 181.604C251.375 181.44 251.169 181.339 250.948 181.32H239.397C239.176 181.339 238.97 181.44 238.82 181.604C238.669 181.767 238.586 181.981 238.586 182.203C238.586 182.425 238.669 182.639 238.82 182.803C238.97 182.966 239.176 183.067 239.397 183.086Z" fill="#FAFAFA"/>
<path d="M239.261 186.374H245.957C246.192 186.374 246.418 186.28 246.584 186.114C246.75 185.948 246.843 185.723 246.843 185.488C246.843 185.253 246.75 185.027 246.584 184.861C246.418 184.695 246.192 184.602 245.957 184.602H239.261C239.026 184.602 238.801 184.695 238.635 184.861C238.468 185.027 238.375 185.253 238.375 185.488C238.375 185.723 238.468 185.948 238.635 186.114C238.801 186.28 239.026 186.374 239.261 186.374Z" fill="#FAFAFA"/>
</g>
<path d="M170.206 228.428H180.111C180.346 228.428 180.572 228.335 180.738 228.169C180.904 228.003 180.998 227.777 180.998 227.542C180.998 227.307 180.904 227.082 180.738 226.916C180.572 226.75 180.346 226.656 180.111 226.656H170.206C169.971 226.656 169.746 226.75 169.58 226.916C169.414 227.082 169.32 227.307 169.32 227.542C169.32 227.777 169.414 228.003 169.58 228.169C169.746 228.335 169.971 228.428 170.206 228.428Z" fill="#00AEF0"/>
<path d="M169.855 232.233H182.703C182.938 232.233 183.163 232.14 183.329 231.974C183.496 231.807 183.589 231.582 183.589 231.347C183.589 231.112 183.496 230.887 183.329 230.72C183.163 230.554 182.938 230.461 182.703 230.461H169.855C169.62 230.461 169.394 230.554 169.228 230.72C169.062 230.887 168.969 231.112 168.969 231.347C168.969 231.582 169.062 231.807 169.228 231.974C169.394 232.14 169.62 232.233 169.855 232.233Z" fill="#00AEF0"/>
<path d="M169.855 236.147H176.279C176.514 236.147 176.739 236.054 176.905 235.888C177.072 235.721 177.165 235.496 177.165 235.261C177.165 235.026 177.072 234.801 176.905 234.635C176.739 234.468 176.514 234.375 176.279 234.375H169.855C169.62 234.375 169.394 234.468 169.228 234.635C169.062 234.801 168.969 235.026 168.969 235.261C168.969 235.496 169.062 235.721 169.228 235.888C169.394 236.054 169.62 236.147 169.855 236.147Z" fill="#00AEF0"/>
<g opacity="0.1">
<path d="M170.206 228.428H180.111C180.346 228.428 180.572 228.335 180.738 228.169C180.904 228.003 180.998 227.777 180.998 227.542C180.998 227.307 180.904 227.082 180.738 226.916C180.572 226.75 180.346 226.656 180.111 226.656H170.206C169.971 226.656 169.746 226.75 169.58 226.916C169.414 227.082 169.32 227.307 169.32 227.542C169.32 227.777 169.414 228.003 169.58 228.169C169.746 228.335 169.971 228.428 170.206 228.428Z" fill="#FAFAFA"/>
<path d="M169.855 232.233H182.703C182.938 232.233 183.163 232.14 183.329 231.974C183.496 231.807 183.589 231.582 183.589 231.347C183.589 231.112 183.496 230.887 183.329 230.72C183.163 230.554 182.938 230.461 182.703 230.461H169.855C169.62 230.461 169.394 230.554 169.228 230.72C169.062 230.887 168.969 231.112 168.969 231.347C168.969 231.582 169.062 231.807 169.228 231.974C169.394 232.14 169.62 232.233 169.855 232.233Z" fill="#FAFAFA"/>
<path d="M169.855 236.147H176.279C176.514 236.147 176.739 236.054 176.905 235.888C177.072 235.721 177.165 235.496 177.165 235.261C177.165 235.026 177.072 234.801 176.905 234.635C176.739 234.468 176.514 234.375 176.279 234.375H169.855C169.62 234.375 169.394 234.468 169.228 234.635C169.062 234.801 168.969 235.026 168.969 235.261C168.969 235.496 169.062 235.721 169.228 235.888C169.394 236.054 169.62 236.147 169.855 236.147Z" fill="#FAFAFA"/>
</g>
<path d="M100.355 129.063L103.348 128.93L101.994 134.626C100.926 133.894 99.952 133.033 99.0953 132.063C98.8482 131.772 98.7256 131.396 98.754 131.016C98.7825 130.635 98.9597 130.282 99.2472 130.031L100.355 129.063Z" fill="#E4897B"/>
<path d="M106.821 131.999L105.48 136.632L101.992 134.613L103.347 128.93L106.821 131.999Z" fill="#E4897B"/>
<path d="M106.235 104.495L100.109 105.062L114.159 256.8L120.285 256.232L106.235 104.495Z" fill="#00AEF0"/>
<path opacity="0.3" d="M106.235 104.495L100.109 105.062L114.159 256.8L120.285 256.232L106.235 104.495Z" fill="black"/>
<path d="M118.485 103.355L112.359 103.922L126.409 255.659L132.535 255.092L118.485 103.355Z" fill="#00AEF0"/>
<path opacity="0.3" d="M118.485 103.355L112.359 103.922L126.409 255.659L132.535 255.092L118.485 103.355Z" fill="black"/>
<path d="M112.36 103.925L106.234 104.492L120.284 256.229L126.41 255.662L112.36 103.925Z" fill="#00AEF0"/>
<path opacity="0.1" d="M112.36 103.925L106.234 104.492L120.284 256.229L126.41 255.662L112.36 103.925Z" fill="black"/>
<path d="M111.071 93.3125L105.559 93.8252L100.109 105.059L118.489 103.357L111.071 93.3125Z" fill="#00AEF0"/>
<g opacity="0.8">
<path d="M111.071 93.3125L105.559 93.8252L100.109 105.059L118.489 103.357L111.071 93.3125Z" fill="#FAFAFA"/>
</g>
<path d="M107.89 89.0078L105.555 93.8243L111.067 93.3116L107.89 89.0078Z" fill="#263238"/>
<path d="M154.211 97.5859C154.844 98.2188 155.369 98.8201 155.913 99.4847C156.457 100.149 156.976 100.75 157.495 101.383C158.54 102.649 159.514 103.985 160.464 105.345C162.421 108.112 164.072 111.083 165.388 114.206C165.546 114.611 165.692 115.035 165.844 115.472L166.071 116.105C166.197 116.484 166.286 116.874 166.337 117.269C166.475 118.529 166.307 119.803 165.85 120.985C165.167 122.729 164.21 124.353 163.014 125.795C160.901 128.381 158.468 130.689 155.774 132.662L153.388 130.13C155.266 127.783 156.983 125.311 158.527 122.732C159.204 121.63 159.723 120.439 160.071 119.194C160.168 118.888 160.179 118.562 160.103 118.25L159.888 117.782C159.742 117.472 159.616 117.149 159.457 116.845C158.118 114.246 156.55 111.77 154.774 109.447C153.888 108.238 152.951 107.061 152.002 105.883C151.527 105.301 151.046 104.719 150.552 104.149L149.109 102.485L154.211 97.5859Z" fill="#E4897B"/>
<path d="M149.555 132.064L152.251 137.399L154.89 135.127L152.726 131.336L149.555 132.064Z" fill="#E4897B"/>
<path d="M129.245 100.714C127.604 103.841 125.899 106.932 124.131 109.986C123.264 111.524 122.353 113.037 121.466 114.562L120.106 116.841L119.764 117.41C119.593 117.683 119.403 118.005 119.232 118.221C119.061 118.436 118.891 118.695 118.726 118.891C118.561 119.088 118.384 119.309 118.22 119.493C116.941 120.885 115.58 122.2 114.144 123.429C112.758 124.613 111.372 125.765 109.941 126.86C107.112 129.069 104.207 131.126 101.194 133.088L99.0234 130.353L106.523 122.967C107.751 121.702 108.992 120.512 110.163 119.259C111.313 118.079 112.397 116.837 113.41 115.537C113.532 115.385 113.639 115.24 113.732 115.1C113.84 114.948 113.916 114.822 113.992 114.695C114.057 114.593 114.116 114.488 114.169 114.379L114.46 113.79L115.631 111.404C116.435 109.828 117.22 108.24 118.036 106.676C119.652 103.524 121.34 100.408 123.099 97.3281L129.245 100.714Z" fill="#E4897B"/>
<path d="M147.017 79.3323C146.934 79.6994 147.067 80.0475 147.301 80.1108C147.536 80.1741 147.795 79.9209 147.877 79.5538C147.96 79.1867 147.82 78.8386 147.586 78.7753C147.352 78.712 147.074 78.9652 147.017 79.3323Z" fill="#263238"/>
<path d="M147.023 80.0391C147.221 81.2735 147.583 82.4761 148.099 83.615C147.808 83.7303 147.495 83.7804 147.182 83.7618C146.869 83.7433 146.565 83.6564 146.289 83.5074L147.023 80.0391Z" fill="#DE5753"/>
<path d="M147.979 77.1085C147.934 77.1087 147.89 77.0954 147.853 77.0706C147.619 76.9277 147.354 76.8438 147.081 76.8262C146.807 76.8085 146.533 76.8576 146.283 76.9693C146.229 76.9906 146.168 76.99 146.114 76.9676C146.059 76.9452 146.016 76.9027 145.992 76.849C145.971 76.7944 145.971 76.7336 145.994 76.6793C146.016 76.6251 146.059 76.5816 146.112 76.5579C146.432 76.4205 146.781 76.3626 147.128 76.389C147.475 76.4155 147.811 76.5256 148.106 76.7098C148.13 76.7257 148.151 76.7463 148.167 76.7703C148.183 76.7943 148.194 76.8213 148.199 76.8496C148.204 76.878 148.204 76.9071 148.198 76.9353C148.191 76.9634 148.18 76.9901 148.163 77.0136C148.142 77.0431 148.115 77.0672 148.083 77.0838C148.051 77.1003 148.015 77.1088 147.979 77.1085Z" fill="#263238"/>
<path d="M134.206 80.7344C135.003 84.1394 135.908 90.3673 133.617 92.6394C133.617 92.6394 134.68 96.0888 141.003 96.0888C147.965 96.0888 144.168 92.6394 144.168 92.6394C140.339 91.7344 140.326 88.9179 140.883 86.2787L134.206 80.7344Z" fill="#E4897B"/>
<path d="M132.759 93.8168C132.215 92.7282 131.62 91.475 132.759 91.0826C133.987 90.6523 140.804 90.2155 143.19 91.0193C143.825 91.1894 144.37 91.6004 144.708 92.1651C145.046 92.7299 145.151 93.404 145 94.0447L132.759 93.8168Z" fill="#00AEF0"/>
<path opacity="0.6" d="M132.759 93.8168C132.215 92.7282 131.62 91.475 132.759 91.0826C133.987 90.6523 140.804 90.2155 143.19 91.0193C143.825 91.1894 144.37 91.6004 144.708 92.1651C145.046 92.7299 145.151 93.404 145 94.0447L132.759 93.8168Z" fill="#FAFAFA"/>
<path d="M123.651 252.614C123.243 252.612 122.835 252.567 122.436 252.481C122.416 252.478 122.397 252.468 122.382 252.453C122.367 252.438 122.357 252.419 122.354 252.399C122.35 252.378 122.351 252.356 122.359 252.336C122.367 252.315 122.381 252.298 122.398 252.285C122.449 252.247 123.664 251.374 124.373 251.526C124.449 251.539 124.522 251.569 124.585 251.614C124.649 251.659 124.702 251.717 124.74 251.785C124.797 251.861 124.828 251.953 124.828 252.048C124.828 252.142 124.797 252.235 124.74 252.31C124.588 252.557 124.126 252.614 123.651 252.614ZM122.746 252.323C123.442 252.437 124.392 252.437 124.582 252.177C124.582 252.177 124.658 252.076 124.55 251.893C124.527 251.852 124.495 251.818 124.456 251.791C124.418 251.765 124.374 251.748 124.328 251.741C123.754 251.778 123.203 251.985 122.746 252.336V252.323Z" fill="#FAFAFA"/>
<path d="M122.459 252.501H122.402C122.386 252.492 122.372 252.478 122.363 252.461C122.355 252.444 122.35 252.425 122.352 252.406C122.352 252.349 122.409 251.008 122.934 250.564C122.997 250.508 123.072 250.466 123.152 250.441C123.233 250.415 123.319 250.408 123.402 250.419C123.488 250.419 123.57 250.448 123.636 250.503C123.702 250.557 123.747 250.633 123.763 250.716C123.864 251.235 122.978 252.248 122.497 252.508L122.459 252.501ZM123.326 250.602C123.235 250.604 123.148 250.637 123.08 250.697C122.769 251.123 122.597 251.633 122.586 252.159C123.042 251.799 123.605 251.033 123.548 250.729C123.548 250.697 123.548 250.621 123.377 250.602H123.326Z" fill="#FAFAFA"/>
<path d="M151.575 252.613C151.095 252.613 150.616 252.568 150.145 252.48C150.123 252.476 150.102 252.466 150.086 252.45C150.07 252.434 150.06 252.413 150.056 252.391C150.053 252.369 150.056 252.347 150.065 252.327C150.074 252.306 150.088 252.289 150.107 252.277C150.341 252.144 152.404 250.961 152.904 251.777C152.954 251.849 152.981 251.934 152.981 252.021C152.981 252.108 152.954 252.193 152.904 252.265C152.765 252.543 152.17 252.613 151.575 252.613ZM150.493 252.315C151.366 252.442 152.543 252.423 152.746 252.138C152.746 252.138 152.809 252.049 152.714 251.891C152.436 251.442 151.183 251.98 150.493 252.328V252.315Z" fill="#FAFAFA"/>
<path d="M150.163 252.498C150.142 252.504 150.121 252.504 150.1 252.498C150.084 252.487 150.072 252.471 150.064 252.454C150.056 252.436 150.053 252.416 150.056 252.397C150.056 252.346 150.132 251.093 150.688 250.606C150.773 250.528 150.874 250.471 150.983 250.438C151.093 250.405 151.208 250.398 151.321 250.416C151.632 250.447 151.72 250.606 151.739 250.732C151.828 251.27 150.771 252.251 150.214 252.504L150.163 252.498ZM151.226 250.599C151.086 250.598 150.95 250.65 150.847 250.745C150.514 251.152 150.321 251.656 150.296 252.182C150.853 251.84 151.562 251.061 151.518 250.739C151.518 250.707 151.518 250.625 151.29 250.599H151.226Z" fill="#FAFAFA"/>
<path d="M145.055 252.383H149.707L149.751 241.617H145.105L145.055 252.383Z" fill="#E4897B"/>
<path d="M117.133 252.383H121.785L123.709 241.617H119.057L117.133 252.383Z" fill="#E4897B"/>
<path d="M122.094 251.844H116.872C116.78 251.843 116.69 251.874 116.62 251.934C116.549 251.993 116.502 252.075 116.486 252.167L115.727 256.299C115.711 256.402 115.718 256.507 115.747 256.606C115.776 256.706 115.826 256.798 115.894 256.876C115.962 256.955 116.046 257.017 116.141 257.06C116.236 257.102 116.338 257.123 116.442 257.122C118.265 257.091 119.145 256.983 121.442 256.983C122.853 256.983 125.771 257.135 127.727 257.135C129.683 257.135 129.853 255.236 129.05 255.027C125.436 254.243 124.043 253.16 122.86 252.135C122.649 251.948 122.376 251.844 122.094 251.844Z" fill="#263238"/>
<path d="M149.649 251.844H144.586C144.493 251.843 144.404 251.874 144.333 251.934C144.262 251.993 144.215 252.075 144.2 252.167L143.44 256.299C143.422 256.401 143.427 256.506 143.455 256.605C143.482 256.705 143.531 256.797 143.598 256.876C143.665 256.955 143.749 257.017 143.843 257.06C143.937 257.103 144.039 257.124 144.143 257.122C145.972 257.091 148.611 256.983 150.915 256.983C153.611 256.983 155.94 257.135 159.098 257.135C160.997 257.135 161.459 255.236 160.655 255.027C156.984 254.23 154.01 254.148 150.794 252.211C150.454 251.984 150.058 251.857 149.649 251.844Z" fill="#263238"/>
<path d="M124.751 93.6884C120.429 94.6884 115.891 106.568 115.891 106.568L124.872 112.568C126.934 109.442 128.741 106.155 130.277 102.739C132.65 97.3024 129.163 92.6694 124.751 93.6884Z" fill="#00AEF0"/>
<path opacity="0.7" d="M124.751 93.6884C120.429 94.6884 115.891 106.568 115.891 106.568L124.872 112.568C126.934 109.442 128.741 106.155 130.277 102.739C132.65 97.3024 129.163 92.6694 124.751 93.6884Z" fill="black"/>
<path d="M128.168 101.266L124.453 112.285L124.877 112.569C124.877 112.569 126.573 110.038 128.377 106.664L128.168 101.266Z" fill="#00AEF0"/>
<path opacity="0.8" d="M128.168 101.266L124.453 112.285L124.877 112.569C124.877 112.569 126.573 110.038 128.377 106.664L128.168 101.266Z" fill="black"/>
<path d="M153.756 114.459C153.718 119.649 153.408 126.105 152.636 134.117H127.763C127.44 130.32 129.123 111.674 124.75 93.687C127.486 93.1567 130.253 92.8058 133.035 92.6364C136.555 92.4337 140.084 92.4337 143.604 92.6364C146.032 92.8724 148.438 93.2956 150.801 93.9022C150.801 93.9022 152.927 96.206 153.573 107.01C153.699 109.168 153.769 111.624 153.756 114.459Z" fill="#00AEF0"/>
<path opacity="0.7" d="M153.756 114.459C153.718 119.649 153.408 126.105 152.636 134.117H127.763C127.44 130.32 129.123 111.674 124.75 93.687C127.486 93.1567 130.253 92.8058 133.035 92.6364C136.555 92.4337 140.084 92.4337 143.604 92.6364C146.032 92.8724 148.438 93.2956 150.801 93.9022C150.801 93.9022 152.927 96.206 153.573 107.01C153.699 109.168 153.769 111.624 153.756 114.459Z" fill="black"/>
<path d="M153.759 114.463C152.252 111.716 149.518 106.203 149.904 103.07L153.575 107.045C153.702 109.172 153.771 111.627 153.759 114.463Z" fill="#00AEF0"/>
<path opacity="0.8" d="M153.759 114.463C152.252 111.716 149.518 106.203 149.904 103.07L153.575 107.045C153.702 109.172 153.771 111.627 153.759 114.463Z" fill="black"/>
<path d="M145.933 98.1266C145.541 102.557 155.585 113.215 155.585 113.215L163.636 106.658C161.527 103.1 159.001 99.8066 156.11 96.8481C151.401 92.2975 146.376 93.1646 145.933 98.1266Z" fill="#00AEF0"/>
<path opacity="0.7" d="M145.933 98.1266C145.541 102.557 155.585 113.215 155.585 113.215L163.636 106.658C161.527 103.1 159.001 99.8066 156.11 96.8481C151.401 92.2975 146.376 93.1646 145.933 98.1266Z" fill="black"/>
<path d="M149.749 241.625L149.724 247.169H145.078L145.097 241.625H149.749Z" fill="#CE6F64"/>
<path d="M119.056 241.625H123.708L122.714 247.169H118.062L119.056 241.625Z" fill="#CE6F64"/>
<path d="M135.046 75.4922C134.369 80.0745 133.743 82.7074 135.502 85.6188C136.061 86.5616 136.868 87.3334 137.835 87.8505C138.801 88.3676 139.891 88.6103 140.986 88.5523C142.081 88.4942 143.138 88.1377 144.045 87.5213C144.952 86.9049 145.672 86.0522 146.129 85.0555C147.945 81.258 148.755 74.3973 144.762 71.4985C143.919 70.8478 142.92 70.4305 141.865 70.2885C140.809 70.1466 139.735 70.2849 138.751 70.6897C137.766 71.0945 136.905 71.7515 136.255 72.5945C135.605 73.4375 135.188 74.4369 135.046 75.4922Z" fill="#E4897B"/>
<path d="M148.81 73.3201C147.441 74.0682 145.934 74.5311 144.38 74.6809C143.222 79.9783 140.14 86.0733 135.152 84.3201C133.253 83.6872 131.355 79.0859 131.159 75.0037C130.829 75.4024 130.608 75.9214 130.437 76.1366C130.152 74.3223 130.358 72.465 131.032 70.7568C132.412 66.8454 133.329 69.4404 134.829 67.0669C135.798 65.4973 137.519 64.6872 140.526 64.5859C139.684 65.0226 139.526 65.7252 140.772 65.6239C142.019 65.5226 147.342 65.2315 150.443 67.3264C148.348 67.8011 149.627 71.1239 152.424 69.3518C151.405 71.0037 150.14 72.5733 148.81 73.3201Z" fill="#263238"/>
<path d="M140.797 78.3247C140.815 79.4899 141.205 80.6189 141.911 81.5462C142.854 82.7614 143.936 82.1791 144.196 80.812C144.423 79.5968 144.196 77.4956 143.018 76.7614C141.841 76.0272 140.791 76.9323 140.797 78.3247Z" fill="#E4897B"/>
<path d="M135.126 67.5628C134.495 67.5227 133.883 67.3288 133.343 66.9978C132.804 66.6669 132.353 66.209 132.031 65.6641C132.031 65.6641 131.949 69.3729 135.126 67.5628Z" fill="#1E2A4C"/>
<path d="M143.808 134.119C143.808 134.119 139.909 169.651 137.523 182.961C134.915 197.518 124.865 246.1 124.865 246.1H116.32C116.32 246.1 122.384 198.714 123.649 184.258C125.01 168.594 127.789 134.094 127.789 134.094L143.808 134.119Z" fill="#00AEF0"/>
<path opacity="0.6" d="M143.808 134.119C143.808 134.119 139.909 169.651 137.523 182.961C134.915 197.518 124.865 246.1 124.865 246.1H116.32C116.32 246.1 122.384 198.714 123.649 184.258C125.01 168.594 127.789 134.094 127.789 134.094L143.808 134.119Z" fill="#FAFAFA"/>
<path d="M126.079 242.961C126.117 242.961 125.326 246.233 125.326 246.233H115.75L115.813 243.315L126.079 242.961Z" fill="#00AEF0"/>
<path opacity="0.1" d="M126.079 242.961C126.117 242.961 125.326 246.233 125.326 246.233H115.75L115.813 243.315L126.079 242.961Z" fill="#FAFAFA"/>
<path d="M140.966 146.776C134.909 147.972 136.434 170.725 137.618 182.428C139.061 174.156 141.023 158.238 142.345 146.94C141.917 146.732 141.431 146.674 140.966 146.776Z" fill="#00AEF0"/>
<path opacity="0.4" d="M140.966 146.776C134.909 147.972 136.434 170.725 137.618 182.428C139.061 174.156 141.023 158.238 142.345 146.94C141.917 146.732 141.431 146.674 140.966 146.776Z" fill="#FAFAFA"/>
<path d="M152.629 134.117C152.629 134.117 154.617 168.877 154.655 183.06C154.699 197.807 151.414 246.098 151.414 246.098H143.534C143.534 246.098 141.414 198.668 140.503 184.187C139.515 168.396 136.281 134.117 136.281 134.117H152.629Z" fill="#00AEF0"/>
<path opacity="0.6" d="M152.629 134.117C152.629 134.117 154.617 168.877 154.655 183.06C154.699 197.807 151.414 246.098 151.414 246.098H143.534C143.534 246.098 141.414 198.668 140.503 184.187C139.515 168.396 136.281 134.117 136.281 134.117H152.629Z" fill="#FAFAFA"/>
<path d="M154.541 129.648L152.332 129.826C152.152 129.841 151.978 129.896 151.822 129.987C151.666 130.078 151.532 130.202 151.43 130.351C151.329 130.5 151.261 130.67 151.233 130.849C151.205 131.027 151.218 131.21 151.269 131.383L152.18 134.452C152.257 134.702 152.393 134.929 152.577 135.114C152.761 135.3 152.986 135.438 153.235 135.518C153.483 135.597 153.748 135.616 154.005 135.571C154.262 135.527 154.505 135.421 154.712 135.262C155.853 134.2 156.671 132.838 157.073 131.332L154.541 129.648Z" fill="#E4897B"/>
<path d="M149.553 240.439C149.531 240.436 149.512 240.425 149.498 240.409C149.484 240.392 149.476 240.372 149.477 240.35C150.35 226.989 152.375 194.654 152.337 183.059C152.337 171.192 150.894 144.648 150.439 136.793C150.438 136.783 150.439 136.772 150.442 136.762C150.446 136.752 150.451 136.743 150.458 136.735C150.466 136.728 150.474 136.721 150.484 136.717C150.494 136.713 150.504 136.711 150.515 136.711C150.535 136.711 150.555 136.719 150.571 136.733C150.586 136.747 150.595 136.766 150.597 136.787C151.027 144.641 152.439 171.186 152.496 183.059C152.534 194.66 150.508 226.996 149.635 240.363C149.635 240.373 149.633 240.384 149.628 240.393C149.624 240.403 149.618 240.412 149.61 240.419C149.603 240.426 149.593 240.432 149.584 240.435C149.574 240.438 149.563 240.44 149.553 240.439Z" fill="#00AEF0"/>
<path opacity="0.3" d="M149.553 240.439C149.531 240.436 149.512 240.425 149.498 240.409C149.484 240.392 149.476 240.372 149.477 240.35C150.35 226.989 152.375 194.654 152.337 183.059C152.337 171.192 150.894 144.648 150.439 136.793C150.438 136.783 150.439 136.772 150.442 136.762C150.446 136.752 150.451 136.743 150.458 136.735C150.466 136.728 150.474 136.721 150.484 136.717C150.494 136.713 150.504 136.711 150.515 136.711C150.535 136.711 150.555 136.719 150.571 136.733C150.586 136.747 150.595 136.766 150.597 136.787C151.027 144.641 152.439 171.186 152.496 183.059C152.534 194.66 150.508 226.996 149.635 240.363C149.635 240.373 149.633 240.384 149.628 240.393C149.624 240.403 149.618 240.412 149.61 240.419C149.603 240.426 149.593 240.432 149.584 240.435C149.574 240.438 149.563 240.44 149.553 240.439Z" fill="#FAFAFA"/>
<path d="M152.811 242.961C152.849 242.961 152.495 246.233 152.495 246.233H142.912L142.539 243.315L152.811 242.961Z" fill="#00AEF0"/>
<path opacity="0.1" d="M152.811 242.961C152.849 242.961 152.495 246.233 152.495 246.233H142.912L142.539 243.315L152.811 242.961Z" fill="#FAFAFA"/>
</svg>
