<svg width="153" height="200" viewBox="0 0 153 200" fill="none" xmlns="http://www.w3.org/2000/svg">
<path d="M83.4001 0H8.00166C5.9606 0.0196943 4.0109 0.849099 2.58117 2.30587C1.15144 3.76265 0.358717 5.72755 0.377272 7.76862V162.982C0.360037 165.023 1.15319 166.987 2.58264 168.443C4.01208 169.9 5.96102 170.73 8.00166 170.751H83.4001C85.4421 170.731 87.3928 169.902 88.8241 168.445C90.2554 166.989 91.0503 165.024 91.0344 162.982V7.76862C91.0517 5.72624 90.2571 3.7606 88.8255 2.30383C87.394 0.847053 85.4425 0.0183873 83.4001 0ZM86.2648 158.183C86.2648 162.271 83.2061 165.573 79.4362 165.573H11.9805C8.20061 165.573 5.1419 162.271 5.1419 158.183V13.6523C5.1419 5.3316 8.20061 4.92377 11.9805 4.92377H25.4935C26.2743 4.92377 26.9159 5.81901 26.9159 6.91318V7.41053C26.9159 10.0017 28.3384 10.0117 30.0791 10.0117H61.3276C63.0833 10.0117 64.4908 10.0117 64.4908 7.41053V6.91318C64.4908 5.80906 65.1224 4.92377 65.9182 4.92377H79.4362C83.2061 4.92377 86.2648 6.03287 86.2648 13.6523V158.183Z" fill="#263238"/>
<path d="M49.9633 6.76398H41.4437C41.3743 6.76464 41.3055 6.75146 41.2412 6.7252C41.1769 6.69895 41.1185 6.66014 41.0695 6.61105C41.0204 6.56196 40.9816 6.50358 40.9553 6.43932C40.929 6.37506 40.9159 6.30621 40.9165 6.23679C40.9165 6.09697 40.9721 5.96288 41.0709 5.86401C41.1698 5.76514 41.3039 5.70959 41.4437 5.70959H49.9633C50.1032 5.70959 50.2373 5.76514 50.3361 5.86401C50.435 5.96288 50.4905 6.09697 50.4905 6.23679C50.4912 6.30621 50.478 6.37506 50.4518 6.43932C50.4255 6.50358 50.3867 6.56196 50.3376 6.61105C50.2885 6.66014 50.2301 6.69895 50.1659 6.7252C50.1016 6.75146 50.0328 6.76464 49.9633 6.76398Z" fill="white"/>
<path d="M86.265 13.6523V158.183C86.265 162.271 83.2063 165.573 79.4364 165.573H11.9807C8.2008 165.573 5.14209 162.271 5.14209 158.183V13.6523C5.14209 5.33166 8.2008 4.92383 11.9807 4.92383H25.4937C26.2745 4.92383 26.9161 5.81906 26.9161 6.91323V7.41058C26.9161 10.0018 28.3385 10.0117 30.0793 10.0117H61.3278C63.0835 10.0117 64.491 10.0117 64.491 7.41058V6.91323C64.491 5.80911 65.1226 4.92383 65.9184 4.92383H79.4364C83.2063 4.92383 86.265 6.03292 86.265 13.6523Z" fill="white"/>
<path d="M23.1611 8.17147L23.0318 8.30078L22.9572 8.37538C22.6202 8.04956 22.1677 7.8707 21.6989 7.87803C21.4667 7.8733 21.2358 7.91484 21.0198 8.00023C20.8038 8.08562 20.6069 8.21315 20.4406 8.37538L20.366 8.30575L20.2417 8.17644L20.4058 8.02724C20.5228 7.93165 20.6515 7.85142 20.7888 7.78851C20.9461 7.70869 21.1134 7.65015 21.2861 7.61443C21.3707 7.61443 21.4552 7.61444 21.5398 7.58459H21.7636H21.9327C22.0922 7.60562 22.249 7.64397 22.4002 7.69898C22.5082 7.73895 22.6129 7.78717 22.7135 7.84322C22.8169 7.90711 22.9165 7.97685 23.0119 8.0521L23.1512 8.17644L23.1611 8.17147Z" fill="#A6A6A6"/>
<path d="M20.8383 8.78814L20.6294 8.57925C20.8592 8.34485 21.1599 8.19276 21.4848 8.14656C21.7135 8.1109 21.9473 8.1302 22.1669 8.20285C22.3866 8.27549 22.5858 8.3994 22.7481 8.56433L22.5392 8.76824C22.4288 8.65712 22.2974 8.56893 22.1527 8.50875C22.0081 8.44857 21.8529 8.41759 21.6962 8.41759C21.5395 8.41759 21.3844 8.44857 21.2397 8.50875C21.095 8.56893 20.9637 8.65712 20.8532 8.76824L20.8383 8.78814Z" fill="#A6A6A6"/>
<path d="M22.3303 8.99213L22.1264 9.19605C22.0696 9.1392 22.0022 9.09411 21.9279 9.06334C21.8537 9.03258 21.7741 9.01674 21.6937 9.01674C21.6134 9.01674 21.5338 9.03258 21.4595 9.06334C21.3853 9.09411 21.3179 9.1392 21.261 9.19605L21.0571 8.99213C21.1404 8.90792 21.2395 8.84107 21.3488 8.79544C21.4581 8.74981 21.5753 8.72632 21.6937 8.72632C21.8122 8.72632 21.9294 8.74981 22.0387 8.79544C22.1479 8.84107 22.2471 8.90792 22.3303 8.99213Z" fill="#A6A6A6"/>
<path d="M21.8828 9.38495C21.8756 9.42919 21.8528 9.46941 21.8187 9.49844C21.7845 9.52746 21.7411 9.54339 21.6963 9.54339C21.6515 9.54339 21.6081 9.52746 21.574 9.49844C21.5398 9.46941 21.5171 9.42919 21.5098 9.38495C21.5054 9.35791 21.5069 9.33023 21.5142 9.30382C21.5215 9.27742 21.5345 9.25293 21.5523 9.23204C21.57 9.21115 21.5921 9.19438 21.617 9.18287C21.6418 9.17137 21.6689 9.16541 21.6963 9.16541C21.7237 9.16541 21.7508 9.17137 21.7757 9.18287C21.8005 9.19438 21.8226 9.21115 21.8404 9.23204C21.8581 9.25293 21.8711 9.27742 21.8784 9.30382C21.8857 9.33023 21.8873 9.35791 21.8828 9.38495Z" fill="#A6A6A6"/>
<path d="M10.9658 9.1015C11.2625 9.1015 11.503 8.86101 11.503 8.56436C11.503 8.2677 11.2625 8.02722 10.9658 8.02722C10.6692 8.02722 10.4287 8.2677 10.4287 8.56436C10.4287 8.86101 10.6692 9.1015 10.9658 9.1015Z" fill="#A6A6A6"/>
<path d="M12.1245 8.56436C12.1245 8.45812 12.156 8.35427 12.215 8.26594C12.2741 8.17761 12.3579 8.10876 12.4561 8.06811C12.5542 8.02745 12.6622 8.01682 12.7664 8.03754C12.8706 8.05827 12.9663 8.10943 13.0415 8.18455C13.1166 8.25967 13.1677 8.35538 13.1885 8.45957C13.2092 8.56376 13.1986 8.67176 13.1579 8.76991C13.1172 8.86806 13.0484 8.95195 12.9601 9.01097C12.8717 9.07 12.7679 9.1015 12.6617 9.1015C12.5192 9.1015 12.3826 9.04491 12.2818 8.94418C12.1811 8.84344 12.1245 8.70682 12.1245 8.56436Z" fill="#A6A6A6"/>
<path d="M14.3531 9.1015C14.6497 9.1015 14.8902 8.86101 14.8902 8.56436C14.8902 8.2677 14.6497 8.02722 14.3531 8.02722C14.0564 8.02722 13.8159 8.2677 13.8159 8.56436C13.8159 8.86101 14.0564 9.1015 14.3531 9.1015Z" fill="#A6A6A6"/>
<path d="M15.5117 8.56436C15.5117 8.45812 15.5432 8.35427 15.6022 8.26594C15.6613 8.17761 15.7452 8.10876 15.8433 8.06811C15.9415 8.02745 16.0495 8.01682 16.1537 8.03754C16.2578 8.05827 16.3536 8.10943 16.4287 8.18455C16.5038 8.25967 16.555 8.35538 16.5757 8.45957C16.5964 8.56376 16.5858 8.67176 16.5451 8.76991C16.5045 8.86806 16.4356 8.95195 16.3473 9.01097C16.2589 9.07 16.1551 9.1015 16.0489 9.1015C15.9064 9.1015 15.7698 9.04491 15.669 8.94418C15.5683 8.84344 15.5117 8.70682 15.5117 8.56436Z" fill="#A6A6A6"/>
<path d="M17.2026 8.56436C17.2026 8.49382 17.2165 8.42398 17.2435 8.35881C17.2705 8.29364 17.3101 8.23442 17.36 8.18454C17.4098 8.13467 17.4691 8.0951 17.5342 8.06811C17.5994 8.04111 17.6692 8.02722 17.7398 8.02722C17.8103 8.02722 17.8802 8.04111 17.9453 8.06811C18.0105 8.0951 18.0697 8.13467 18.1196 8.18454C18.1695 8.23442 18.209 8.29364 18.236 8.35881C18.263 8.42398 18.2769 8.49382 18.2769 8.56436C18.2769 8.6349 18.263 8.70474 18.236 8.76991C18.209 8.83508 18.1695 8.8943 18.1196 8.94417C18.0697 8.99405 18.0105 9.03362 17.9453 9.06061C17.8802 9.08761 17.8103 9.1015 17.7398 9.1015C17.6692 9.1015 17.5994 9.08761 17.5342 9.06061C17.4691 9.03362 17.4098 8.99405 17.36 8.94417C17.3101 8.8943 17.2705 8.83508 17.2435 8.76991C17.2165 8.70474 17.2026 8.6349 17.2026 8.56436Z" fill="#A6A6A6"/>
<path d="M80.0679 7.82336H75.915V9.62875H80.0679V7.82336Z" fill="#A6A6A6"/>
<path d="M80.1921 9.75304H75.7905V7.69897H80.1921V9.75304ZM76.0392 9.50436H79.9434V7.94765H76.0442L76.0392 9.50436Z" fill="white"/>
<path d="M78.9884 8.05713H76.1685V9.395H78.9884V8.05713Z" fill="#A6A6A6"/>
<path d="M80.5701 8.1814H80.1821V9.26562H80.5701V8.1814Z" fill="#A6A6A6"/>
<path d="M62.6757 161.102H28.7315C28.5384 161.118 28.3582 161.205 28.2268 161.348C28.0954 161.49 28.0225 161.677 28.0225 161.87C28.0225 162.064 28.0954 162.251 28.2268 162.393C28.3582 162.536 28.5384 162.623 28.7315 162.639H62.6757C62.7818 162.647 62.8885 162.634 62.9892 162.599C63.0898 162.564 63.1821 162.509 63.2603 162.437C63.3386 162.365 63.401 162.277 63.4437 162.18C63.4864 162.082 63.5085 161.977 63.5085 161.87C63.5085 161.764 63.4864 161.659 63.4437 161.561C63.401 161.464 63.3386 161.376 63.2603 161.304C63.1821 161.232 63.0898 161.176 62.9892 161.142C62.8885 161.107 62.7818 161.093 62.6757 161.102Z" fill="#A6A6A6"/>
<path d="M51.0957 81.6967C54.0732 78.7192 54.0732 73.8917 51.0956 70.9142C48.1181 67.9367 43.2906 67.9367 40.3131 70.9142C37.3356 73.8917 37.3356 78.7192 40.3131 81.6967C43.2906 84.6742 48.1181 84.6742 51.0957 81.6967Z" fill="#455A64"/>
<path d="M43.587 72.4989C43.4426 72.4999 43.3017 72.5436 43.1822 72.6245C43.0626 72.7055 42.9696 72.82 42.9151 72.9537C42.8605 73.0873 42.8467 73.2342 42.8755 73.3757C42.9043 73.5172 42.9743 73.647 43.0767 73.7487C43.1792 73.8505 43.3094 73.9196 43.4511 73.9474C43.5928 73.9752 43.7396 73.9605 43.8729 73.905C44.0062 73.8495 44.1201 73.7558 44.2002 73.6357C44.2803 73.5156 44.323 73.3744 44.3231 73.23C44.3231 73.1336 44.304 73.0381 44.2669 72.9491C44.2299 72.8601 44.1756 72.7792 44.1072 72.7113C44.0387 72.6433 43.9576 72.5896 43.8683 72.5531C43.779 72.5167 43.6834 72.4983 43.587 72.4989Z" fill="white"/>
<path d="M45.7057 72.4989C45.5611 72.4989 45.4198 72.5418 45.2995 72.6221C45.1793 72.7025 45.0856 72.8166 45.0303 72.9502C44.9749 73.0838 44.9604 73.2308 44.9887 73.3726C45.0169 73.5145 45.0865 73.6447 45.1887 73.747C45.291 73.8492 45.4213 73.9189 45.5631 73.9471C45.7049 73.9753 45.8519 73.9608 45.9855 73.9055C46.1191 73.8501 46.2333 73.7564 46.3136 73.6362C46.3939 73.516 46.4368 73.3746 46.4368 73.23C46.4368 73.0361 46.3598 72.8501 46.2227 72.713C46.0856 72.5759 45.8996 72.4989 45.7057 72.4989Z" fill="white"/>
<path d="M47.8196 73.9611C47.964 73.9601 48.1048 73.9164 48.2244 73.8355C48.344 73.7545 48.4369 73.64 48.4915 73.5063C48.546 73.3727 48.5598 73.2258 48.531 73.0843C48.5023 72.9428 48.4323 72.813 48.3298 72.7113C48.2274 72.6095 48.0971 72.5404 47.9554 72.5126C47.8137 72.4848 47.667 72.4995 47.5337 72.555C47.4004 72.6105 47.2865 72.7042 47.2064 72.8243C47.1263 72.9444 47.0835 73.0856 47.0835 73.23C47.0835 73.3264 47.1026 73.4219 47.1396 73.5109C47.1767 73.6 47.231 73.6808 47.2994 73.7487C47.3678 73.8167 47.449 73.8704 47.5383 73.9069C47.6275 73.9433 47.7231 73.9618 47.8196 73.9611Z" fill="white"/>
<path d="M43.5872 74.548C43.4416 74.548 43.2993 74.5912 43.1782 74.672C43.0572 74.7529 42.9628 74.8679 42.9071 75.0024C42.8514 75.1369 42.8368 75.2849 42.8652 75.4277C42.8936 75.5705 42.9637 75.7016 43.0667 75.8046C43.1696 75.9075 43.3008 75.9776 43.4436 76.006C43.5863 76.0344 43.7343 76.0198 43.8688 75.9641C44.0033 75.9084 44.1183 75.8141 44.1992 75.693C44.2801 75.572 44.3232 75.4297 44.3232 75.2841C44.3239 75.1872 44.3053 75.0912 44.2685 75.0016C44.2318 74.912 44.1776 74.8306 44.1091 74.7621C44.0406 74.6936 43.9592 74.6394 43.8696 74.6027C43.78 74.5659 43.684 74.5473 43.5872 74.548Z" fill="white"/>
<path d="M45.7059 74.548C45.5601 74.547 45.4173 74.5893 45.2956 74.6696C45.1739 74.7499 45.0788 74.8645 45.0223 74.9989C44.9658 75.1333 44.9505 75.2815 44.9784 75.4246C45.0062 75.5677 45.0759 75.6993 45.1787 75.8028C45.2814 75.9062 45.4126 75.9768 45.5555 76.0056C45.6984 76.0344 45.8467 76.0201 45.9814 75.9646C46.1162 75.909 46.2315 75.8147 46.3126 75.6935C46.3937 75.5724 46.437 75.4299 46.437 75.2841C46.437 75.0897 46.3601 74.9032 46.2232 74.7653C46.0862 74.6274 45.9003 74.5493 45.7059 74.548Z" fill="white"/>
<path d="M47.8197 74.548C47.6739 74.547 47.5311 74.5893 47.4094 74.6696C47.2877 74.7499 47.1926 74.8645 47.1361 74.9989C47.0796 75.1333 47.0643 75.2815 47.0922 75.4246C47.12 75.5677 47.1897 75.6993 47.2924 75.8028C47.3952 75.9062 47.5263 75.9768 47.6693 76.0056C47.8122 76.0344 47.9604 76.0201 48.0952 75.9646C48.23 75.909 48.3453 75.8147 48.4264 75.6935C48.5075 75.5724 48.5508 75.4299 48.5508 75.2841C48.5508 75.0897 48.4739 74.9032 48.3369 74.7653C48.2 74.6274 48.014 74.5493 47.8197 74.548Z" fill="white"/>
<path d="M43.5872 76.6021C43.4416 76.6021 43.2993 76.6452 43.1782 76.7261C43.0572 76.807 42.9628 76.922 42.9071 77.0565C42.8514 77.191 42.8368 77.339 42.8652 77.4818C42.8936 77.6245 42.9637 77.7557 43.0667 77.8586C43.1696 77.9616 43.3008 78.0317 43.4436 78.0601C43.5863 78.0885 43.7343 78.0739 43.8688 78.0182C44.0033 77.9625 44.1183 77.8681 44.1992 77.7471C44.2801 77.626 44.3232 77.4837 44.3232 77.3381C44.3239 77.2413 44.3053 77.1453 44.2685 77.0557C44.2318 76.9661 44.1776 76.8847 44.1091 76.8162C44.0406 76.7477 43.9592 76.6935 43.8696 76.6568C43.78 76.62 43.684 76.6014 43.5872 76.6021Z" fill="white"/>
<path d="M45.7059 76.6021C45.5601 76.6011 45.4173 76.6434 45.2956 76.7237C45.1739 76.804 45.0788 76.9186 45.0223 77.053C44.9658 77.1874 44.9505 77.3356 44.9784 77.4787C45.0062 77.6218 45.0759 77.7534 45.1787 77.8569C45.2814 77.9603 45.4126 78.0309 45.5555 78.0597C45.6984 78.0885 45.8467 78.0742 45.9814 78.0187C46.1162 77.9631 46.2315 77.8688 46.3126 77.7476C46.3937 77.6264 46.437 77.4839 46.437 77.3381C46.437 77.1438 46.3601 76.9573 46.2232 76.8194C46.0862 76.6815 45.9003 76.6034 45.7059 76.6021Z" fill="white"/>
<path d="M47.8197 76.6021C47.6739 76.6011 47.5311 76.6434 47.4094 76.7237C47.2877 76.804 47.1926 76.9186 47.1361 77.053C47.0796 77.1874 47.0643 77.3356 47.0922 77.4787C47.12 77.6218 47.1897 77.7534 47.2924 77.8569C47.3952 77.9603 47.5263 78.0309 47.6693 78.0597C47.8122 78.0885 47.9604 78.0742 48.0952 78.0187C48.23 77.9631 48.3453 77.8688 48.4264 77.7476C48.5075 77.6264 48.5508 77.4839 48.5508 77.3381C48.5508 77.1438 48.4739 76.9573 48.3369 76.8194C48.2 76.6815 48.014 76.6034 47.8197 76.6021Z" fill="white"/>
<path d="M45.7059 78.656C45.5599 78.655 45.4169 78.6975 45.2951 78.778C45.1733 78.8585 45.0782 78.9734 45.0218 79.1081C44.9655 79.2428 44.9505 79.3912 44.9787 79.5345C45.007 79.6777 45.0772 79.8093 45.1804 79.9126C45.2837 80.0158 45.4153 80.086 45.5585 80.1143C45.7018 80.1425 45.8502 80.1275 45.9849 80.0712C46.1196 80.0148 46.2345 79.9197 46.315 79.7979C46.3955 79.6761 46.438 79.5331 46.437 79.3871C46.437 79.1932 46.36 79.0073 46.2228 78.8702C46.0857 78.733 45.8998 78.656 45.7059 78.656Z" fill="white"/>
<path d="M67.286 106.13C71.4969 106.13 74.9104 102.716 74.9104 98.5054C74.9104 94.2945 71.4969 90.881 67.286 90.881C63.0752 90.881 59.6616 94.2945 59.6616 98.5054C59.6616 102.716 63.0752 106.13 67.286 106.13Z" fill="#455A64"/>
<path d="M68.922 96.327C68.922 96.6506 68.826 96.967 68.6462 97.236C68.4664 97.5051 68.2109 97.7148 67.9119 97.8387C67.6129 97.9625 67.2839 97.9949 66.9665 97.9318C66.6491 97.8687 66.3575 97.7128 66.1287 97.484C65.8998 97.2551 65.744 96.9636 65.6809 96.6462C65.6177 96.3288 65.6501 95.9998 65.774 95.7008C65.8978 95.4018 66.1075 95.1462 66.3766 94.9664C66.6457 94.7866 66.9621 94.6907 67.2857 94.6907C67.7197 94.6907 68.1359 94.8631 68.4427 95.1699C68.7496 95.4768 68.922 95.893 68.922 96.327Z" fill="white"/>
<path d="M70.1159 100.843V101.519C69.6354 101.815 69.1119 102.035 68.5642 102.171C67.8704 102.34 67.1499 102.37 66.4446 102.258C65.7393 102.146 65.0633 101.895 64.4561 101.519V100.843C64.4561 100.092 64.7542 99.3725 65.2849 98.8418C65.8156 98.3111 66.5354 98.0129 67.286 98.0129C68.0365 98.0129 68.7563 98.3111 69.287 98.8418C69.8178 99.3725 70.1159 100.092 70.1159 100.843Z" fill="white"/>
<path d="M29.5112 81.701C32.4887 78.7234 32.4887 73.8959 29.5112 70.9184C26.5337 67.9409 21.7062 67.9409 18.7287 70.9184C15.7512 73.8959 15.7512 78.7234 18.7287 81.701C21.7062 84.6785 26.5337 84.6785 29.5112 81.701Z" fill="#455A64"/>
<path d="M24.1257 80.5708C24.0796 80.5708 24.0353 80.5525 24.0027 80.5198C23.97 80.4872 23.9517 80.4429 23.9517 80.3968V78.3676C23.9517 78.3214 23.97 78.2771 24.0027 78.2445C24.0353 78.2118 24.0796 78.1935 24.1257 78.1935C24.1719 78.1935 24.2162 78.2118 24.2488 78.2445C24.2815 78.2771 24.2998 78.3214 24.2998 78.3676V80.3968C24.2998 80.4429 24.2815 80.4872 24.2488 80.5198C24.2162 80.5525 24.1719 80.5708 24.1257 80.5708Z" fill="white"/>
<path d="M25.2351 80.5709H23.012C22.9658 80.5709 22.9215 80.5526 22.8889 80.5199C22.8562 80.4873 22.8379 80.443 22.8379 80.3969C22.8379 80.3507 22.8562 80.3064 22.8889 80.2738C22.9215 80.2411 22.9658 80.2228 23.012 80.2228H25.2351C25.2813 80.2228 25.3256 80.2411 25.3582 80.2738C25.3909 80.3064 25.4092 80.3507 25.4092 80.3969C25.4092 80.443 25.3909 80.4873 25.3582 80.5199C25.3256 80.5526 25.2813 80.5709 25.2351 80.5709Z" fill="white"/>
<path d="M25.5532 73.4786V76.4279C25.5647 76.6228 25.5362 76.818 25.4696 77.0014C25.4029 77.1849 25.2994 77.3528 25.1655 77.4948C25.0316 77.6369 24.8701 77.7501 24.6909 77.8274C24.5116 77.9048 24.3185 77.9447 24.1233 77.9447C23.9281 77.9447 23.7349 77.9048 23.5557 77.8274C23.3765 77.7501 23.215 77.6369 23.081 77.4948C22.9471 77.3528 22.8437 77.1849 22.777 77.0014C22.7104 76.818 22.6819 76.6228 22.6934 76.4279V73.4786C22.6842 73.1001 22.8257 72.7333 23.0869 72.4591C23.348 72.1849 23.7074 72.0256 24.086 72.0164C24.4646 72.0072 24.8313 72.1487 25.1055 72.4099C25.3797 72.671 25.539 73.0304 25.5482 73.409C25.5525 73.4319 25.5542 73.4553 25.5532 73.4786Z" fill="white"/>
<path d="M24.1209 78.5367C23.8483 78.5374 23.5784 78.4842 23.3264 78.3802C23.0745 78.2762 22.8456 78.1234 22.6529 77.9307C22.4602 77.738 22.3075 77.5091 22.2035 77.2572C22.0995 77.0053 22.0463 76.7353 22.0469 76.4628V75.2194C22.0427 75.1944 22.0439 75.1688 22.0505 75.1443C22.0572 75.1199 22.0691 75.0972 22.0855 75.0778C22.1018 75.0584 22.1222 75.0429 22.1452 75.0322C22.1681 75.0215 22.1932 75.016 22.2185 75.016C22.2438 75.016 22.2689 75.0215 22.2919 75.0322C22.3148 75.0429 22.3352 75.0584 22.3516 75.0778C22.3679 75.0972 22.3798 75.1199 22.3865 75.1443C22.3931 75.1688 22.3944 75.1944 22.3901 75.2194V76.4628C22.3912 76.6963 22.4394 76.9272 22.5319 77.1416C22.6244 77.3561 22.7591 77.5496 22.9282 77.7108C23.0972 77.8719 23.297 77.9973 23.5156 78.0794C23.7342 78.1615 23.9671 78.1986 24.2005 78.1886C24.6512 78.1569 25.0729 77.9546 25.3797 77.6229C25.6865 77.2912 25.8553 76.8549 25.8517 76.4031V75.2194C25.8517 75.1732 25.87 75.1289 25.9026 75.0963C25.9353 75.0637 25.9796 75.0453 26.0257 75.0453C26.0719 75.0453 26.1162 75.0637 26.1488 75.0963C26.1815 75.1289 26.1998 75.1732 26.1998 75.2194V76.4031C26.2083 76.9469 26.0059 77.4729 25.635 77.8707C25.2641 78.2685 24.7535 78.5072 24.2104 78.5367H24.1209Z" fill="white"/>
<path d="M45.7059 106.13C49.9168 106.13 53.3303 102.716 53.3303 98.5054C53.3303 94.2945 49.9168 90.881 45.7059 90.881C41.4951 90.881 38.0815 94.2945 38.0815 98.5054C38.0815 102.716 41.4951 106.13 45.7059 106.13Z" fill="#455A64"/>
<path d="M50.147 97.5405V99.4802C50.1434 99.5597 50.1223 99.6374 50.085 99.7077C50.0478 99.7781 49.9954 99.8392 49.9316 99.8868C49.8678 99.9344 49.7943 99.9672 49.7163 99.9829C49.6383 99.9986 49.5577 99.9968 49.4805 99.9776L48.6151 99.7587L48.1924 99.6592V97.3466L49.3462 97.0531L49.5004 97.0133C49.5787 96.9971 49.6596 96.9984 49.7372 97.0174C49.8149 97.0364 49.8873 97.0724 49.9493 97.1229C50.0112 97.1734 50.0611 97.2371 50.0953 97.3094C50.1295 97.3816 50.1472 97.4606 50.147 97.5405Z" fill="white"/>
<path d="M46.7455 96.1281H43.3934C42.8522 96.1281 42.4136 96.5667 42.4136 97.1078V99.9079C42.4136 100.449 42.8522 100.888 43.3934 100.888H46.7455C47.2866 100.888 47.7253 100.449 47.7253 99.9079V97.1078C47.7253 96.5667 47.2866 96.1281 46.7455 96.1281Z" fill="white"/>
<path d="M24.121 106.13C28.3318 106.13 31.7454 102.716 31.7454 98.5054C31.7454 94.2945 28.3318 90.881 24.121 90.881C19.9101 90.881 16.4966 94.2945 16.4966 98.5054C16.4966 102.716 19.9101 106.13 24.121 106.13Z" fill="#455A64"/>
<path d="M27.0304 98.0428H24.5834V95.6008C24.5834 95.4782 24.5347 95.3605 24.4479 95.2738C24.3612 95.187 24.2436 95.1383 24.1209 95.1383C23.9982 95.1383 23.8806 95.187 23.7938 95.2738C23.7071 95.3605 23.6583 95.4782 23.6583 95.6008V98.0428H21.2163C21.1512 98.0361 21.0854 98.0431 21.0232 98.0634C20.961 98.0837 20.9037 98.1168 20.8551 98.1607C20.8065 98.2045 20.7676 98.2581 20.741 98.3179C20.7144 98.3777 20.7007 98.4424 20.7007 98.5079C20.7007 98.5733 20.7144 98.638 20.741 98.6979C20.7676 98.7577 20.8065 98.8112 20.8551 98.8551C20.9037 98.8989 20.961 98.932 21.0232 98.9523C21.0854 98.9726 21.1512 98.9796 21.2163 98.9729H23.6583V101.415C23.6583 101.538 23.7071 101.655 23.7938 101.742C23.8806 101.829 23.9982 101.877 24.1209 101.877C24.2436 101.877 24.3612 101.829 24.4479 101.742C24.5347 101.655 24.5834 101.538 24.5834 101.415V98.9729H27.0304C27.1454 98.961 27.252 98.9068 27.3294 98.8209C27.4069 98.7351 27.4497 98.6235 27.4497 98.5079C27.4497 98.3922 27.4069 98.2807 27.3294 98.1948C27.252 98.1089 27.1454 98.0547 27.0304 98.0428Z" fill="white"/>
<path d="M72.6762 81.7011C75.6537 78.7236 75.6537 73.8961 72.6762 70.9186C69.6987 67.941 64.8712 67.941 61.8937 70.9185C58.9162 73.8961 58.9162 78.7236 61.8937 81.7011C64.8712 84.6786 69.6987 84.6786 72.6762 81.7011Z" fill="#455A64"/>
<path d="M71.0706 75.9803C71.0706 75.8063 71.0308 75.6272 71.001 75.4531C70.9314 75.0851 70.8109 74.7286 70.6429 74.3938C70.5085 74.1087 70.3416 73.84 70.1456 73.5931L69.8422 73.2499L69.5736 73.5185L69.4194 73.6627C69.7664 74.0079 70.0417 74.4183 70.2295 74.8702C70.4173 75.3221 70.514 75.8067 70.514 76.2962C70.514 76.7856 70.4173 77.2702 70.2295 77.7221C70.0417 78.174 69.7664 78.5844 69.4194 78.9296L69.5736 79.0838L69.8472 79.3573C69.9367 79.2629 70.0262 79.1684 70.1108 79.0689C70.2751 78.8735 70.4215 78.6638 70.5484 78.4422C70.6691 78.2323 70.7723 78.0127 70.8568 77.7857C70.9727 77.4731 71.0495 77.1474 71.0856 76.8159C71.0856 76.6965 71.0856 76.5722 71.1154 76.4528C71.0706 76.4329 71.0706 76.04 71.0706 75.9803Z" fill="white"/>
<path d="M69.8173 75.846C69.7248 75.1799 69.4154 74.5629 68.937 74.0903L68.5093 74.523C68.7415 74.7546 68.9257 75.0298 69.0512 75.3328C69.1767 75.6358 69.241 75.9607 69.2404 76.2886C69.2429 76.6169 69.1795 76.9423 69.0539 77.2456C68.9283 77.5489 68.7431 77.8238 68.5093 78.0542L68.942 78.4869C69.2846 78.1461 69.5424 77.7295 69.6944 77.2708C69.8465 76.812 69.8886 76.324 69.8173 75.846Z" fill="white"/>
<path d="M68.0869 74.9558L67.6592 75.3835C67.7796 75.5014 67.8751 75.6423 67.94 75.7978C68.0049 75.9533 68.038 76.1202 68.0372 76.2887C68.0378 76.4567 68.0052 76.6232 67.9411 76.7786C67.8771 76.9339 67.783 77.0751 67.6641 77.1939L68.0919 77.6216C68.2684 77.4473 68.4084 77.2395 68.5039 77.0105C68.5993 76.7815 68.6482 76.5358 68.6478 76.2877C68.6473 76.0396 68.5975 75.794 68.5012 75.5654C68.4049 75.3367 68.2641 75.1295 68.0869 74.9558Z" fill="white"/>
<path d="M64.7745 75.0652H63.5112V77.5122H64.7745V75.0652Z" fill="white"/>
<path d="M64.7744 75.0652L67.102 74.0854V78.492L64.7744 77.5122V75.0652Z" fill="white"/>
<path d="M45.7061 144.287C50.675 144.287 54.7031 140.258 54.7031 135.289C54.7031 130.321 50.675 126.292 45.7061 126.292C40.7371 126.292 36.709 130.321 36.709 135.289C36.709 140.258 40.7371 144.287 45.7061 144.287Z" fill="#00AEF0"/>
<path d="M50.8136 135.344C50.7747 135.201 50.7282 135.06 50.6744 134.921C50.6027 134.785 50.5212 134.653 50.4307 134.528L50.1024 134.2C49.9632 134.101 49.8339 133.996 49.6896 133.907C49.1527 133.563 48.5524 133.329 47.924 133.22C46.4565 132.927 44.9453 132.927 43.4777 133.22C42.8428 133.331 42.2361 133.566 41.6922 133.912C41.553 134.006 41.4237 134.106 41.2943 134.2L40.9512 134.538L40.797 134.772C40.6784 134.947 40.6112 135.152 40.603 135.364H43.4976C43.5183 135.365 43.5387 135.359 43.5558 135.348C43.5728 135.336 43.5856 135.319 43.5921 135.299C43.6723 135.146 43.7911 135.016 43.9368 134.923C44.0824 134.83 44.2499 134.776 44.4227 134.767C45.2673 134.712 46.1146 134.712 46.9592 134.767C47.1324 134.771 47.3013 134.823 47.4476 134.916C47.5939 135.008 47.7122 135.139 47.7897 135.294C47.7997 135.316 47.8159 135.334 47.8363 135.347C47.8567 135.359 47.8803 135.365 47.9041 135.364H50.7142L50.8136 135.344Z" fill="white"/>
<path d="M40.5981 135.966V137.025C40.5915 137.074 40.5963 137.123 40.6119 137.17C40.6276 137.216 40.6538 137.258 40.6884 137.293C40.7231 137.328 40.7653 137.354 40.8117 137.369C40.8582 137.385 40.9076 137.39 40.9562 137.383H43.1047C43.1544 137.39 43.205 137.385 43.2525 137.369C43.2999 137.353 43.343 137.326 43.3782 137.29C43.4134 137.254 43.4399 137.211 43.4554 137.163C43.471 137.115 43.4752 137.065 43.4678 137.015V136.175C43.4678 136.1 43.4678 136.025 43.4678 135.961L40.5981 135.966Z" fill="white"/>
<path d="M50.7888 135.931H47.9489C47.9489 136.289 47.9489 136.647 47.9489 137.01C47.9449 137.057 47.9513 137.103 47.9675 137.147C47.9837 137.19 48.0094 137.23 48.0428 137.262C48.0761 137.294 48.1162 137.319 48.1602 137.334C48.2042 137.349 48.2509 137.354 48.2971 137.348H50.4655C50.5128 137.354 50.5606 137.349 50.6056 137.333C50.6506 137.318 50.6915 137.292 50.7254 137.259C50.7593 137.226 50.7852 137.185 50.8014 137.14C50.8175 137.095 50.8234 137.048 50.8186 137C50.8186 136.662 50.8186 136.329 50.8186 136.006L50.7888 135.931Z" fill="white"/>
<path d="M35.6147 55.2209C35.6252 54.6646 35.8535 54.1346 36.2506 53.7449C36.6478 53.3552 37.182 53.1369 37.7384 53.137C38.2239 53.1344 38.6964 53.2936 39.0813 53.5896C39.1512 53.6437 39.1968 53.7233 39.2079 53.811C39.2191 53.8986 39.195 53.9872 39.141 54.0571C39.0869 54.127 39.0072 54.1726 38.9196 54.1838C38.8319 54.1949 38.7434 54.1709 38.6735 54.1168C38.4092 53.9035 38.0779 53.7908 37.7384 53.7985C37.3508 53.7974 36.978 53.9473 36.699 54.2162C36.5653 54.3477 36.4591 54.5045 36.3866 54.6774C36.3142 54.8503 36.2768 55.0359 36.2768 55.2234C36.2768 55.4109 36.3142 55.5965 36.3866 55.7694C36.4591 55.9423 36.5653 56.0991 36.699 56.2305C36.98 56.4964 37.3515 56.6458 37.7384 56.6483C38.0778 56.6551 38.4087 56.5424 38.6735 56.33C38.7449 56.2815 38.8317 56.2613 38.9172 56.2733C39.0026 56.2852 39.0806 56.3285 39.136 56.3946C39.1879 56.4641 39.2111 56.5508 39.2009 56.6368C39.1908 56.7229 39.1479 56.8018 39.0813 56.8572C38.6964 57.1531 38.2239 57.3124 37.7384 57.3098C37.1808 57.3111 36.6451 57.0926 36.2475 56.7015C35.85 56.3105 35.6226 55.7785 35.6147 55.2209Z" fill="#263238"/>
<path d="M40.8419 56.9914C40.842 57.0336 40.8336 57.0754 40.8173 57.1144C40.8009 57.1533 40.777 57.1886 40.747 57.2183C40.7169 57.2479 40.6812 57.2712 40.642 57.2869C40.6028 57.3026 40.5609 57.3104 40.5187 57.3097C40.4485 57.3081 40.3807 57.2841 40.3252 57.2411C40.2697 57.1981 40.2294 57.1385 40.2103 57.071C40.2079 57.0445 40.2079 57.0179 40.2103 56.9914V53.5696C40.2201 53.4914 40.258 53.4195 40.3171 53.3673C40.3762 53.3152 40.4523 53.2864 40.5311 53.2864C40.6099 53.2864 40.686 53.3152 40.7451 53.3673C40.8041 53.4195 40.8421 53.4914 40.8519 53.5696V54.5643C41.0417 54.4568 41.2555 54.3987 41.4736 54.3952C41.8091 54.3966 42.1304 54.5308 42.3672 54.7685C42.6039 55.0062 42.7369 55.328 42.7369 55.6635V56.9765C42.7271 57.0547 42.6891 57.1266 42.63 57.1788C42.571 57.231 42.4949 57.2597 42.4161 57.2597C42.3373 57.2597 42.2612 57.231 42.2021 57.1788C42.143 57.1266 42.105 57.0547 42.0953 56.9765V55.6635C42.0953 55.4986 42.0298 55.3405 41.9132 55.2239C41.7966 55.1073 41.6385 55.0418 41.4736 55.0418C41.3087 55.0418 41.1506 55.1073 41.034 55.2239C40.9174 55.3405 40.8519 55.4986 40.8519 55.6635L40.8419 56.9914Z" fill="#263238"/>
<path d="M46.4318 55.8923V57.0262C46.4318 57.1072 46.4 57.1849 46.3433 57.2425C46.2865 57.3002 46.2094 57.3333 46.1284 57.3346C46.0571 57.3339 45.9882 57.3088 45.933 57.2636C45.8778 57.2184 45.8398 57.1557 45.8251 57.0859C45.6001 57.2468 45.3307 57.3337 45.0542 57.3346C44.8682 57.3363 44.6839 57.2996 44.5127 57.2269C44.3416 57.1541 44.1873 57.0469 44.0595 56.9119C43.8043 56.6339 43.6639 56.2696 43.6665 55.8923C43.6662 55.5228 43.8067 55.1671 44.0595 54.8976C44.2769 54.6542 44.5772 54.5005 44.9017 54.4665C45.2263 54.4325 45.5519 54.5206 45.8151 54.7136C45.8288 54.6429 45.8665 54.579 45.9217 54.5328C45.977 54.4866 46.0465 54.4609 46.1185 54.4599C46.159 54.4606 46.199 54.4692 46.2361 54.4853C46.2733 54.5014 46.3069 54.5246 46.3351 54.5537C46.3633 54.5828 46.3854 54.6172 46.4003 54.6549C46.4152 54.6925 46.4225 54.7328 46.4219 54.7732L46.4318 55.8923ZM45.8201 55.8923C45.8243 55.6712 45.7423 55.4571 45.5913 55.2955C45.5244 55.2192 45.4417 55.1583 45.3489 55.1171C45.2562 55.0759 45.1556 55.0553 45.0542 55.0567C44.9525 55.0543 44.8516 55.0744 44.7587 55.1157C44.6658 55.157 44.5833 55.2184 44.517 55.2955C44.3679 55.4579 44.2876 55.6719 44.2932 55.8923C44.2911 56.1121 44.3709 56.3249 44.517 56.4891C44.5863 56.5614 44.6697 56.6187 44.7622 56.6572C44.8546 56.6957 44.954 56.7147 45.0542 56.7129C45.1541 56.7135 45.2532 56.694 45.3454 56.6555C45.4377 56.6171 45.5213 56.5605 45.5913 56.4891C45.7388 56.3253 45.8203 56.1127 45.8201 55.8923Z" fill="#263238"/>
<path d="M49.3563 54.7185C49.3563 54.8003 49.3238 54.8787 49.266 54.9366C49.2082 54.9944 49.1297 55.0269 49.0479 55.0269C48.9229 55.0232 48.8003 55.0618 48.6998 55.1363C48.591 55.2085 48.4994 55.3035 48.4312 55.4148C48.3268 55.5668 48.2478 55.7348 48.1975 55.9122V57.0113C48.1968 57.0525 48.1881 57.0931 48.1717 57.1309C48.1554 57.1686 48.1317 57.2028 48.1022 57.2314C48.0726 57.2601 48.0377 57.2826 47.9994 57.2977C47.9612 57.3129 47.9203 57.3203 47.8792 57.3197C47.7974 57.3197 47.7189 57.2872 47.6611 57.2294C47.6033 57.1715 47.5708 57.0931 47.5708 57.0113V54.7285C47.5708 54.6882 47.5788 54.6483 47.5944 54.6112C47.6099 54.5741 47.6327 54.5404 47.6614 54.5122C47.6901 54.4839 47.7241 54.4617 47.7615 54.4467C47.7989 54.4318 47.8389 54.4244 47.8792 54.4251C47.9614 54.4237 48.0409 54.4548 48.1005 54.5116C48.16 54.5683 48.1949 54.6462 48.1975 54.7285V54.7683C48.2335 54.7264 48.2735 54.6881 48.3168 54.6539C48.5314 54.5047 48.7866 54.4248 49.0479 54.4251C49.1276 54.4237 49.2045 54.4538 49.2622 54.5087C49.3199 54.5636 49.3537 54.6389 49.3563 54.7185Z" fill="#263238"/>
<path d="M50.4755 53.2513C50.5604 53.2513 50.6419 53.2847 50.7024 53.3443C50.7629 53.4038 50.7975 53.4848 50.7988 53.5696V56.9914C50.789 57.0696 50.7511 57.1416 50.692 57.1937C50.6329 57.2459 50.5568 57.2747 50.478 57.2747C50.3992 57.2747 50.3231 57.2459 50.264 57.1937C50.205 57.1416 50.167 57.0696 50.1572 56.9914V53.5696C50.1572 53.5278 50.1655 53.4865 50.1815 53.4478C50.1974 53.4092 50.2209 53.3741 50.2504 53.3446C50.28 53.315 50.3151 53.2916 50.3537 53.2756C50.3923 53.2596 50.4337 53.2513 50.4755 53.2513Z" fill="#263238"/>
<path d="M52.1716 53.689C52.1716 53.7726 52.1387 53.8528 52.0801 53.9123C52.0215 53.9719 51.9418 54.006 51.8583 54.0073C51.7747 54.006 51.695 53.9719 51.6364 53.9123C51.5778 53.8528 51.5449 53.7726 51.5449 53.689V53.5647C51.5449 53.5235 51.553 53.4828 51.5688 53.4448C51.5845 53.4067 51.6076 53.3722 51.6367 53.3431C51.6658 53.314 51.7003 53.2909 51.7383 53.2752C51.7764 53.2594 51.8171 53.2513 51.8583 53.2513C51.8994 53.2513 51.9401 53.2594 51.9782 53.2752C52.0162 53.2909 52.0507 53.314 52.0798 53.3431C52.1089 53.3722 52.132 53.4067 52.1477 53.4448C52.1635 53.4828 52.1716 53.5235 52.1716 53.5647V53.689ZM52.1716 54.7334V56.9964C52.1716 57.0795 52.1386 57.1592 52.0798 57.218C52.0211 57.2767 51.9414 57.3097 51.8583 57.3097C51.7752 57.3097 51.6955 57.2767 51.6367 57.218C51.5779 57.1592 51.5449 57.0795 51.5449 56.9964V54.7334C51.5449 54.6923 51.553 54.6516 51.5688 54.6135C51.5845 54.5755 51.6076 54.541 51.6367 54.5119C51.6658 54.4828 51.7003 54.4597 51.7383 54.444C51.7764 54.4282 51.8171 54.4201 51.8583 54.4201C51.8994 54.4201 51.9401 54.4282 51.9782 54.444C52.0162 54.4597 52.0507 54.4828 52.0798 54.5119C52.1089 54.541 52.132 54.5755 52.1477 54.6135C52.1635 54.6516 52.1716 54.6923 52.1716 54.7334Z" fill="#263238"/>
<path d="M52.9822 55.8575C52.9796 55.4789 53.1264 55.1145 53.3909 54.8435C53.6554 54.5725 54.0161 54.4168 54.3947 54.4102C54.7572 54.4062 55.1068 54.5446 55.3682 54.7958C55.6296 55.047 55.7819 55.3907 55.7923 55.7531V55.7829C55.7947 55.8011 55.7947 55.8195 55.7923 55.8376C55.7801 55.9071 55.742 55.9693 55.6856 56.0118C55.6293 56.0543 55.559 56.0738 55.4889 56.0664H53.6636C53.6921 56.2104 53.7611 56.3433 53.8625 56.4494C54.0104 56.5986 54.2056 56.6918 54.4146 56.713C54.6271 56.7312 54.8398 56.6806 55.0214 56.5687C55.0808 56.5153 55.1578 56.4857 55.2377 56.4857C55.3176 56.4857 55.3947 56.5153 55.4541 56.5687C55.4793 56.5933 55.4994 56.6227 55.5131 56.6552C55.5269 56.6876 55.5339 56.7225 55.5339 56.7577C55.5339 56.793 55.5269 56.8279 55.5131 56.8603C55.4994 56.8928 55.4793 56.9222 55.4541 56.9467C55.1696 57.203 54.7974 57.3402 54.4146 57.3297C54.2235 57.3284 54.0346 57.2892 53.8588 57.2142C53.6829 57.1393 53.5238 57.0302 53.3905 56.8932C53.2572 56.7562 53.1525 56.5941 53.0824 56.4164C53.0123 56.2386 52.9783 56.0486 52.9822 55.8575ZM53.6139 55.574H55.2551C55.1883 55.3984 55.0709 55.2465 54.9177 55.1376C54.7646 55.0287 54.5826 54.9677 54.3947 54.9623C54.2154 54.9643 54.0418 55.0253 53.9006 55.1358C53.7595 55.2464 53.6587 55.4004 53.6139 55.574Z" fill="#263238"/>
<path d="M38.4644 25.0565C38.4709 24.71 38.6131 24.3798 38.8605 24.1371C39.1079 23.8943 39.4407 23.7584 39.7873 23.7584C40.0872 23.7577 40.3791 23.8556 40.6179 24.0369C40.659 24.0718 40.6853 24.1209 40.6918 24.1744C40.6983 24.2278 40.6843 24.2818 40.6527 24.3254C40.6193 24.3683 40.5704 24.3964 40.5165 24.4039C40.4627 24.4113 40.408 24.3974 40.3642 24.3652C40.2007 24.2348 39.9964 24.1661 39.7873 24.1712C39.5452 24.1717 39.3123 24.2642 39.1358 24.4299C39.0522 24.5114 38.9857 24.6089 38.9403 24.7165C38.895 24.8241 38.8716 24.9397 38.8716 25.0565C38.8716 25.1733 38.895 25.2889 38.9403 25.3965C38.9857 25.5042 39.0522 25.6016 39.1358 25.6832C39.3123 25.8489 39.5452 25.9413 39.7873 25.9418C39.9971 25.9455 40.2014 25.8751 40.3642 25.7429C40.4092 25.714 40.4629 25.7021 40.5158 25.7094C40.5687 25.7167 40.6173 25.7427 40.6527 25.7826C40.6843 25.8263 40.6983 25.8802 40.6918 25.9337C40.6853 25.9872 40.659 26.0362 40.6179 26.0711C40.3791 26.2525 40.0872 26.3504 39.7873 26.3496C39.4412 26.351 39.1084 26.2161 38.8608 25.9742C38.6133 25.7322 38.4709 25.4026 38.4644 25.0565Z" fill="#C7C7C7"/>
<path d="M42.836 25.4743V26.1805C42.836 26.2306 42.8161 26.2787 42.7807 26.3142C42.7452 26.3496 42.6972 26.3695 42.647 26.3695C42.6027 26.3693 42.5597 26.3539 42.5253 26.3258C42.4909 26.2978 42.4672 26.2588 42.4581 26.2153C42.3139 26.3204 42.139 26.3746 41.9607 26.3695C41.8465 26.3705 41.7333 26.3481 41.628 26.3036C41.5228 26.2591 41.4278 26.1935 41.349 26.1109C41.1874 25.9385 41.0984 25.7105 41.1003 25.4743C41.0979 25.3578 41.1186 25.242 41.1613 25.1335C41.204 25.0251 41.2678 24.9262 41.349 24.8426C41.4255 24.7561 41.5197 24.6869 41.6252 24.6397C41.7308 24.5925 41.8451 24.5685 41.9607 24.5691C42.1391 24.5683 42.3132 24.6241 42.4581 24.7283C42.467 24.6843 42.4905 24.6447 42.5248 24.6158C42.5592 24.5869 42.6022 24.5704 42.647 24.5691C42.6976 24.5704 42.7457 24.5914 42.781 24.6276C42.8163 24.6639 42.8361 24.7125 42.836 24.7631V25.4743ZM42.4531 25.4743C42.4542 25.337 42.4046 25.2042 42.3138 25.1013C42.2706 25.0557 42.2185 25.0194 42.1608 24.9945C42.1031 24.9697 42.0409 24.9569 41.9781 24.9569C41.9153 24.9569 41.8531 24.9697 41.7954 24.9945C41.7377 25.0194 41.6856 25.0557 41.6424 25.1013C41.5559 25.2063 41.5086 25.3382 41.5086 25.4743C41.5086 25.6104 41.5559 25.7422 41.6424 25.8473C41.7341 25.9312 41.8538 25.9777 41.9781 25.9777C42.1024 25.9777 42.2221 25.9312 42.3138 25.8473C42.4046 25.7444 42.4542 25.6115 42.4531 25.4743Z" fill="#C7C7C7"/>
<path d="M43.8159 23.848C43.8682 23.8493 43.9181 23.8706 43.9552 23.9077C43.9922 23.9447 44.0136 23.9946 44.0148 24.047V26.1756C44.0148 26.2284 43.9939 26.279 43.9566 26.3163C43.9193 26.3536 43.8686 26.3746 43.8159 26.3746C43.7631 26.3746 43.7125 26.3536 43.6752 26.3163C43.6379 26.279 43.6169 26.2284 43.6169 26.1756V24.0619C43.6156 24.0347 43.6197 24.0075 43.6291 23.9819C43.6384 23.9564 43.6528 23.9329 43.6713 23.913C43.6899 23.8931 43.7122 23.877 43.737 23.8659C43.7619 23.8547 43.7887 23.8487 43.8159 23.848Z" fill="#C7C7C7"/>
<path d="M44.7114 23.848C44.7646 23.848 44.8157 23.8688 44.8539 23.906C44.892 23.9432 44.914 23.9937 44.9153 24.047V26.1756C44.9077 26.2236 44.8833 26.2673 44.8464 26.2989C44.8094 26.3304 44.7625 26.3478 44.7139 26.3478C44.6653 26.3478 44.6183 26.3304 44.5814 26.2989C44.5445 26.2673 44.52 26.2236 44.5125 26.1756V24.0619C44.5111 24.0347 44.5152 24.0075 44.5246 23.9819C44.5339 23.9564 44.5483 23.9329 44.5668 23.913C44.5854 23.8931 44.6077 23.877 44.6325 23.8659C44.6574 23.8547 44.6842 23.8487 44.7114 23.848Z" fill="#C7C7C7"/>
<path d="M45.7806 24.1215C45.7813 24.1478 45.7767 24.174 45.7669 24.1984C45.7571 24.2229 45.7425 24.2451 45.7239 24.2637C45.7053 24.2823 45.6831 24.2969 45.6586 24.3067C45.6342 24.3164 45.608 24.3211 45.5817 24.3204C45.5298 24.3191 45.4805 24.2976 45.4442 24.2604C45.408 24.2233 45.3877 24.1734 45.3877 24.1215V24.0618C45.3877 24.0099 45.408 23.96 45.4442 23.9229C45.4805 23.8857 45.5298 23.8642 45.5817 23.8629C45.608 23.8622 45.6342 23.8669 45.6586 23.8766C45.6831 23.8864 45.7053 23.901 45.7239 23.9196C45.7425 23.9382 45.7571 23.9604 45.7669 23.9849C45.7767 24.0093 45.7813 24.0355 45.7806 24.0618V24.1215ZM45.7806 24.773V26.1755C45.7732 26.2223 45.7493 26.2648 45.7133 26.2955C45.6773 26.3263 45.6315 26.3431 45.5842 26.3431C45.5369 26.3431 45.4911 26.3263 45.4551 26.2955C45.4191 26.2648 45.3952 26.2223 45.3877 26.1755V24.773C45.3832 24.7446 45.3849 24.7155 45.3927 24.6878C45.4005 24.6601 45.4142 24.6344 45.4328 24.6125C45.4515 24.5906 45.4747 24.5731 45.5009 24.561C45.527 24.549 45.5554 24.5427 45.5842 24.5427C45.613 24.5427 45.6414 24.549 45.6675 24.561C45.6937 24.5731 45.7169 24.5906 45.7355 24.6125C45.7542 24.6344 45.7679 24.6601 45.7757 24.6878C45.7835 24.7155 45.7852 24.7446 45.7806 24.773Z" fill="#C7C7C7"/>
<path d="M47.8994 25.3201V26.1805C47.8994 26.2306 47.8795 26.2787 47.844 26.3141C47.8086 26.3496 47.7605 26.3695 47.7104 26.3695C47.6607 26.3682 47.6133 26.3479 47.5781 26.3128C47.543 26.2776 47.5226 26.2302 47.5214 26.1805V25.3201C47.5207 25.2718 47.5106 25.224 47.4915 25.1796C47.4724 25.1352 47.4447 25.095 47.4101 25.0613C47.3754 25.0276 47.3345 25.001 47.2896 24.9831C47.2447 24.9652 47.1967 24.9564 47.1484 24.957C47.1005 24.9564 47.053 24.9653 47.0086 24.9833C46.9643 25.0013 46.924 25.028 46.8902 25.0619C46.8563 25.0957 46.8296 25.136 46.8116 25.1804C46.7936 25.2247 46.7846 25.2722 46.7853 25.3201V26.1805C46.7874 26.192 46.7874 26.2038 46.7853 26.2153C46.7752 26.2592 46.7505 26.2983 46.7153 26.3263C46.68 26.3543 46.6363 26.3695 46.5913 26.3695C46.5412 26.3695 46.4931 26.3496 46.4577 26.3141C46.4223 26.2787 46.4023 26.2306 46.4023 26.1805V24.7631C46.4023 24.7125 46.4221 24.6639 46.4574 24.6276C46.4927 24.5914 46.5408 24.5704 46.5913 24.5691C46.6289 24.5693 46.6657 24.5801 46.6974 24.6004C46.7291 24.6206 46.7544 24.6494 46.7704 24.6835C46.8844 24.6093 47.0173 24.5696 47.1533 24.5691C47.3513 24.5717 47.5403 24.6518 47.6797 24.7922C47.8192 24.9326 47.8981 25.1222 47.8994 25.3201Z" fill="#C7C7C7"/>
<path d="M50.2166 25.4843V26.1507C50.2153 26.3799 50.1237 26.5992 49.9617 26.7612C49.7997 26.9232 49.5803 27.0148 49.3512 27.0161C49.2198 27.0178 49.09 26.987 48.9733 26.9266C48.9272 26.9041 48.8919 26.8643 48.8751 26.8158C48.8583 26.7673 48.8614 26.7142 48.8837 26.668C48.8949 26.6445 48.9106 26.6236 48.93 26.6063C48.9493 26.589 48.972 26.5758 48.9966 26.5675C49.0212 26.5591 49.0472 26.5558 49.0731 26.5577C49.099 26.5596 49.1242 26.5666 49.1473 26.5785C49.2105 26.6106 49.2803 26.6277 49.3512 26.6282C49.4619 26.6254 49.5685 26.5857 49.6541 26.5154C49.7397 26.4451 49.7994 26.3483 49.8237 26.2403C49.6842 26.3346 49.5196 26.3848 49.3512 26.3845C49.2358 26.3842 49.1217 26.3597 49.0164 26.3126C48.911 26.2655 48.8167 26.1968 48.7395 26.111C48.5764 25.9411 48.4855 25.7148 48.4858 25.4793C48.487 25.2412 48.5775 25.0123 48.7395 24.8377C48.8177 24.7535 48.9123 24.6863 49.0175 24.6401C49.1227 24.5939 49.2363 24.5697 49.3512 24.5692C49.5294 24.5652 49.7039 24.6193 49.8486 24.7234C49.8568 24.6795 49.8803 24.6399 49.9149 24.6117C49.9495 24.5835 49.9929 24.5684 50.0376 24.5692C50.089 24.5692 50.1384 24.5896 50.1747 24.626C50.2111 24.6624 50.2315 24.7117 50.2315 24.7631V25.4793L50.2166 25.4843ZM49.8287 25.4843C49.8304 25.3493 49.7827 25.2184 49.6944 25.1163C49.6512 25.068 49.5983 25.0293 49.5392 25.0027C49.4801 24.9761 49.416 24.9623 49.3512 24.9621C49.2878 24.9621 49.2252 24.9759 49.1677 25.0025C49.1101 25.0292 49.0591 25.068 49.018 25.1163C48.9249 25.2161 48.8733 25.3477 48.8738 25.4843C48.8714 25.5522 48.8829 25.62 48.9078 25.6833C48.9326 25.7466 48.9701 25.8041 49.018 25.8523C49.0593 25.9 49.1106 25.938 49.1681 25.9638C49.2257 25.9896 49.2882 26.0025 49.3512 26.0015C49.4157 26.0023 49.4796 25.9893 49.5388 25.9636C49.5979 25.9379 49.6509 25.9 49.6944 25.8523C49.7851 25.7497 49.8331 25.6162 49.8287 25.4793V25.4843Z" fill="#C7C7C7"/>
<path d="M51.2065 25.8623C51.2782 25.8623 51.347 25.8904 51.3981 25.9407C51.4493 25.9909 51.4787 26.0592 51.48 26.1309C51.4794 26.1661 51.4718 26.2009 51.4577 26.2333C51.4436 26.2656 51.4232 26.2949 51.3978 26.3193C51.3724 26.3438 51.3425 26.3631 51.3096 26.3759C51.2768 26.3888 51.2417 26.3951 51.2065 26.3945C51.1366 26.3945 51.0695 26.3667 51.0201 26.3173C50.9706 26.2678 50.9429 26.2008 50.9429 26.1309C50.9429 26.0605 50.9705 25.9929 51.0198 25.9427C51.0691 25.8925 51.1361 25.8636 51.2065 25.8623Z" fill="#C7C7C7"/>
<path d="M52.0371 25.8623C52.0724 25.8623 52.1073 25.8692 52.1399 25.8827C52.1725 25.8962 52.2021 25.916 52.227 25.941C52.252 25.9659 52.2717 25.9955 52.2852 26.0281C52.2987 26.0607 52.3057 26.0956 52.3057 26.1309C52.3057 26.2021 52.2774 26.2704 52.227 26.3208C52.1767 26.3711 52.1084 26.3994 52.0371 26.3994C51.9659 26.3994 51.8976 26.3711 51.8472 26.3208C51.7969 26.2704 51.7686 26.2021 51.7686 26.1309C51.7686 26.0596 51.7969 25.9913 51.8472 25.941C51.8976 25.8906 51.9659 25.8623 52.0371 25.8623Z" fill="#C7C7C7"/>
<path d="M52.8627 25.8623C52.9344 25.8623 53.0033 25.8904 53.0544 25.9407C53.1056 25.9909 53.135 26.0592 53.1363 26.1309C53.1356 26.1661 53.128 26.2009 53.1139 26.2333C53.0998 26.2656 53.0795 26.2949 53.0541 26.3193C53.0287 26.3438 52.9987 26.3631 52.9659 26.3759C52.933 26.3888 52.898 26.3951 52.8627 26.3945C52.7928 26.3945 52.7258 26.3667 52.6763 26.3173C52.6269 26.2678 52.5991 26.2008 52.5991 26.1309C52.5991 26.0605 52.6267 25.9929 52.676 25.9427C52.7253 25.8925 52.7924 25.8636 52.8627 25.8623Z" fill="#C7C7C7"/>
<path d="M51.2214 48.5614C50.2858 49.1429 49.2633 49.5711 48.1925 49.8296C45.6247 50.4569 42.9148 50.093 40.6035 48.8105C38.2921 47.528 36.5493 45.4213 35.7227 42.9106C34.896 40.3998 35.0464 37.6697 36.1437 35.265C37.2411 32.8602 39.2047 30.9576 41.6429 29.9367C44.0811 28.9157 46.8146 28.8516 49.2979 29.7571C51.7813 30.6625 53.8321 32.4709 55.041 34.8216C56.2499 37.1723 56.5281 39.8923 55.8201 42.439C55.1122 44.9858 53.47 47.1719 51.2214 48.5614Z" fill="#C7C7C7"/>
<path d="M48.8989 38.4303C48.8989 39.0628 48.7113 39.6811 48.3599 40.207C48.0085 40.7329 47.5091 41.1428 46.9247 41.3848C46.3404 41.6269 45.6974 41.6902 45.077 41.5668C44.4567 41.4434 43.8868 41.1388 43.4396 40.6916C42.9923 40.2443 42.6878 39.6745 42.5644 39.0542C42.441 38.4338 42.5043 37.7908 42.7464 37.2065C42.9884 36.6221 43.3983 36.1227 43.9242 35.7713C44.4501 35.4199 45.0684 35.2323 45.7009 35.2323C46.121 35.2316 46.5372 35.3139 46.9255 35.4744C47.3138 35.6349 47.6666 35.8704 47.9637 36.1675C48.2608 36.4646 48.4963 36.8174 48.6568 37.2057C48.8173 37.594 48.8995 38.0101 48.8989 38.4303Z" fill="white"/>
<path d="M51.2214 47.2434V48.5614C50.2858 49.1429 49.2633 49.5711 48.1925 49.8296C46.8396 50.1625 45.4337 50.2214 44.0577 50.0027C42.6816 49.7841 41.3633 49.2923 40.1802 48.5564V47.2434C40.1802 45.7792 40.7618 44.375 41.7971 43.3397C42.8324 42.3044 44.2366 41.7228 45.7008 41.7228C47.1649 41.7228 48.5691 42.3044 49.6044 43.3397C50.6397 44.375 51.2214 45.7792 51.2214 47.2434Z" fill="white"/>
<path d="M138.437 178.087C138.437 178.087 121.303 186.198 98.7981 186.198C74.9004 186.198 63.3121 178.415 63.3121 178.415C45.8601 164.713 44.0597 144.411 56.5084 132.101C64.0433 124.641 69.5539 126.158 78.6654 124.974H78.6902C81.9088 124.633 85.0393 123.713 87.931 122.259C97.3111 117.31 102.603 105.637 110.496 95.8147C111.491 94.5813 112.52 93.3877 113.584 92.2338C120.05 85.3007 132.981 85.0769 139.75 94.82C156.919 119.553 156.436 156.402 138.437 178.087Z" fill="#00AEF0"/>
<g opacity="0.1">
<path d="M138.437 178.087C138.437 178.087 121.303 186.198 98.7981 186.198C74.9004 186.198 63.3121 178.415 63.3121 178.415C45.8601 164.713 44.0597 144.411 56.5084 132.101C64.0433 124.641 69.5539 126.158 78.6654 124.974H78.6902C81.9088 124.633 85.0393 123.713 87.931 122.259C97.3111 117.31 102.603 105.637 110.496 95.8147C111.491 94.5813 112.52 93.3877 113.584 92.2338C120.05 85.3007 132.981 85.0769 139.75 94.82C156.919 119.553 156.436 156.402 138.437 178.087Z" fill="black"/>
</g>
<path opacity="0.1" d="M90.4676 158.123C113.346 163.753 134.319 150.901 136.199 121.443C137.577 99.8731 122.233 89.6874 110.476 95.7949C102.603 105.627 97.3161 117.29 87.9311 122.239C85.0394 123.693 81.9089 124.613 78.6903 124.955H78.6605L77.6907 125.074C67.2513 131.609 72.7022 153.751 90.4676 158.123Z" fill="black"/>
<path d="M69.6832 196.941C70.8072 196.757 98.1765 182.319 98.8728 181.11C99.1364 180.653 97.2663 176.545 94.8641 171.661C94.3668 170.601 93.8047 169.512 93.2477 168.408C89.6469 161.241 85.6532 153.716 85.6532 153.716L67.3208 163.32L75.4177 177.743L77.1932 180.911C77.1932 180.911 69.1908 191.117 68.5841 192.525C67.9773 193.932 68.5841 197.14 69.6832 196.941Z" fill="#F7A9A0"/>
<path d="M69.683 196.941C70.8071 196.757 98.1713 182.324 98.8676 181.11C99.1063 180.708 97.6789 177.465 95.6945 173.342C94.5854 174.879 78.4961 187.536 73.3137 188.571C71.19 188.993 74.6715 184.174 74.8058 183.97C72.3936 187.103 68.9669 191.614 68.569 192.52C67.9523 193.932 68.5541 197.14 69.683 196.941Z" fill="#263238"/>
<path d="M74.4927 184.363C74.4927 184.363 76.9148 182.418 81.2964 184.433L74.4927 184.363Z" fill="#263238"/>
<path d="M56.568 140.661C57.8561 149.056 73.9255 177.634 73.9255 177.634L93.5162 167.01L81.6494 146.465C81.6494 146.465 107.601 150.822 117.747 147.106C128.574 143.128 127.625 130.341 127.625 130.341L101.906 126.059C101.628 126.777 101.106 127.375 100.431 127.748C99.7567 128.12 98.9727 128.244 98.2161 128.098C88.2343 126.849 74.5621 126.606 69.2803 126.914C62.4666 127.337 55.3893 132.982 56.568 140.661Z" fill="#37474F"/>
<path d="M76.0442 139.223C76.6199 139.843 77.1549 140.499 77.6457 141.188C78.1978 141.879 78.7548 142.561 79.3019 143.252C79.2024 143.048 79.1079 142.844 79.0035 142.645C78.6504 141.954 78.3669 141.238 77.9541 140.581C77.9292 140.541 77.9938 140.502 78.0187 140.541C78.4415 141.193 78.9289 141.815 79.2919 142.501C79.466 142.824 79.6301 143.153 79.7893 143.496C79.8738 143.675 79.9584 143.859 80.033 144.048C80.0737 144.135 80.1087 144.225 80.1374 144.316C80.3861 144.635 80.6348 144.958 80.8636 145.281C81.3858 146.012 81.8583 146.773 82.3855 147.499C82.4103 147.539 82.3506 147.574 82.3208 147.539C81.7886 146.863 81.1868 146.236 80.6447 145.55C80.1026 144.863 79.5655 144.162 79.0433 143.451C78.521 142.74 78.0486 142.063 77.5512 141.372C76.9957 140.691 76.4841 139.975 76.0194 139.228C76.0094 139.233 76.0442 139.204 76.0442 139.223Z" fill="#263238"/>
<path d="M72.9157 173.108C73.413 172.755 73.9751 172.432 74.5122 172.113C75.0493 171.795 75.5666 171.467 76.0987 171.148C77.1879 170.497 78.2871 169.865 79.3862 169.229C81.5895 167.955 83.8176 166.712 86.0358 165.464C87.2842 164.767 88.5226 164.091 89.7908 163.405C89.8157 163.405 89.8455 163.405 89.8207 163.444C87.687 164.767 85.5434 166.08 83.38 167.364C81.2165 168.647 78.9834 169.935 76.7503 171.168C76.1286 171.511 75.5019 171.845 74.8753 172.163C74.2486 172.481 73.607 172.849 72.9505 173.158C72.9207 173.173 72.8859 173.128 72.9157 173.108Z" fill="#263238"/>
<path d="M124.033 130.992C124.129 134.39 122.927 137.696 120.671 140.238C119.535 141.471 118.17 142.473 116.653 143.187C115.126 143.877 113.499 144.32 111.833 144.5C108.496 144.91 105.132 145.051 101.772 144.923C98.4099 144.824 95.0478 144.565 91.7106 144.152C88.369 143.77 85.055 143.177 81.7884 142.377C80.9777 142.168 80.1671 141.939 79.3713 141.675C78.9734 141.541 78.5805 141.402 78.1926 141.253C77.7997 141.072 77.3898 140.93 76.9691 140.83C76.7411 140.783 76.5058 140.783 76.2778 140.83C76.1504 140.859 76.0324 140.92 75.935 141.007C75.8376 141.094 75.7638 141.204 75.7207 141.327C75.6807 141.442 75.6622 141.564 75.666 141.685C75.6654 141.808 75.6873 141.929 75.7307 142.043C75.8003 142.257 75.8898 142.451 75.9744 142.645C76.3325 143.416 76.7254 144.137 77.1233 144.908C80.361 150.827 83.8475 156.596 87.3438 162.355C85.6429 159.451 83.9585 156.533 82.2907 153.602C80.6147 150.677 78.9436 147.753 77.3719 144.774C76.984 144.033 76.5911 143.282 76.2529 142.521C76.1722 142.329 76.1024 142.133 76.044 141.934C76.0112 141.853 75.9927 141.767 75.9893 141.68C75.9908 141.591 76.0059 141.502 76.0341 141.417C76.1236 141.079 76.5314 141.039 76.9343 141.113C77.3337 141.208 77.7221 141.345 78.0931 141.521C78.491 141.675 78.8889 141.82 79.2917 141.954C80.0924 142.223 80.9081 142.451 81.7238 142.67C84.9973 143.487 88.3197 144.093 91.6708 144.485C95.0229 144.888 98.395 145.137 101.767 145.226C105.145 145.344 108.528 145.178 111.878 144.729C113.567 144.527 115.213 144.061 116.757 143.347C118.292 142.607 119.667 141.575 120.806 140.308C121.916 139.041 122.761 137.565 123.292 135.966C123.842 134.367 124.093 132.682 124.033 130.992Z" fill="#263238"/>
<path d="M94.2821 199.96C95.3465 199.547 119.105 179.728 119.533 178.4C119.697 177.902 117.016 174.267 113.644 169.975C112.918 169.045 112.152 168.095 111.386 167.13C106.383 160.868 100.912 154.368 100.912 154.368L84.9966 167.582L95.9383 180.016L98.3355 182.747C98.3355 182.747 92.6309 194.405 92.3176 195.912C92.0043 197.419 93.2228 200.378 94.2821 199.96Z" fill="#F7A9A0"/>
<path d="M94.282 199.96C95.3463 199.547 119.105 179.728 119.533 178.4C119.677 177.957 117.608 175.083 114.808 171.462C114.037 173.198 100.937 188.924 96.0824 191.018C94.093 191.873 96.4952 186.432 96.5798 186.203C94.8788 189.764 92.4617 194.897 92.2628 195.862C91.9594 197.374 93.2177 200.378 94.282 199.96Z" fill="#263238"/>
<path d="M96.3662 186.656C96.3662 186.656 98.3307 184.249 103.036 185.308L96.3662 186.656Z" fill="#263238"/>
<path d="M68.0865 143.148C69.3696 151.543 90.6264 175.406 93.0833 178.146L93.6404 178.768L110.525 165.22L110.322 164.971L98.6586 150.852C98.6586 150.852 117.294 158.148 125.953 146.823C129.4 142.317 127.624 130.341 127.624 130.341L106.964 127.014C106.964 127.014 106.442 130.55 103.548 130.192C93.5707 128.943 85.7325 127.834 80.4506 128.157C73.6319 128.555 66.9028 135.469 68.0865 143.148Z" fill="#37474F"/>
<path d="M102.986 130.092C96.5751 129.177 90.1394 128.341 83.6589 128.048C82.8482 128.018 82.0325 128.003 81.2219 128.013C80.4024 128.014 79.5842 128.078 78.7749 128.207C78.3696 128.288 77.972 128.402 77.5862 128.55C77.1983 128.685 76.8203 128.834 76.4473 129.003C75.698 129.33 74.9747 129.714 74.2838 130.152C72.8888 131.017 71.6455 132.106 70.6034 133.375C69.0263 135.292 68.0643 137.641 67.8431 140.114C67.8133 140.318 67.8083 140.522 67.7984 140.725C67.7884 140.929 67.7984 141.138 67.7984 141.347C67.8122 141.761 67.8537 142.173 67.9227 142.581C68.2598 144.183 68.7996 145.735 69.5291 147.201C70.9692 150.115 72.6424 152.907 74.5325 155.552C76.3876 158.212 78.3571 160.789 80.3863 163.315C82.4155 165.842 84.5293 168.289 86.6629 170.736C84.574 168.249 82.515 165.762 80.5256 163.206C78.5362 160.649 76.5816 158.063 74.7613 155.392C72.9076 152.745 71.2583 149.96 69.8276 147.062C69.1166 145.62 68.5918 144.095 68.2659 142.521C68.199 142.131 68.1592 141.737 68.1465 141.342C68.1465 140.949 68.1714 140.541 68.2062 140.149C68.2837 139.353 68.4369 138.567 68.6638 137.801C69.1202 136.266 69.8758 134.836 70.8869 133.593C71.8979 132.347 73.1098 131.278 74.4728 130.43C75.1492 129.999 75.8575 129.62 76.5915 129.296C76.9546 129.132 77.3276 128.983 77.7056 128.849C78.0773 128.706 78.4598 128.593 78.8495 128.511C79.6411 128.386 80.4406 128.32 81.2418 128.312C82.0475 128.312 82.8532 128.312 83.6639 128.312C86.8966 128.406 90.1294 128.685 93.3473 128.998C96.5651 129.311 99.7731 129.684 102.986 130.092Z" fill="#263238"/>
<path d="M92.3472 142.531C92.9211 143.151 93.4543 143.807 93.9437 144.495C94.4958 145.182 95.0528 145.863 95.5999 146.554C95.5004 146.351 95.4059 146.147 95.3015 145.948C94.9533 145.256 94.6649 144.54 94.257 143.884C94.257 143.844 94.2919 143.804 94.3167 143.844C94.7395 144.495 95.2269 145.117 95.5949 145.803C95.764 146.132 95.9281 146.46 96.0923 146.798C96.1719 146.982 96.2614 147.161 96.336 147.35C96.3708 147.435 96.4106 147.524 96.4404 147.619C96.6841 147.937 96.9378 148.26 97.1616 148.613C97.6888 149.34 98.1563 150.106 98.6835 150.827C98.7133 150.866 98.6487 150.906 98.6188 150.866C98.0867 150.19 97.4849 149.563 96.9427 148.877C96.4006 148.191 95.8635 147.489 95.3413 146.783C94.8191 146.077 94.3466 145.391 93.8492 144.699C93.2954 144.018 92.7838 143.304 92.3174 142.561C92.3174 142.557 92.3182 142.553 92.3197 142.549C92.3212 142.546 92.3234 142.542 92.3261 142.54C92.3289 142.537 92.3322 142.535 92.3358 142.533C92.3394 142.532 92.3433 142.531 92.3472 142.531Z" fill="#263238"/>
<path d="M91.7456 174.898C92.1932 174.466 92.6806 174.058 93.1531 173.645L94.5556 172.427C95.5205 171.601 96.5002 170.795 97.475 169.985C99.4346 168.358 101.414 166.757 103.398 165.155C104.508 164.255 105.637 163.38 106.751 162.49C106.751 162.49 106.805 162.49 106.785 162.524C104.905 164.182 103.009 165.84 101.096 167.498C99.1826 169.156 97.2181 170.779 95.2021 172.367C94.6451 172.805 94.0881 173.242 93.5261 173.67C92.9641 174.098 92.3871 174.565 91.7903 174.968C91.7655 174.963 91.7207 174.923 91.7456 174.898Z" fill="#263238"/>
<path d="M124.75 131.355C125.042 133.188 125.089 135.051 124.889 136.896C124.714 138.739 124.195 140.532 123.357 142.183C122.502 143.82 121.202 145.182 119.607 146.112C117.988 146.999 116.185 147.499 114.34 147.574C112.496 147.686 110.645 147.616 108.815 147.365C106.975 147.131 105.148 146.799 103.344 146.37C99.7375 145.519 96.1945 144.419 92.7402 143.078L92.6109 143.023L92.5462 143.138C92.3046 143.572 92.1476 144.048 92.0837 144.54C92.0066 145.024 92.0066 145.518 92.0837 146.002C92.169 146.482 92.3161 146.948 92.5214 147.39C92.7502 147.813 93.0077 148.22 93.2923 148.608C94.4014 150.15 95.605 151.593 96.8135 153.085C98.0221 154.577 99.2505 155.979 100.494 157.402C101.737 158.824 102.981 160.241 104.254 161.649C103.02 160.217 101.802 158.769 100.588 157.322C99.3749 155.875 98.1713 154.418 96.9776 152.95C95.784 151.483 94.6053 150.006 93.5211 148.474C93.2514 148.097 93.0087 147.702 92.7949 147.29C92.6054 146.873 92.4684 146.434 92.3871 145.982C92.228 145.081 92.3714 144.153 92.7949 143.341L92.601 143.401C96.0638 144.766 99.6188 145.885 103.239 146.748C105.044 147.176 106.87 147.508 108.71 147.743C110.563 147.986 112.435 148.048 114.3 147.927C116.186 147.845 118.025 147.316 119.667 146.385C121.289 145.413 122.604 144.003 123.462 142.317C124.294 140.641 124.791 138.818 124.924 136.951C125.116 135.086 125.057 133.204 124.75 131.355Z" fill="#263238"/>
<path d="M115.862 130.679C116.007 131.674 116.21 132.639 116.439 133.608C116.593 134.492 116.919 135.337 117.399 136.095C117.917 136.765 118.583 137.306 119.344 137.677C119.777 137.908 120.224 138.112 120.682 138.289C121.154 138.445 121.615 138.636 122.059 138.86C122.077 138.871 122.091 138.888 122.099 138.907C122.107 138.927 122.109 138.948 122.104 138.969C122.099 138.989 122.088 139.008 122.072 139.021C122.056 139.035 122.036 139.043 122.015 139.044C121.487 139.011 120.966 138.913 120.463 138.751C119.973 138.622 119.494 138.456 119.03 138.254C118.188 137.864 117.459 137.267 116.912 136.518C116.401 135.701 116.08 134.78 115.972 133.822C115.788 132.792 115.708 131.745 115.733 130.699C115.733 130.594 115.832 130.594 115.862 130.679Z" fill="#263238"/>
<path d="M114.34 78.0095C114.34 78.0095 118.772 76.0201 122.348 78.671C125.924 81.3219 127.242 87.2553 126.197 92.0497C125.153 96.8442 128.843 100.37 128.972 104.011C129.102 107.652 126.6 109.119 125.65 110.944C124.561 113.033 127.57 121.02 118.16 122.04C106.388 123.313 102.543 115.823 104.209 110.029C105.025 107.189 106.82 105.274 106.984 102.937C107.149 100.599 105.647 98.5998 106.751 95.7102C107.855 92.8206 108.964 93.318 109.819 88.7075C110.675 84.0971 110.162 78.4621 114.34 78.0095Z" fill="#263238"/>
<path d="M121.547 78.497C123.872 80.2858 125.593 82.7434 126.48 85.5395C126.929 86.9267 127.144 88.3788 127.117 89.8366C127.077 91.7414 126.645 93.4921 127.197 95.387C128.082 98.4258 130.141 101.067 129.763 104.339C129.584 105.864 128.979 107.306 128.017 108.502C126.893 109.9 125.371 110.954 124.401 112.481C124.362 112.546 124.262 112.481 124.302 112.416C125.118 111.064 126.336 110.079 127.386 108.895C128.641 107.512 129.393 105.745 129.519 103.882C129.688 100.753 127.659 98.1722 126.853 95.2478C126.549 93.9634 126.501 92.6314 126.714 91.3286C126.909 89.7479 126.837 88.1456 126.5 86.5889C125.739 83.4463 123.997 80.6277 121.527 78.5417C121.527 78.5417 121.522 78.4771 121.547 78.497Z" fill="#263238"/>
<path d="M104.309 109.198C104.717 107.826 105.552 106.622 105.955 105.259C106.452 103.613 106.159 101.912 105.955 100.246C105.691 97.8687 105.925 95.6605 107.144 93.5368C107.93 92.1641 108.855 90.9008 109.471 89.4386C110.145 87.8527 110.584 86.1773 110.774 84.4651C110.774 84.4303 110.834 84.4352 110.834 84.4651C110.675 86.9501 109.941 89.3643 108.69 91.5175C107.954 92.7808 107.064 93.9545 106.582 95.3471C106.087 96.9919 105.956 98.7247 106.199 100.425C106.35 101.579 106.399 102.744 106.343 103.907C106.18 105.079 105.808 106.213 105.244 107.254C103.898 110.007 103.655 113.17 104.562 116.097C104.562 116.146 104.488 116.176 104.468 116.121C103.703 113.885 103.647 111.467 104.309 109.198Z" fill="#263238"/>
<path d="M129.306 103.638C129.415 101.062 127.769 99.1619 126.868 96.8542C126.187 95.1035 125.774 93.2633 126.202 91.4331C126.202 91.4032 126.262 91.4331 126.257 91.4331C125.899 94.1038 126.824 96.6304 128.122 98.9978C128.987 100.574 129.683 102.076 129.544 103.877C129.405 105.677 128.584 107.06 127.46 108.437C126.66 109.432 125.879 110.327 125.471 111.531C125.129 112.743 124.962 113.997 124.974 115.256C124.974 115.321 124.869 115.311 124.869 115.256C124.869 113.316 124.984 111.451 126.093 109.785C127.475 107.696 129.196 106.234 129.306 103.638Z" fill="#263238"/>
<path d="M104.015 107.338C104.503 106.5 105.065 105.707 105.697 104.971C106.801 103.608 107.059 102.449 106.875 100.709C106.878 100.702 106.882 100.697 106.888 100.693C106.894 100.689 106.901 100.687 106.908 100.687C106.915 100.687 106.921 100.689 106.927 100.693C106.933 100.697 106.937 100.702 106.94 100.709C107.293 102.161 107.308 103.345 106.363 104.573C105.045 106.294 103.767 107.851 103.349 109.999C102.603 113.809 104.483 117.574 107.825 119.812C107.875 119.842 107.825 119.911 107.775 119.882C106.4 119.104 105.237 118 104.389 116.667C103.54 115.334 103.033 113.813 102.911 112.237C102.819 110.534 103.202 108.838 104.015 107.338Z" fill="#263238"/>
<path d="M112.52 103.195C110.421 113.033 107.203 121.324 104.493 123.249C102.304 124.805 83.952 128.411 83.3104 128.481C81.7288 128.64 78.7447 118.255 79.829 116.937C80.0776 116.634 97.7336 114.983 98.2906 114.411C98.8477 113.839 104.095 106.831 108.302 101.445C111.237 97.6698 113.684 97.7394 112.52 103.195Z" fill="#F7A9A0"/>
<path d="M86.4587 127.307C84.948 128.045 83.3914 128.684 81.7986 129.222C80.5253 129.59 76.8251 130.55 76.2929 129.192C75.9199 128.262 78.0237 127.441 79.4958 126.83C80.2767 126.506 81.2316 125.691 80.9879 125.193C80.59 124.318 78.5907 125.193 77.2727 125.959C74.7312 127.451 71.3443 130.097 69.7875 128.804C69.2056 128.307 69.887 127.431 70.8817 126.561C69.2653 127.556 67.5395 128.406 66.8631 127.889C66.6907 127.756 66.5753 127.562 66.5402 127.347C66.5052 127.132 66.553 126.911 66.6741 126.73C66.4703 126.825 66.2427 126.858 66.0204 126.823C65.7981 126.788 65.5911 126.689 65.4258 126.536C64.8986 125.984 65.1572 125.173 65.7341 124.343C65.6313 124.335 65.5321 124.302 65.4453 124.246C65.3584 124.191 65.2868 124.115 65.2368 124.024C64.1227 122.328 69.7129 117.454 71.6277 116.997C75.4726 116.177 79.4121 115.889 83.3354 116.141C85.5983 117.922 86.4587 127.302 86.4587 127.307Z" fill="#F7A9A0"/>
<path d="M78.1132 122.04C76.7613 122.242 75.4706 122.739 74.3333 123.497C73.0054 124.407 71.956 125.651 70.7325 126.675C70.7276 126.678 70.7234 126.681 70.7201 126.685C70.7168 126.69 70.7146 126.695 70.7135 126.7C70.7125 126.705 70.7127 126.711 70.7142 126.716C70.7156 126.721 70.7182 126.726 70.7218 126.73C70.7254 126.734 70.7299 126.737 70.7349 126.739C70.74 126.741 70.7454 126.742 70.7507 126.741C70.7561 126.741 70.7613 126.739 70.7659 126.736C70.7705 126.734 70.7744 126.73 70.7773 126.725C71.3542 126.193 71.9858 125.73 72.5826 125.233C73.1795 124.736 73.7365 124.238 74.3482 123.741C75.4621 122.905 76.751 122.332 78.1182 122.065C78.1182 122.065 78.1281 122.04 78.1132 122.04Z" fill="#263238"/>
<path d="M77.0389 119.608C75.5235 119.965 74.0486 120.477 72.6373 121.135C71.1204 121.906 69.9367 123.164 68.7729 124.373C68.07 125.105 67.3853 125.848 66.7188 126.601C66.694 126.631 66.7188 126.685 66.7636 126.65C67.9473 125.402 69.1658 124.164 70.4241 123.01C71.5821 121.91 72.9461 121.049 74.4377 120.478C75.2932 120.155 76.1685 119.896 77.0439 119.638L77.0389 119.608Z" fill="#263238"/>
<path d="M75.4672 117.504C74.0199 117.803 72.7517 118.056 71.4884 118.832C70.0479 119.788 68.7329 120.921 67.5743 122.204C66.9376 122.881 66.3259 123.582 65.7241 124.288C65.6992 124.318 65.7241 124.363 65.7738 124.333C67.1508 122.779 68.6278 121.317 70.1953 119.956C70.9358 119.295 71.7747 118.753 72.682 118.35C73.595 117.992 74.5367 117.712 75.4971 117.514C75.4971 117.514 75.4722 117.504 75.4672 117.504Z" fill="#263238"/>
<path d="M83.0469 115.788L86.5283 128.963C86.5283 128.963 100.912 126.049 104.891 123.194C108.869 120.339 111.829 107.751 112.848 102.305C113.868 96.8591 110.182 98.5501 107.929 101.36C105.676 104.17 98.2857 113.794 98.037 114.013C97.7884 114.232 83.0469 115.788 83.0469 115.788Z" fill="#DBDBDB"/>
<path d="M89.8607 127.74C89.6767 126.745 89.3634 125.775 89.0799 124.805C88.7964 123.835 88.5278 122.895 88.2443 121.945C87.6674 120.026 87.1303 118.076 86.429 116.196C86.429 116.187 86.4253 116.178 86.4188 116.171C86.4123 116.165 86.4034 116.161 86.3942 116.161C86.385 116.161 86.3761 116.165 86.3696 116.171C86.363 116.178 86.3594 116.187 86.3594 116.196C86.7473 118.185 87.3541 120.13 87.9111 122.07C88.1996 123.045 88.498 124.014 88.8063 124.979C89.088 125.92 89.42 126.845 89.8011 127.75C89.806 127.814 89.8657 127.784 89.8607 127.74Z" fill="#263238"/>
<path d="M112.848 102.295C111.804 107.766 108.824 120.339 104.89 123.184C102.901 124.611 98.3403 126.054 94.2471 127.138L111.092 98.8386C112.45 98.3711 113.445 99.127 112.848 102.295Z" fill="#C7C7C7"/>
<path d="M129.027 132.847L113.992 130.649L103.11 129.058L99.8477 128.56L102.334 119.683L103.359 115.997C103.359 115.997 101.564 112.899 102.434 110.228C103.429 107.204 111.516 98.9829 112.142 98.585C114.629 96.9984 117.374 96.894 119.737 100.162C120.959 102.03 121.935 104.047 122.641 106.165C123.139 107.463 123.581 108.87 124.019 110.327C126.998 120.314 129.027 132.847 129.027 132.847Z" fill="#DBDBDB"/>
<path d="M114.201 119.056C113.276 118.662 112.329 118.32 111.366 118.031C110.869 117.892 110.396 117.778 109.904 117.678C109.665 117.628 109.431 117.584 109.193 117.544C108.954 117.504 108.666 117.489 108.407 117.439C108.382 117.439 108.367 117.479 108.407 117.484C108.646 117.534 108.904 117.628 109.123 117.698L109.849 117.897C110.347 118.036 110.809 118.176 111.296 118.305C112.266 118.568 113.226 118.837 114.186 119.135C114.231 119.14 114.246 119.056 114.201 119.056Z" fill="#263238"/>
<path d="M103.339 116.017C102.571 114.899 102.119 113.595 102.031 112.242C101.987 111.558 102.061 110.872 102.25 110.213C102.465 109.565 102.754 108.945 103.11 108.363C103.838 107.234 104.656 106.166 105.557 105.17C106.449 104.174 107.399 103.233 108.402 102.35C107.507 103.345 106.621 104.339 105.776 105.334C104.917 106.342 104.133 107.411 103.428 108.532C103.078 109.083 102.791 109.672 102.573 110.288C102.392 110.911 102.305 111.558 102.314 112.207C102.353 113.54 102.704 114.845 103.339 116.017Z" fill="#263238"/>
<path d="M107.646 102.589C107.4 103.135 107.08 103.646 106.696 104.106C106.819 103.833 106.96 103.569 107.119 103.315C107.275 103.059 107.451 102.817 107.646 102.589Z" fill="#263238"/>
<path d="M117.324 99.1022C117.145 99.5995 114.306 102.653 111.968 102.27C111.207 102.146 111.709 97.9583 111.709 97.9583L111.675 97.6449L111.207 93.1986L116.678 90.5229L117.464 90.1797C117.464 90.1797 117.513 91.4032 117.558 92.9251C117.558 92.9997 117.558 93.0693 117.558 93.1439C117.558 93.2185 117.558 93.313 117.558 93.3926C117.558 93.6214 117.558 93.8551 117.583 94.0839C117.608 94.3127 117.583 94.432 117.583 94.6161C117.583 94.8001 117.583 94.9841 117.583 95.1731C117.586 96.4871 117.5 97.7999 117.324 99.1022Z" fill="#F7A9A0"/>
<path d="M117.568 92.9251C116.993 94.0966 116.169 95.1283 115.154 95.9479C114.138 96.7675 112.956 97.3552 111.689 97.6698L111.222 93.2235L116.693 90.5478L117.478 90.2046C117.478 90.2046 117.523 91.4032 117.568 92.9251Z" fill="#263238"/>
<path d="M111.719 97.9731L112.351 101.649L117.484 98.2666L118.379 99.8979C118.379 99.8979 112.798 105.826 112.848 105.513L112.082 102.295L109.63 103.892L110.859 98.8286L111.719 97.9731Z" fill="white"/>
<path d="M110.103 101.355C110.336 100.525 110.55 99.6841 110.824 98.8684C110.824 98.8386 110.884 98.8336 110.884 98.8684C110.884 99.7139 109.959 102.882 109.799 103.653C109.899 103.583 112.047 102.27 112.062 102.3C112.266 102.827 112.833 105.175 112.863 105.384C113.743 104.439 117.424 100.773 118.413 99.9128C118.443 99.888 118.483 99.9128 118.458 99.9526C117.648 100.967 112.848 105.826 112.848 105.801C112.522 104.682 112.255 103.547 112.047 102.4C111.231 103.029 110.372 103.6 109.476 104.11C109.636 103.181 109.845 102.262 110.103 101.355Z" fill="#263238"/>
<path d="M107.044 84.2413C103.563 91.2738 107.402 94.1435 108.919 94.8896C110.297 95.5659 115.072 97.6946 119.249 91.0599C123.427 84.4253 121.239 80.5857 118.18 78.8699C115.121 77.154 110.511 77.1839 107.044 84.2413Z" fill="#F7A9A0"/>
<path d="M108.636 83.4953C108.81 83.55 108.984 83.5749 109.163 83.6147C109.345 83.6765 109.543 83.6765 109.725 83.6147C109.78 83.5865 109.824 83.5409 109.85 83.4851C109.876 83.4293 109.883 83.3664 109.869 83.3063C109.824 83.1912 109.749 83.09 109.652 83.0131C109.555 82.9363 109.44 82.8864 109.317 82.8687C109.076 82.796 108.817 82.8173 108.591 82.9284C108.532 82.9522 108.483 82.9942 108.45 83.0481C108.416 83.102 108.401 83.1651 108.406 83.2282C108.411 83.2913 108.436 83.3513 108.477 83.3993C108.519 83.4473 108.574 83.4809 108.636 83.4953Z" fill="#263238"/>
<path d="M113.52 85.7333C113.369 85.634 113.225 85.5261 113.087 85.4101C112.918 85.2808 112.774 85.1962 112.704 84.9923C112.692 84.9322 112.7 84.87 112.726 84.8146C112.752 84.7591 112.795 84.7134 112.848 84.6839C112.965 84.644 113.091 84.6364 113.211 84.6618C113.332 84.6871 113.444 84.7446 113.535 84.8282C113.747 84.9641 113.9 85.1756 113.962 85.42C113.973 85.4761 113.967 85.5341 113.946 85.587C113.924 85.6399 113.888 85.6856 113.842 85.7186C113.795 85.7515 113.74 85.7705 113.683 85.7731C113.626 85.7757 113.569 85.7619 113.52 85.7333Z" fill="#263238"/>
<path d="M111.58 86.9668C111.58 86.9668 111.605 87.0116 111.58 87.0315C111.326 87.499 111.117 88.0809 111.475 88.4539C111.475 88.4539 111.475 88.4887 111.475 88.4787C110.978 88.1455 111.267 87.3746 111.58 86.9668Z" fill="#263238"/>
<path d="M112.251 86.6783C113.052 87.0016 112.351 88.5782 111.61 88.2798C110.869 87.9814 111.585 86.4097 112.251 86.6783Z" fill="#263238"/>
<path d="M112.525 86.9022C112.624 87.0514 112.689 87.2702 112.843 87.3597C112.997 87.4492 113.246 87.3597 113.445 87.2603C113.445 87.2603 113.47 87.2603 113.445 87.2901C113.316 87.5935 113.062 87.8521 112.719 87.7526C112.376 87.6532 112.316 87.3 112.376 86.9668C112.401 86.9022 112.485 86.8425 112.525 86.9022Z" fill="#263238"/>
<path d="M108.914 85.6538C108.914 85.6538 108.864 85.6538 108.859 85.6836C108.66 86.181 108.362 86.7132 107.835 86.6784C107.835 86.6784 107.81 86.7032 107.835 86.7032C108.402 86.8723 108.805 86.1561 108.914 85.6538Z" fill="#263238"/>
<path d="M108.7 84.9526C107.939 84.5497 107.208 86.1015 107.895 86.4745C108.581 86.8475 109.367 85.2908 108.7 84.9526Z" fill="#263238"/>
<path d="M108.327 84.8978C108.168 84.9227 107.974 85.0122 107.83 84.9526C107.686 84.8929 107.611 84.6492 107.581 84.4552C107.581 84.4552 107.581 84.4552 107.551 84.4552C107.458 84.5782 107.411 84.7305 107.421 84.8847C107.43 85.0388 107.494 85.1847 107.601 85.2957C107.84 85.4748 108.153 85.2957 108.367 85.052C108.397 84.9923 108.372 84.8879 108.327 84.8978Z" fill="#263238"/>
<path d="M108.626 88.3097C108.626 88.3097 108.193 88.986 108.034 89.3044C108.034 89.3342 108.099 89.3889 108.208 89.4486C108.476 89.6377 108.791 89.7493 109.118 89.7713C109.445 89.7932 109.772 89.7246 110.063 89.5729C110.072 89.5686 110.078 89.5614 110.082 89.5526C110.085 89.5438 110.086 89.534 110.083 89.525C110.08 89.516 110.073 89.5083 110.065 89.5034C110.057 89.4985 110.048 89.4967 110.038 89.4983C109.465 89.5969 108.875 89.5061 108.357 89.2397C108.357 89.1353 109.138 88.1057 109.088 88.0759C108.811 87.9762 108.522 87.9143 108.228 87.8919C109.093 86.4545 110.177 85.1664 111.018 83.7191C111.026 83.7086 111.029 83.6953 111.027 83.6822C111.026 83.6692 111.019 83.6574 111.008 83.6495C110.997 83.6416 110.984 83.6382 110.971 83.64C110.958 83.6419 110.946 83.6489 110.938 83.6594C109.732 85.0053 108.662 86.4681 107.745 88.0262C107.641 88.2201 108.467 88.3047 108.626 88.3097Z" fill="#263238"/>
<path d="M118.846 90.6571C117.404 90.4234 117.981 87.1409 117.981 87.1409C117.981 87.1409 112.361 84.4054 113.276 79.4419C111.954 81.1824 110.013 82.3472 107.855 82.6945C107.855 82.6945 109.611 77.4773 114.097 77.6763C114.097 77.6763 119.846 77.3082 121.557 82.2867C123.268 87.2652 119.811 90.8113 118.846 90.6571Z" fill="#263238"/>
<path d="M113.346 79.0789C113.058 79.8024 112.929 80.5791 112.968 81.3567C112.99 82.1426 113.176 82.9152 113.515 83.6246C113.597 83.7959 113.69 83.962 113.793 84.122L113.942 84.3757C113.997 84.4602 114.057 84.5348 114.116 84.6144C114.241 84.7686 114.355 84.9277 114.484 85.0719C114.614 85.2162 114.758 85.3505 114.897 85.4847C115.037 85.619 115.037 85.624 115.111 85.6837L115.34 85.8627L115.802 86.2158C116.131 86.4198 116.469 86.6088 116.797 86.7878C116.504 86.5391 116.19 86.3253 115.902 86.0766L115.479 85.6986L115.27 85.5046C115.206 85.44 115.146 85.3654 115.086 85.2957C115.027 85.2261 114.838 85.0123 114.708 84.873C114.579 84.7337 114.494 84.5696 114.385 84.4204L114.221 84.1966L114.082 83.9529C113.987 83.7919 113.9 83.6259 113.823 83.4555C113.503 82.7805 113.301 82.0554 113.226 81.312C113.188 80.9369 113.18 80.5594 113.201 80.183C113.219 79.8116 113.267 79.4423 113.346 79.0789Z" fill="#263238"/>
<path d="M117.822 93.2733C117.698 93.2746 117.574 93.2596 117.454 93.2285C117.332 93.2061 117.214 93.1641 117.106 93.1042C116.962 93.0336 116.836 92.9316 116.738 92.8057C116.657 92.7087 116.591 92.5997 116.544 92.4825C116.474 92.3252 116.434 92.1567 116.424 91.9851L117.588 90.1897C117.588 90.1897 120.075 88.5335 120.886 89.5033C121.696 90.4732 119.205 93.2981 117.822 93.2733Z" fill="#F7A9A0"/>
<path d="M120.145 90.2791V90.314C119.15 90.314 118.404 90.9456 117.767 91.6419C117.85 91.5755 117.946 91.5278 118.049 91.5022C118.151 91.4765 118.259 91.4735 118.363 91.4934C118.467 91.5133 118.565 91.5555 118.651 91.6172C118.737 91.6789 118.809 91.7586 118.861 91.8508C118.861 91.8508 118.861 91.9005 118.822 91.8906C118.691 91.7839 118.53 91.7204 118.362 91.7088C118.194 91.6972 118.026 91.7381 117.882 91.8259C117.642 91.9758 117.418 92.1508 117.215 92.3481C117.146 92.4078 117.026 92.3133 117.091 92.2387C117.499 91.1246 118.936 89.936 120.145 90.2791Z" fill="#263238"/>
<path d="M117.822 92.93C117.769 93.0089 117.688 93.0642 117.595 93.0846C117.502 93.105 117.405 93.0888 117.324 93.0394C117.263 93.0011 117.215 92.9455 117.186 92.8797C117.156 92.8139 117.147 92.7408 117.16 92.6698C117.172 92.5988 117.205 92.5331 117.255 92.481C117.305 92.4289 117.369 92.3929 117.439 92.3774C117.51 92.3619 117.583 92.3677 117.65 92.3941C117.717 92.4204 117.775 92.4662 117.816 92.5254C117.857 92.5847 117.879 92.6548 117.88 92.7268C117.881 92.7989 117.861 92.8696 117.822 92.93Z" fill="white"/>
<path d="M118.727 92.6963C118.7 92.7383 118.661 92.7714 118.615 92.7913C118.569 92.8113 118.519 92.8173 118.47 92.8086C118.42 92.7998 118.375 92.7768 118.339 92.7423C118.303 92.7077 118.277 92.6633 118.266 92.6146C118.255 92.5658 118.259 92.5149 118.277 92.4683C118.295 92.4216 118.326 92.3812 118.367 92.3522C118.407 92.3232 118.456 92.3069 118.506 92.3053C118.556 92.3037 118.605 92.3169 118.647 92.3432C118.704 92.3799 118.744 92.4375 118.759 92.5035C118.774 92.5695 118.763 92.6387 118.727 92.6963Z" fill="white"/>
<path d="M108.506 113.242C108.506 113.242 112.758 105.533 115.176 101.579C117.593 97.625 119.9 98.3213 120.079 102.947C120.259 107.572 121.621 113.51 117.299 121.09C106.099 140.725 108.506 113.242 108.506 113.242Z" fill="#DBDBDB"/>
<path d="M117.707 87.1259L106.88 94.7553C106.802 94.7828 106.733 94.8309 106.68 94.8944C106.628 94.9579 106.593 95.0345 106.58 95.1161C106.567 95.1977 106.577 95.2812 106.608 95.3577C106.639 95.4343 106.69 95.5011 106.755 95.5511L110.282 100.261C110.445 100.381 110.64 100.452 110.842 100.466C111.045 100.48 111.247 100.437 111.426 100.341L122.253 92.6963C122.33 92.6683 122.398 92.6202 122.449 92.5571C122.501 92.494 122.535 92.4182 122.548 92.3375C122.561 92.2568 122.552 92.1742 122.522 92.0982C122.492 92.0222 122.442 91.9557 122.377 91.9055L118.851 87.2254C118.689 87.1023 118.496 87.0276 118.294 87.01C118.091 86.9924 117.888 87.0326 117.707 87.1259Z" fill="#A6A6A6"/>
<path d="M118.026 87.5089L107.198 95.1383C107.122 95.1671 107.054 95.2157 107.002 95.2793C106.951 95.3428 106.917 95.4189 106.904 95.4999C106.891 95.5808 106.9 95.6637 106.93 95.7399C106.96 95.8162 107.01 95.8832 107.074 95.934L110.605 100.644C110.768 100.764 110.961 100.835 111.163 100.849C111.365 100.863 111.566 100.82 111.744 100.724L122.571 93.0942C122.649 93.0667 122.717 93.0191 122.769 92.9563C122.822 92.8934 122.856 92.8177 122.87 92.7369C122.883 92.6562 122.874 92.5734 122.844 92.4971C122.815 92.4208 122.765 92.3539 122.701 92.3034L119.17 87.5935C119.006 87.4727 118.812 87.4007 118.61 87.3857C118.407 87.3708 118.205 87.4135 118.026 87.5089Z" fill="#DBDBDB"/>
<path d="M119.02 89.1403C118.946 89.2224 118.848 89.2806 118.741 89.3075C118.633 89.3344 118.519 89.3287 118.415 89.2913C118.31 89.2538 118.219 89.1863 118.153 89.0971C118.087 89.0079 118.049 88.9012 118.043 88.7903C118.038 88.6794 118.065 88.5693 118.122 88.474C118.179 88.3787 118.263 88.3023 118.363 88.2547C118.463 88.207 118.576 88.1901 118.685 88.2061C118.795 88.222 118.898 88.2702 118.981 88.3445C119.09 88.4453 119.156 88.5853 119.164 88.7342C119.171 88.8832 119.12 89.0291 119.02 89.1403Z" fill="#263238"/>
<path d="M105.711 124.91C105.746 129.028 111.287 129.615 113.172 127.725C117.588 123.298 121.219 113.983 122.835 108.567C123.357 106.826 111.809 102.728 110.968 104.479C109.949 106.582 105.642 116.843 105.711 124.91Z" fill="#F7A9A0"/>
<path d="M120.159 111.541C122.125 109.842 123.703 107.741 124.785 105.379C125.919 102.773 127.769 96.8342 122.795 89.9608C121.612 88.3295 118.777 86.8474 119.737 90.2045C120.423 92.5918 121.572 93.8998 121.726 95.3571C121.726 95.3571 117.897 93.8998 116.315 95.1432C114.928 96.2333 113.62 97.4199 112.401 98.6943C112.585 98.9697 112.786 99.2338 113.003 99.4851C111.889 100.925 111.2 102.648 111.013 104.459L120.159 111.541Z" fill="#F7A9A0"/>
<path d="M125.451 102.718C124.998 101.3 123.999 98.3064 122.328 96.1478C120.467 93.7456 116.245 89.6226 114.489 91.0102C113.196 92.0049 114.673 93.7456 114.673 93.7456C114.673 93.7456 112.57 92.4078 111.605 93.5815C110.724 94.6508 111.948 95.9141 111.948 95.9141C111.948 95.9141 110.53 95.3222 109.884 96.5159C109.103 97.9483 112.201 98.9529 112.669 101.092C112.773 101.569 125.451 102.718 125.451 102.718Z" fill="#F7A9A0"/>
<path d="M120.115 98.5303C118.851 96.4218 116.973 94.7492 114.733 93.7358C114.679 93.7109 114.629 93.7358 114.679 93.7756C116.671 95.1414 118.49 96.7447 120.095 98.5501C120.095 98.5501 120.125 98.5452 120.115 98.5303Z" fill="#263238"/>
<path d="M117.638 100.336C116.971 99.3012 114.594 96.8244 111.978 95.8595C111.923 95.8595 111.874 95.8595 111.923 95.8993C113.983 97.1619 115.893 98.6535 117.618 100.346C117.618 100.346 117.648 100.351 117.638 100.336Z" fill="#263238"/>
<path d="M105.144 125.601C105.368 129.744 111.112 130.41 113.102 128.535C117.732 124.134 121.462 114.799 123.113 109.368L109.864 105.279C108.805 107.383 104.716 117.738 105.144 125.601Z" fill="#DBDBDB"/>
<path d="M110.506 105.478L109.849 105.289C109.078 107.353 108.387 109.457 107.75 111.566C107.114 113.675 106.532 115.813 106.069 117.967C105.607 120.12 105.184 122.304 105.244 124.487C105.234 125.566 105.507 126.629 106.035 127.571C106.316 128.014 106.698 128.385 107.149 128.655C107.612 128.916 108.117 129.094 108.641 129.182C109.696 129.402 110.792 129.316 111.799 128.933C112.795 128.51 113.689 127.877 114.42 127.078C115.867 125.433 117.074 123.591 118.006 121.607C119.001 119.618 119.836 117.594 120.711 115.564C121.587 113.535 122.447 111.501 123.094 109.387L122.676 109.243L123.099 109.377C122.82 110.452 122.442 111.491 122.064 112.531C121.686 113.57 121.288 114.6 120.881 115.624C120.035 117.668 119.214 119.722 118.26 121.722C117.785 122.726 117.254 123.702 116.668 124.646C116.096 125.601 115.43 126.496 114.679 127.317C113.92 128.16 112.986 128.827 111.943 129.271C110.874 129.683 109.709 129.78 108.586 129.55C108.019 129.456 107.473 129.261 106.975 128.973C106.473 128.674 106.051 128.26 105.741 127.765C105.187 126.767 104.903 125.643 104.916 124.502C104.899 123.386 104.981 122.271 105.159 121.17C105.323 120.07 105.552 118.991 105.796 117.907C106.825 113.598 108.185 109.374 109.864 105.274L110.506 105.478Z" fill="#263238"/>
<path d="M115.042 110.874C114.047 110.591 110.113 109.527 109.108 109.382C109.078 109.382 109.068 109.437 109.108 109.447C110.038 109.865 113.967 111.049 114.952 111.332C116.915 111.932 118.907 112.43 120.92 112.824C120.965 112.824 120.99 112.754 120.95 112.74C119.014 112.016 117.042 111.393 115.042 110.874Z" fill="#263238"/>
</svg>
