<svg width="24" height="24" viewBox="0 0 24 24" fill="none" xmlns="http://www.w3.org/2000/svg">
<path d="M6.59533 15.4617C3.72232 15.3143 1.46968 12.9399 1.47364 10.0633V8.24878H2.50307V10.0633C2.49986 12.391 4.32214 14.3122 6.64679 14.4321L6.59533 15.4617Z" fill="#F1F3F5"/>
<path d="M8.67992 22.1599C6.09947 22.1621 3.57368 21.4157 1.40908 20.0107L0 19.097L1.67939 19.0648C3.18499 19.0328 4.61348 18.6918 5.79729 18.0804C4.1032 17.2614 3.02438 15.5482 3.01778 13.6666L4.04721 13.6279V13.6666C4.05155 15.4874 5.32358 17.0593 7.10345 17.4435L8.24881 17.6816L7.30289 18.3636C6.21559 19.1485 4.85797 19.6825 3.38443 19.9334C5.03856 20.7216 6.84765 21.1305 8.67992 21.1303C15.4938 21.1303 21.0338 15.5903 21.0338 8.77638V7.60538L22.1856 5.6879H20.8344L21.4713 3.79625L19.8756 4.5105L19.6247 4.27883C18.3501 3.09539 16.495 2.78078 14.9013 3.47768C13.3079 4.17458 12.2794 5.7503 12.2832 7.48964V8.78279H11.762C7.747 8.7121 4.14372 6.98765 2.2713 4.31106C1.75498 5.76972 1.95857 7.38671 2.82042 8.67194C3.68245 9.95717 5.10114 10.7595 6.6467 10.8354L6.60165 11.8648C4.53035 11.7706 2.65943 10.5994 1.66959 8.7777C0.67975 6.95579 0.715189 4.74896 1.76309 2.95986L2.23266 2.1555L2.66377 2.97908C4.07944 5.6815 7.41241 7.50887 11.2536 7.72753V7.48964C11.2521 5.40496 12.451 3.50577 14.3338 2.61037C16.2164 1.71515 18.4462 1.98396 20.0622 3.30086L23.1894 1.89819L22.2627 4.65848H23.9999L22.0632 7.88852V8.77638C22.0632 16.1565 16.0601 22.1599 8.67992 22.1599Z" fill="#F1F3F5"/>
</svg>
