<svg width="24" height="24" viewBox="0 0 24 24" fill="none" xmlns="http://www.w3.org/2000/svg">
<g clip-path="url(#clip0_273_160)">
<path d="M8.86963 16.4674V7.53271L16.5719 12L8.86963 16.4674ZM9.91323 9.34575V14.6608L14.4914 12L9.91323 9.34575Z" fill="#F1F3F5"/>
<path d="M19.8325 21.3521H4.16735C2.4233 21.3453 0.924189 19.9654 0.58046 18.0503C0.202148 15.9248 0 13.8355 0 12.0021C0 10.1687 0.202148 8.07943 0.58046 5.95395C0.924189 4.03884 2.4233 2.65895 4.16735 2.6521H19.8325C21.5766 2.65895 23.0757 4.03884 23.4196 5.95395C23.7979 8.07943 24.0001 10.176 24.0001 12.0021C24.0001 13.8282 23.7979 15.9248 23.4196 18.0503C23.0757 19.9654 21.5766 21.3453 19.8325 21.3521ZM4.16735 3.82098C2.92084 3.82505 1.84933 4.81139 1.60439 6.18037C1.23907 8.23287 1.04341 10.249 1.04341 12.0021C1.04341 13.7552 1.23907 15.7713 1.60439 17.8238C1.84933 19.1928 2.92084 20.1792 4.16735 20.1832H19.8325C21.079 20.1792 22.1507 19.1928 22.3957 17.8238C22.7608 15.7713 22.9565 13.7552 22.9565 12.0021C22.9565 10.249 22.7608 8.23287 22.3957 6.18037C22.1507 4.81139 21.079 3.82505 19.8325 3.82098H4.16735Z" fill="#F1F3F5"/>
</g>
<defs>
<clipPath id="clip0_273_160">
<rect width="24" height="24" fill="white"/>
</clipPath>
</defs>
</svg>
